<svg width="181" height="69" viewBox="0 0 181 69" fill="none" xmlns="http://www.w3.org/2000/svg">
<path d="M2.552 53C2.072 53 1.664 52.832 1.328 52.496C0.992 52.16 0.824 51.752 0.824 51.272V3.608C0.824 3.08 0.992 2.672 1.328 2.384C1.664 2.048 2.072 1.88 2.552 1.88H8.528C9.056 1.88 9.464 2.048 9.752 2.384C10.088 2.672 10.256 3.08 10.256 3.608V51.272C10.256 51.752 10.088 52.16 9.752 52.496C9.464 52.832 9.056 53 8.528 53H2.552ZM36.3667 53.72C30.7507 53.72 26.4067 52.28 23.3347 49.4C20.2627 46.472 18.6067 42.488 18.3667 37.448L18.2947 34.28L18.3667 31.112C18.6067 26.12 20.2867 22.16 23.4067 19.232C26.5267 16.304 30.8467 14.84 36.3667 14.84C41.8867 14.84 46.2067 16.304 49.3267 19.232C52.4467 22.16 54.1267 26.12 54.3667 31.112C54.4147 31.688 54.4387 32.744 54.4387 34.28C54.4387 35.816 54.4147 36.872 54.3667 37.448C54.1267 42.488 52.4707 46.472 49.3987 49.4C46.3267 52.28 41.9827 53.72 36.3667 53.72ZM36.3667 46.592C38.9107 46.592 40.8787 45.8 42.2707 44.216C43.6627 42.584 44.4307 40.208 44.5747 37.088C44.6227 36.608 44.6467 35.672 44.6467 34.28C44.6467 32.888 44.6227 31.952 44.5747 31.472C44.4307 28.352 43.6627 26 42.2707 24.416C40.8787 22.784 38.9107 21.968 36.3667 21.968C33.8227 21.968 31.8547 22.784 30.4627 24.416C29.0707 26 28.3027 28.352 28.1587 31.472L28.0867 34.28L28.1587 37.088C28.3027 40.208 29.0707 42.584 30.4627 44.216C31.8547 45.8 33.8227 46.592 36.3667 46.592ZM79.3361 68.84C75.0641 68.84 71.6081 68.12 68.9681 66.68C66.3281 65.288 64.4561 63.68 63.3521 61.856C62.2481 60.032 61.6961 58.472 61.6961 57.176C61.6961 56.744 61.8641 56.36 62.2001 56.024C62.5841 55.688 62.9921 55.52 63.4241 55.52H69.6881C70.1201 55.52 70.4801 55.616 70.7681 55.808C71.1041 56.048 71.3681 56.456 71.5601 57.032C72.0401 58.328 72.8081 59.408 73.8641 60.272C74.9681 61.184 76.6721 61.64 78.9761 61.64C81.8561 61.64 83.9681 60.992 85.3121 59.696C86.7041 58.4 87.4001 56.168 87.4001 53V48.104C84.7601 51.224 81.0641 52.784 76.3121 52.784C71.3201 52.784 67.5521 51.248 65.0081 48.176C62.5121 45.104 61.1681 40.976 60.9761 35.792L60.9041 33.848L60.9761 31.904C61.1681 26.816 62.5361 22.712 65.0801 19.592C67.6241 16.424 71.3681 14.84 76.3121 14.84C78.8561 14.84 81.0881 15.32 83.0081 16.28C84.9281 17.24 86.5361 18.56 87.8321 20.24V17.36C87.8321 16.832 88.0001 16.4 88.3361 16.064C88.6721 15.728 89.0801 15.56 89.5601 15.56H95.3921C95.8721 15.56 96.2801 15.752 96.6161 16.136C96.9521 16.472 97.1201 16.88 97.1201 17.36L97.1921 52.064C97.1921 57.392 95.7041 61.52 92.7281 64.448C89.7521 67.376 85.2881 68.84 79.3361 68.84ZM78.9761 45.152C81.7121 45.152 83.7521 44.288 85.0961 42.56C86.4881 40.832 87.2561 38.72 87.4001 36.224C87.4481 35.84 87.4721 35.048 87.4721 33.848C87.4721 32.696 87.4481 31.928 87.4001 31.544C87.2561 29 86.4881 26.864 85.0961 25.136C83.7521 23.408 81.7121 22.544 78.9761 22.544C73.7921 22.544 71.0561 25.736 70.7681 32.12L70.6961 33.848C70.6961 37.256 71.2961 39.992 72.4961 42.056C73.7441 44.12 75.9041 45.152 78.9761 45.152Z" fill="black"/>
<path d="M108.223 9.368C107.743 9.368 107.335 9.2 106.999 8.864C106.663 8.528 106.495 8.12 106.495 7.64V2.456C106.495 1.976 106.663 1.568 106.999 1.232C107.335 0.895998 107.743 0.727999 108.223 0.727999H114.775C115.255 0.727999 115.663 0.895998 115.999 1.232C116.383 1.568 116.575 1.976 116.575 2.456V7.64C116.575 8.12 116.407 8.528 116.071 8.864C115.735 9.2 115.303 9.368 114.775 9.368H108.223ZM108.511 53C108.031 53 107.623 52.832 107.287 52.496C106.951 52.16 106.783 51.752 106.783 51.272V17.288C106.783 16.808 106.951 16.4 107.287 16.064C107.623 15.728 108.031 15.56 108.511 15.56H114.487C115.015 15.56 115.423 15.728 115.711 16.064C116.047 16.352 116.215 16.76 116.215 17.288V51.272C116.215 51.752 116.047 52.16 115.711 52.496C115.423 52.832 115.015 53 114.487 53H108.511ZM127.496 53C127.016 53 126.608 52.832 126.272 52.496C125.936 52.16 125.768 51.752 125.768 51.272V17.288C125.768 16.808 125.936 16.4 126.272 16.064C126.608 15.728 127.016 15.56 127.496 15.56H133.4C133.88 15.56 134.288 15.728 134.624 16.064C134.96 16.4 135.128 16.808 135.128 17.288V20.24C137.96 16.64 141.968 14.84 147.152 14.84C151.568 14.84 155.072 16.304 157.664 19.232C160.256 22.112 161.552 26.048 161.552 31.04V51.272C161.552 51.752 161.384 52.16 161.048 52.496C160.76 52.832 160.352 53 159.824 53H153.488C153.008 53 152.6 52.832 152.264 52.496C151.928 52.16 151.76 51.752 151.76 51.272V31.472C151.76 28.64 151.064 26.456 149.672 24.92C148.328 23.336 146.36 22.544 143.768 22.544C141.224 22.544 139.208 23.336 137.72 24.92C136.28 26.504 135.56 28.688 135.56 31.472V51.272C135.56 51.752 135.392 52.16 135.056 52.496C134.768 52.832 134.36 53 133.832 53H127.496Z" fill="#17C0EB"/>
<path d="M171.993 53C171.513 53 171.105 52.832 170.769 52.496C170.433 52.16 170.265 51.752 170.265 51.272V44.144C170.265 43.664 170.433 43.256 170.769 42.92C171.105 42.536 171.513 42.344 171.993 42.344H179.193C179.673 42.344 180.081 42.536 180.417 42.92C180.753 43.256 180.921 43.664 180.921 44.144V51.272C180.921 51.752 180.753 52.16 180.417 52.496C180.081 52.832 179.673 53 179.193 53H171.993Z" fill="#7158E2"/>
</svg>
