<svg width="243" height="59" viewBox="0 0 243 59" fill="none" xmlns="http://www.w3.org/2000/svg">
<path d="M1.76 46C1.33333 46 0.970667 45.8507 0.672 45.552C0.373333 45.2533 0.224 44.8907 0.224 44.464V14.256C0.224 13.8293 0.373333 13.4667 0.672 13.168C0.970667 12.8693 1.33333 12.72 1.76 12.72H6.752C7.17867 12.72 7.54133 12.8693 7.84 13.168C8.13867 13.4667 8.288 13.8293 8.288 14.256V16.432C10.5067 13.5307 13.6 12.08 17.568 12.08C22.304 12.08 25.6107 13.9787 27.488 17.776C28.512 16.0693 29.9627 14.704 31.84 13.68C33.7173 12.6133 35.744 12.08 37.92 12.08C41.4187 12.08 44.2773 13.2747 46.496 15.664C48.7147 18.0533 49.824 21.5307 49.824 26.096V44.464C49.824 44.8907 49.6747 45.2533 49.376 45.552C49.12 45.8507 48.7573 46 48.288 46H43.04C42.6133 46 42.2507 45.8507 41.952 45.552C41.6533 45.2533 41.504 44.8907 41.504 44.464V26.608C41.504 23.92 40.928 21.9787 39.776 20.784C38.6667 19.5467 37.1733 18.928 35.296 18.928C33.632 18.928 32.2027 19.5467 31.008 20.784C29.856 22.0213 29.28 23.9627 29.28 26.608V44.464C29.28 44.8907 29.1307 45.2533 28.832 45.552C28.5333 45.8507 28.1707 46 27.744 46H22.496C22.0693 46 21.7067 45.8507 21.408 45.552C21.1093 45.2533 20.96 44.8907 20.96 44.464V26.608C20.96 23.92 20.3627 21.9787 19.168 20.784C18.016 19.5467 16.544 18.928 14.752 18.928C13.0453 18.928 11.5947 19.5467 10.4 20.784C9.248 22.0213 8.672 23.9627 8.672 26.608V44.464C8.672 44.8907 8.52267 45.2533 8.224 45.552C7.92533 45.8507 7.56267 46 7.136 46H1.76ZM62.9275 58.16C62.5862 58.16 62.2875 58.032 62.0315 57.776C61.7755 57.52 61.6475 57.2213 61.6475 56.88C61.6475 56.496 61.7328 56.1547 61.9035 55.856L66.8955 44.016L54.6075 15.024C54.4368 14.64 54.3515 14.3413 54.3515 14.128C54.3942 13.744 54.5435 13.424 54.7995 13.168C55.0555 12.8693 55.3755 12.72 55.7595 12.72H60.9435C61.7542 12.72 62.3302 13.1253 62.6715 13.936L71.1835 34.864L79.9515 13.936C80.2928 13.1253 80.8688 12.72 81.6795 12.72H86.7995C87.1408 12.72 87.4395 12.848 87.6955 13.104C87.9942 13.36 88.1435 13.6587 88.1435 14C88.1435 14.2987 88.0582 14.64 87.8875 15.024L69.7755 56.944C69.3915 57.7547 68.7942 58.16 67.9835 58.16H62.9275Z" fill="black"/>
<path d="M120.999 46.64C116.306 46.64 112.551 45.3387 109.735 42.736C106.962 40.1333 105.49 36.528 105.319 31.92L105.255 29.36L105.319 26.8C105.49 22.192 106.962 18.5867 109.735 15.984C112.551 13.3813 116.306 12.08 120.999 12.08C124.327 12.08 127.143 12.6773 129.447 13.872C131.794 15.0667 133.522 16.5387 134.631 18.288C135.783 19.9947 136.402 21.616 136.487 23.152C136.53 23.5787 136.38 23.9413 136.039 24.24C135.74 24.5387 135.378 24.688 134.951 24.688H129.319C128.892 24.688 128.551 24.6027 128.295 24.432C128.082 24.2187 127.868 23.8773 127.655 23.408C127.015 21.744 126.162 20.5493 125.095 19.824C124.071 19.0987 122.748 18.736 121.127 18.736C118.951 18.736 117.244 19.44 116.007 20.848C114.77 22.2133 114.108 24.304 114.023 27.12L113.959 29.488L114.023 31.6C114.194 37.1893 116.562 39.984 121.127 39.984C122.791 39.984 124.135 39.6213 125.159 38.896C126.183 38.1707 127.015 36.976 127.655 35.312C127.868 34.8427 128.082 34.5227 128.295 34.352C128.551 34.1387 128.892 34.032 129.319 34.032H134.951C135.378 34.032 135.74 34.1813 136.039 34.48C136.38 34.7787 136.53 35.1413 136.487 35.568C136.402 37.0613 135.804 38.6613 134.695 40.368C133.586 42.0747 131.879 43.5467 129.575 44.784C127.271 46.0213 124.412 46.64 120.999 46.64ZM152.826 46.64C150.65 46.64 148.644 46.2133 146.81 45.36C145.018 44.464 143.588 43.2693 142.522 41.776C141.498 40.2827 140.986 38.64 140.986 36.848C140.986 33.9467 142.159 31.6 144.506 29.808C146.852 28.016 150.074 26.8 154.17 26.16L162.938 24.88V23.536C162.938 21.6587 162.468 20.2507 161.53 19.312C160.591 18.3733 159.076 17.904 156.986 17.904C155.578 17.904 154.426 18.1813 153.53 18.736C152.676 19.248 151.994 19.76 151.482 20.272C150.97 20.8267 150.628 21.1893 150.458 21.36C150.287 21.872 149.967 22.128 149.498 22.128H144.57C144.186 22.128 143.844 22 143.546 21.744C143.29 21.488 143.161 21.1467 143.161 20.72C143.204 19.6533 143.716 18.4373 144.698 17.072C145.722 15.7067 147.279 14.5333 149.37 13.552C151.46 12.5707 154.02 12.08 157.05 12.08C162.084 12.08 165.754 13.2107 168.058 15.472C170.362 17.7333 171.514 20.6987 171.514 24.368V44.464C171.514 44.8907 171.364 45.2533 171.066 45.552C170.81 45.8507 170.447 46 169.978 46H164.794C164.367 46 164.004 45.8507 163.706 45.552C163.407 45.2533 163.258 44.8907 163.258 44.464V41.968C162.319 43.3333 160.975 44.464 159.226 45.36C157.519 46.2133 155.386 46.64 152.826 46.64ZM155.002 40.56C157.348 40.56 159.268 39.792 160.762 38.256C162.255 36.72 163.002 34.48 163.002 31.536V30.192L156.602 31.216C154.127 31.6 152.25 32.2187 150.97 33.072C149.732 33.9253 149.114 34.9707 149.114 36.208C149.114 37.5733 149.69 38.64 150.842 39.408C151.994 40.176 153.38 40.56 155.002 40.56ZM181.26 46C180.833 46 180.471 45.8507 180.172 45.552C179.873 45.2533 179.724 44.8907 179.724 44.464V14.32C179.724 13.8933 179.873 13.5307 180.172 13.232C180.471 12.8907 180.833 12.72 181.26 12.72H186.444C186.913 12.72 187.297 12.8693 187.596 13.168C187.895 13.4667 188.044 13.8507 188.044 14.32V16.944C189.068 15.5787 190.348 14.5333 191.884 13.808C193.463 13.0827 195.255 12.72 197.26 12.72H199.884C200.353 12.72 200.716 12.8693 200.972 13.168C201.271 13.424 201.42 13.7867 201.42 14.256V18.864C201.42 19.2907 201.271 19.6533 200.972 19.952C200.716 20.2507 200.353 20.4 199.884 20.4H194.892C192.887 20.4 191.308 20.976 190.156 22.128C189.004 23.28 188.428 24.8587 188.428 26.864V44.464C188.428 44.8907 188.279 45.2533 187.98 45.552C187.681 45.8507 187.297 46 186.828 46H181.26ZM221.452 46C217.569 46 214.646 44.9973 212.684 42.992C210.764 40.944 209.804 37.9573 209.804 34.032V19.504H204.748C204.321 19.504 203.958 19.3547 203.66 19.056C203.361 18.7147 203.212 18.3307 203.212 17.904V14.256C203.212 13.8293 203.361 13.4667 203.66 13.168C203.958 12.8693 204.321 12.72 204.748 12.72H209.804V2.096C209.804 1.62666 209.953 1.264 210.252 1.008C210.55 0.709332 210.913 0.559998 211.34 0.559998H216.524C216.993 0.559998 217.356 0.709332 217.612 1.008C217.91 1.264 218.06 1.62666 218.06 2.096V12.72H226.06C226.529 12.72 226.892 12.8693 227.148 13.168C227.446 13.424 227.596 13.7867 227.596 14.256V17.904C227.596 18.3733 227.446 18.7573 227.148 19.056C226.849 19.3547 226.486 19.504 226.06 19.504H218.06V33.392C218.06 35.2267 218.38 36.6133 219.02 37.552C219.66 38.4907 220.726 38.96 222.22 38.96H226.636C227.062 38.96 227.425 39.1093 227.724 39.408C228.022 39.7067 228.172 40.0693 228.172 40.496V44.464C228.172 44.8907 228.022 45.2533 227.724 45.552C227.468 45.8507 227.105 46 226.636 46H221.452Z" fill="#17C0EB"/>
<path d="M235.001 46C234.574 46 234.212 45.8507 233.913 45.552C233.614 45.2533 233.465 44.8907 233.465 44.464V38.128C233.465 37.7013 233.614 37.3387 233.913 37.04C234.212 36.6987 234.574 36.528 235.001 36.528H241.401C241.828 36.528 242.19 36.6987 242.489 37.04C242.788 37.3387 242.937 37.7013 242.937 38.128V44.464C242.937 44.8907 242.788 45.2533 242.489 45.552C242.19 45.8507 241.828 46 241.401 46H235.001Z" fill="#7158E2"/>
</svg>
