<svg width="227" height="40" viewBox="0 0 227 40" fill="none" xmlns="http://www.w3.org/2000/svg">
<path d="M2.64 18C2.48 18 2.344 17.952 2.232 17.856C2.136 17.744 2.088 17.608 2.088 17.448V1.776C2.088 1.6 2.136 1.464 2.232 1.368C2.344 1.256 2.48 1.2 2.64 1.2H3.744C4.032 1.2 4.232 1.312 4.344 1.536L12.312 13.776V1.776C12.312 1.6 12.36 1.464 12.456 1.368C12.568 1.256 12.704 1.2 12.864 1.2H14.016C14.192 1.2 14.328 1.256 14.424 1.368C14.536 1.464 14.592 1.6 14.592 1.776V17.424C14.592 17.584 14.536 17.72 14.424 17.832C14.328 17.944 14.2 18 14.04 18H12.888C12.648 18 12.456 17.888 12.312 17.664L4.368 5.544V17.448C4.368 17.608 4.312 17.744 4.2 17.856C4.088 17.952 3.952 18 3.792 18H2.64ZM23.6155 18.24C21.9675 18.24 20.6475 17.736 19.6555 16.728C18.6795 15.704 18.1435 14.312 18.0475 12.552L18.0235 11.736L18.0475 10.944C18.1595 9.216 18.7035 7.84 19.6795 6.816C20.6715 5.792 21.9755 5.28 23.5915 5.28C25.3675 5.28 26.7435 5.848 27.7195 6.984C28.6955 8.104 29.1835 9.624 29.1835 11.544V11.952C29.1835 12.112 29.1275 12.248 29.0155 12.36C28.9195 12.456 28.7915 12.504 28.6315 12.504H20.3275V12.72C20.3755 13.76 20.6875 14.648 21.2635 15.384C21.8555 16.104 22.6315 16.464 23.5915 16.464C24.3275 16.464 24.9275 16.32 25.3915 16.032C25.8715 15.728 26.2235 15.416 26.4475 15.096C26.5915 14.904 26.6955 14.792 26.7595 14.76C26.8395 14.712 26.9755 14.688 27.1675 14.688H28.3435C28.4875 14.688 28.6075 14.728 28.7035 14.808C28.7995 14.888 28.8475 15 28.8475 15.144C28.8475 15.496 28.6235 15.92 28.1755 16.416C27.7435 16.912 27.1275 17.344 26.3275 17.712C25.5435 18.064 24.6395 18.24 23.6155 18.24ZM26.9035 10.848V10.776C26.9035 9.672 26.5995 8.776 25.9915 8.088C25.3995 7.384 24.5995 7.032 23.5915 7.032C22.5835 7.032 21.7835 7.384 21.1915 8.088C20.6155 8.776 20.3275 9.672 20.3275 10.776V10.848H26.9035ZM35.1971 18C34.9891 18 34.8291 17.952 34.7171 17.856C34.6051 17.76 34.5091 17.608 34.4291 17.4L31.0211 6.264L30.9731 6.024C30.9731 5.88 31.0211 5.76 31.1171 5.664C31.2291 5.568 31.3491 5.52 31.4771 5.52H32.5331C32.6931 5.52 32.8211 5.568 32.9171 5.664C33.0291 5.744 33.1011 5.832 33.1331 5.928L35.7971 14.976L38.6531 6.024C38.6851 5.896 38.7571 5.784 38.8691 5.688C38.9811 5.576 39.1331 5.52 39.3251 5.52H40.1411C40.3331 5.52 40.4851 5.576 40.5971 5.688C40.7091 5.784 40.7811 5.896 40.8131 6.024L43.6691 14.976L46.3331 5.928C46.3491 5.848 46.4051 5.76 46.5011 5.664C46.6131 5.568 46.7491 5.52 46.9091 5.52H47.9891C48.1171 5.52 48.2291 5.568 48.3251 5.664C48.4211 5.76 48.4691 5.88 48.4691 6.024L48.4211 6.264L45.0371 17.4C44.9571 17.608 44.8611 17.76 44.7491 17.856C44.6371 17.952 44.4691 18 44.2451 18H43.3091C42.8771 18 42.6131 17.8 42.5171 17.4L39.7331 8.808L36.9491 17.4C36.8211 17.8 36.5491 18 36.1331 18H35.1971ZM60.6942 18C60.5342 18 60.3982 17.952 60.2862 17.856C60.1902 17.744 60.1422 17.608 60.1422 17.448V3.336H55.5342C55.3742 3.336 55.2382 3.288 55.1262 3.192C55.0302 3.08 54.9822 2.944 54.9822 2.784V1.776C54.9822 1.616 55.0302 1.48 55.1262 1.368C55.2382 1.256 55.3742 1.2 55.5342 1.2H67.1022C67.2782 1.2 67.4142 1.256 67.5102 1.368C67.6222 1.464 67.6782 1.6 67.6782 1.776V2.784C67.6782 2.944 67.6222 3.08 67.5102 3.192C67.3982 3.288 67.2622 3.336 67.1022 3.336H62.5182V17.448C62.5182 17.608 62.4622 17.744 62.3502 17.856C62.2382 17.952 62.1022 18 61.9422 18H60.6942ZM73.0318 18.24C71.2718 18.24 69.9038 17.744 68.9278 16.752C67.9678 15.76 67.4558 14.44 67.3918 12.792L67.3678 11.76L67.3918 10.728C67.4558 9.096 67.9758 7.784 68.9518 6.792C69.9278 5.784 71.2878 5.28 73.0318 5.28C74.7758 5.28 76.1358 5.784 77.1118 6.792C78.0878 7.784 78.6078 9.096 78.6718 10.728C78.6878 10.904 78.6958 11.248 78.6958 11.76C78.6958 12.272 78.6878 12.616 78.6718 12.792C78.6078 14.44 78.0878 15.76 77.1118 16.752C76.1518 17.744 74.7918 18.24 73.0318 18.24ZM73.0318 16.392C74.0398 16.392 74.8318 16.072 75.4078 15.432C75.9998 14.792 76.3198 13.872 76.3678 12.672C76.3838 12.512 76.3918 12.208 76.3918 11.76C76.3918 11.312 76.3838 11.008 76.3678 10.848C76.3198 9.648 75.9998 8.728 75.4078 8.088C74.8318 7.448 74.0398 7.128 73.0318 7.128C72.0238 7.128 71.2238 7.448 70.6318 8.088C70.0398 8.728 69.7278 9.648 69.6958 10.848L69.6718 11.76L69.6958 12.672C69.7278 13.872 70.0398 14.792 70.6318 15.432C71.2238 16.072 72.0238 16.392 73.0318 16.392ZM88.7678 18C88.6078 18 88.4718 17.952 88.3598 17.856C88.2638 17.744 88.2158 17.608 88.2158 17.448V1.776C88.2158 1.6 88.2638 1.464 88.3598 1.368C88.4718 1.256 88.6078 1.2 88.7678 1.2H94.8638C96.6718 1.2 98.0958 1.64 99.1358 2.52C100.176 3.4 100.696 4.672 100.696 6.336C100.696 8 100.176 9.272 99.1358 10.152C98.1118 11.016 96.6878 11.448 94.8638 11.448H90.6158V17.448C90.6158 17.608 90.5598 17.744 90.4478 17.856C90.3358 17.952 90.1998 18 90.0398 18H88.7678ZM94.7438 9.432C95.9118 9.432 96.7918 9.168 97.3838 8.64C97.9918 8.112 98.2958 7.344 98.2958 6.336C98.2958 5.328 97.9998 4.56 97.4078 4.032C96.8158 3.488 95.9278 3.216 94.7438 3.216H90.5918V9.432H94.7438ZM104.038 18C103.878 18 103.742 17.952 103.63 17.856C103.534 17.744 103.486 17.608 103.486 17.448V1.512C103.486 1.352 103.534 1.224 103.63 1.128C103.742 1.016 103.878 0.959999 104.038 0.959999H105.238C105.398 0.959999 105.526 1.016 105.622 1.128C105.734 1.224 105.79 1.352 105.79 1.512V7.104C106.254 6.512 106.798 6.064 107.422 5.76C108.046 5.44 108.822 5.28 109.75 5.28C111.286 5.28 112.478 5.776 113.326 6.768C114.19 7.744 114.622 9.048 114.622 10.68V17.448C114.622 17.608 114.566 17.744 114.454 17.856C114.358 17.952 114.23 18 114.07 18H112.87C112.71 18 112.574 17.952 112.462 17.856C112.366 17.744 112.318 17.608 112.318 17.448V10.8C112.318 9.664 112.038 8.784 111.478 8.16C110.934 7.536 110.142 7.224 109.102 7.224C108.094 7.224 107.286 7.544 106.678 8.184C106.086 8.808 105.79 9.68 105.79 10.8V17.448C105.79 17.608 105.734 17.744 105.622 17.856C105.526 17.952 105.398 18 105.238 18H104.038ZM121.727 18.24C120.943 18.24 120.215 18.08 119.543 17.76C118.871 17.44 118.335 17.008 117.935 16.464C117.551 15.904 117.359 15.288 117.359 14.616C117.359 13.56 117.791 12.696 118.655 12.024C119.535 11.336 120.719 10.888 122.207 10.68L125.783 10.176V9.48C125.783 7.848 124.847 7.032 122.975 7.032C122.271 7.032 121.695 7.184 121.247 7.488C120.799 7.776 120.463 8.12 120.239 8.52C120.191 8.664 120.127 8.768 120.047 8.832C119.983 8.896 119.887 8.928 119.759 8.928H118.727C118.583 8.928 118.455 8.88 118.343 8.784C118.247 8.672 118.199 8.544 118.199 8.4C118.215 8.016 118.391 7.584 118.727 7.104C119.079 6.608 119.615 6.184 120.335 5.832C121.055 5.464 121.943 5.28 122.999 5.28C124.791 5.28 126.079 5.704 126.863 6.552C127.647 7.384 128.039 8.424 128.039 9.672V17.448C128.039 17.608 127.983 17.744 127.871 17.856C127.775 17.952 127.647 18 127.487 18H126.383C126.223 18 126.087 17.952 125.975 17.856C125.879 17.744 125.831 17.608 125.831 17.448V16.416C125.479 16.928 124.967 17.36 124.295 17.712C123.623 18.064 122.767 18.24 121.727 18.24ZM122.231 16.44C123.271 16.44 124.119 16.104 124.775 15.432C125.447 14.744 125.783 13.76 125.783 12.48V11.808L122.999 12.216C121.863 12.376 121.007 12.648 120.431 13.032C119.855 13.4 119.567 13.872 119.567 14.448C119.567 15.088 119.831 15.584 120.359 15.936C120.887 16.272 121.511 16.44 122.231 16.44ZM132.201 18C132.041 18 131.905 17.952 131.793 17.856C131.697 17.744 131.649 17.608 131.649 17.448V6.096C131.649 5.936 131.697 5.8 131.793 5.688C131.905 5.576 132.041 5.52 132.201 5.52H133.305C133.465 5.52 133.601 5.576 133.713 5.688C133.825 5.8 133.881 5.936 133.881 6.096V7.152C134.537 6.064 135.657 5.52 137.241 5.52H138.177C138.337 5.52 138.465 5.576 138.561 5.688C138.673 5.784 138.729 5.912 138.729 6.072V7.056C138.729 7.216 138.673 7.344 138.561 7.44C138.465 7.536 138.337 7.584 138.177 7.584H136.737C135.873 7.584 135.193 7.84 134.697 8.352C134.201 8.848 133.953 9.528 133.953 10.392V17.448C133.953 17.608 133.897 17.744 133.785 17.856C133.673 17.952 133.537 18 133.377 18H132.201ZM141.479 18C141.319 18 141.183 17.952 141.071 17.856C140.975 17.744 140.927 17.608 140.927 17.448V6.072C140.927 5.912 140.975 5.784 141.071 5.688C141.183 5.576 141.319 5.52 141.479 5.52H142.559C142.719 5.52 142.847 5.576 142.943 5.688C143.055 5.784 143.111 5.912 143.111 6.072V6.912C143.943 5.824 145.103 5.28 146.591 5.28C148.367 5.28 149.623 6.016 150.359 7.488C150.743 6.816 151.287 6.28 151.991 5.88C152.695 5.48 153.487 5.28 154.367 5.28C155.679 5.28 156.751 5.728 157.583 6.624C158.415 7.52 158.831 8.816 158.831 10.512V17.448C158.831 17.608 158.775 17.744 158.663 17.856C158.567 17.952 158.439 18 158.279 18H157.151C156.991 18 156.855 17.952 156.743 17.856C156.647 17.744 156.599 17.608 156.599 17.448V10.728C156.599 9.48 156.335 8.584 155.807 8.04C155.295 7.496 154.615 7.224 153.767 7.224C153.015 7.224 152.367 7.504 151.823 8.064C151.279 8.608 151.007 9.496 151.007 10.728V17.448C151.007 17.608 150.951 17.744 150.839 17.856C150.743 17.952 150.615 18 150.455 18H149.327C149.167 18 149.031 17.952 148.919 17.856C148.823 17.744 148.775 17.608 148.775 17.448V10.728C148.775 9.48 148.503 8.584 147.959 8.04C147.431 7.496 146.759 7.224 145.943 7.224C145.191 7.224 144.543 7.504 143.999 8.064C143.455 8.608 143.183 9.488 143.183 10.704V17.448C143.183 17.608 143.127 17.744 143.015 17.856C142.919 17.952 142.791 18 142.631 18H141.479ZM165.895 18.24C165.111 18.24 164.383 18.08 163.711 17.76C163.039 17.44 162.503 17.008 162.103 16.464C161.719 15.904 161.527 15.288 161.527 14.616C161.527 13.56 161.959 12.696 162.823 12.024C163.703 11.336 164.887 10.888 166.375 10.68L169.951 10.176V9.48C169.951 7.848 169.015 7.032 167.143 7.032C166.439 7.032 165.863 7.184 165.415 7.488C164.967 7.776 164.631 8.12 164.407 8.52C164.359 8.664 164.295 8.768 164.215 8.832C164.151 8.896 164.055 8.928 163.927 8.928H162.895C162.751 8.928 162.623 8.88 162.511 8.784C162.415 8.672 162.367 8.544 162.367 8.4C162.383 8.016 162.559 7.584 162.895 7.104C163.247 6.608 163.783 6.184 164.503 5.832C165.223 5.464 166.111 5.28 167.167 5.28C168.959 5.28 170.247 5.704 171.031 6.552C171.815 7.384 172.207 8.424 172.207 9.672V17.448C172.207 17.608 172.151 17.744 172.039 17.856C171.943 17.952 171.815 18 171.655 18H170.551C170.391 18 170.255 17.952 170.143 17.856C170.047 17.744 169.999 17.608 169.999 17.448V16.416C169.647 16.928 169.135 17.36 168.463 17.712C167.791 18.064 166.935 18.24 165.895 18.24ZM166.399 16.44C167.439 16.44 168.287 16.104 168.943 15.432C169.615 14.744 169.951 13.76 169.951 12.48V11.808L167.167 12.216C166.031 12.376 165.175 12.648 164.599 13.032C164.023 13.4 163.735 13.872 163.735 14.448C163.735 15.088 163.999 15.584 164.527 15.936C165.055 16.272 165.679 16.44 166.399 16.44ZM175.577 18C175.417 18 175.281 17.952 175.169 17.856C175.073 17.744 175.025 17.608 175.025 17.448V16.608C175.025 16.48 175.057 16.352 175.121 16.224C175.201 16.08 175.281 15.952 175.361 15.84L181.985 7.416H175.793C175.633 7.416 175.497 7.368 175.385 7.272C175.289 7.16 175.241 7.024 175.241 6.864V6.072C175.241 5.912 175.289 5.784 175.385 5.688C175.497 5.576 175.633 5.52 175.793 5.52H184.337C184.497 5.52 184.625 5.576 184.721 5.688C184.833 5.784 184.889 5.912 184.889 6.072V6.96C184.889 7.088 184.849 7.216 184.769 7.344C184.705 7.472 184.633 7.592 184.553 7.704L178.001 16.104H184.817C184.993 16.104 185.129 16.152 185.225 16.248C185.321 16.344 185.369 16.48 185.369 16.656V17.448C185.369 17.608 185.313 17.744 185.201 17.856C185.105 17.952 184.977 18 184.817 18H175.577ZM193.159 18.24C191.399 18.24 190.031 17.744 189.055 16.752C188.095 15.76 187.583 14.44 187.519 12.792L187.495 11.76L187.519 10.728C187.583 9.096 188.103 7.784 189.079 6.792C190.055 5.784 191.415 5.28 193.159 5.28C194.903 5.28 196.263 5.784 197.239 6.792C198.215 7.784 198.735 9.096 198.799 10.728C198.815 10.904 198.823 11.248 198.823 11.76C198.823 12.272 198.815 12.616 198.799 12.792C198.735 14.44 198.215 15.76 197.239 16.752C196.279 17.744 194.919 18.24 193.159 18.24ZM193.159 16.392C194.167 16.392 194.959 16.072 195.535 15.432C196.127 14.792 196.447 13.872 196.495 12.672C196.511 12.512 196.519 12.208 196.519 11.76C196.519 11.312 196.511 11.008 196.495 10.848C196.447 9.648 196.127 8.728 195.535 8.088C194.959 7.448 194.167 7.128 193.159 7.128C192.151 7.128 191.351 7.448 190.759 8.088C190.167 8.728 189.855 9.648 189.823 10.848L189.799 11.76L189.823 12.672C189.855 13.872 190.167 14.792 190.759 15.432C191.351 16.072 192.151 16.392 193.159 16.392ZM202.54 18C202.38 18 202.244 17.952 202.132 17.856C202.036 17.744 201.988 17.608 201.988 17.448V6.072C201.988 5.912 202.036 5.784 202.132 5.688C202.244 5.576 202.38 5.52 202.54 5.52H203.668C203.828 5.52 203.956 5.576 204.052 5.688C204.164 5.784 204.22 5.912 204.22 6.072V7.128C204.684 6.536 205.228 6.08 205.852 5.76C206.492 5.44 207.284 5.28 208.228 5.28C209.764 5.28 210.956 5.776 211.804 6.768C212.668 7.744 213.1 9.048 213.1 10.68V17.448C213.1 17.608 213.044 17.744 212.932 17.856C212.836 17.952 212.708 18 212.548 18H211.348C211.188 18 211.052 17.952 210.94 17.856C210.844 17.744 210.796 17.608 210.796 17.448V10.8C210.796 9.664 210.516 8.784 209.956 8.16C209.412 7.536 208.62 7.224 207.58 7.224C206.572 7.224 205.772 7.544 205.18 8.184C204.588 8.808 204.292 9.68 204.292 10.8V17.448C204.292 17.608 204.236 17.744 204.124 17.856C204.028 17.952 203.9 18 203.74 18H202.54ZM220.337 14.064C220.193 14.064 220.073 14.016 219.977 13.92C219.881 13.824 219.833 13.704 219.833 13.56V12.6C219.865 11.752 220.081 11.024 220.481 10.416C220.881 9.808 221.465 9.112 222.233 8.328C222.857 7.688 223.313 7.16 223.601 6.744C223.889 6.328 224.033 5.872 224.033 5.376C224.033 4.64 223.721 4.056 223.097 3.624C222.489 3.192 221.777 2.976 220.961 2.976C219.057 2.976 217.937 3.936 217.601 5.856C217.521 6.208 217.313 6.384 216.977 6.384H215.825C215.665 6.384 215.537 6.336 215.441 6.24C215.345 6.144 215.297 6.016 215.297 5.856C215.329 4.976 215.577 4.168 216.041 3.432C216.521 2.68 217.193 2.08 218.057 1.632C218.921 1.184 219.913 0.959999 221.033 0.959999C222.217 0.959999 223.209 1.168 224.009 1.584C224.825 1.984 225.425 2.512 225.809 3.168C226.193 3.808 226.385 4.496 226.385 5.232C226.385 6.048 226.201 6.752 225.833 7.344C225.465 7.936 224.913 8.624 224.177 9.408C223.569 10.048 223.113 10.592 222.809 11.04C222.505 11.472 222.329 11.96 222.281 12.504C222.249 12.952 222.233 13.288 222.233 13.512C222.153 13.88 221.953 14.064 221.633 14.064H220.337ZM220.145 18C219.985 18 219.849 17.952 219.737 17.856C219.641 17.744 219.593 17.608 219.593 17.448V15.984C219.593 15.824 219.641 15.696 219.737 15.6C219.849 15.488 219.985 15.432 220.145 15.432H221.705C221.865 15.432 222.001 15.488 222.113 15.6C222.225 15.696 222.281 15.824 222.281 15.984V17.448C222.281 17.608 222.225 17.744 222.113 17.856C222.001 17.952 221.865 18 221.705 18H220.145Z" fill="#666666"/>
<path d="M4.746 39.14C3.49533 39.14 2.54333 38.804 1.89 38.132C1.246 37.46 0.900667 36.5313 0.854 35.346C0.844667 35.094 0.84 34.6833 0.84 34.114C0.84 33.5353 0.844667 33.1153 0.854 32.854C0.900667 31.678 1.25067 30.754 1.904 30.082C2.55733 29.4007 3.50467 29.06 4.746 29.06C5.57667 29.06 6.28133 29.2093 6.86 29.508C7.43867 29.7973 7.87733 30.18 8.176 30.656C8.47467 31.132 8.638 31.6407 8.666 32.182V32.21C8.666 32.2847 8.63333 32.35 8.568 32.406C8.512 32.4527 8.44667 32.476 8.372 32.476H7.602C7.41533 32.476 7.29867 32.3687 7.252 32.154C7.09333 31.454 6.80867 30.964 6.398 30.684C5.98733 30.3947 5.43667 30.25 4.746 30.25C3.14067 30.25 2.31 31.1413 2.254 32.924C2.24467 33.176 2.24 33.5633 2.24 34.086C2.24 34.6087 2.24467 35.0053 2.254 35.276C2.31 37.0587 3.14067 37.95 4.746 37.95C5.43667 37.95 5.98733 37.81 6.398 37.53C6.818 37.2407 7.10267 36.746 7.252 36.046C7.28 35.9247 7.322 35.8407 7.378 35.794C7.434 35.7473 7.50867 35.724 7.602 35.724H8.372C8.456 35.724 8.526 35.752 8.582 35.808C8.64733 35.8547 8.67533 35.92 8.666 36.004C8.638 36.5547 8.47467 37.068 8.176 37.544C7.87733 38.02 7.43867 38.4073 6.86 38.706C6.28133 38.9953 5.57667 39.14 4.746 39.14ZM10.8422 39C10.7489 39 10.6696 38.972 10.6042 38.916C10.5482 38.8507 10.5202 38.7713 10.5202 38.678V32.056C10.5202 31.9627 10.5482 31.8833 10.6042 31.818C10.6696 31.7527 10.7489 31.72 10.8422 31.72H11.4862C11.5796 31.72 11.6589 31.7527 11.7242 31.818C11.7896 31.8833 11.8222 31.9627 11.8222 32.056V32.672C12.2049 32.0373 12.8582 31.72 13.7822 31.72H14.3282C14.4216 31.72 14.4962 31.7527 14.5522 31.818C14.6176 31.874 14.6502 31.9487 14.6502 32.042V32.616C14.6502 32.7093 14.6176 32.784 14.5522 32.84C14.4962 32.896 14.4216 32.924 14.3282 32.924H13.4882C12.9842 32.924 12.5876 33.0733 12.2982 33.372C12.0089 33.6613 11.8642 34.058 11.8642 34.562V38.678C11.8642 38.7713 11.8316 38.8507 11.7662 38.916C11.7009 38.972 11.6216 39 11.5282 39H10.8422ZM18.7739 39.14C17.8125 39.14 17.0425 38.846 16.4639 38.258C15.8945 37.6607 15.5819 36.8487 15.5259 35.822L15.5119 35.346L15.5259 34.884C15.5912 33.876 15.9085 33.0733 16.4779 32.476C17.0565 31.8787 17.8172 31.58 18.7599 31.58C19.7959 31.58 20.5985 31.9113 21.1679 32.574C21.7372 33.2273 22.0219 34.114 22.0219 35.234V35.472C22.0219 35.5653 21.9892 35.6447 21.9239 35.71C21.8679 35.766 21.7932 35.794 21.6999 35.794H16.8559V35.92C16.8839 36.5267 17.0659 37.0447 17.4019 37.474C17.7472 37.894 18.1999 38.104 18.7599 38.104C19.1892 38.104 19.5392 38.02 19.8099 37.852C20.0899 37.6747 20.2952 37.4927 20.4259 37.306C20.5099 37.194 20.5705 37.1287 20.6079 37.11C20.6545 37.082 20.7339 37.068 20.8459 37.068H21.5319C21.6159 37.068 21.6859 37.0913 21.7419 37.138C21.7979 37.1847 21.8259 37.25 21.8259 37.334C21.8259 37.5393 21.6952 37.7867 21.4339 38.076C21.1819 38.3653 20.8225 38.6173 20.3559 38.832C19.8985 39.0373 19.3712 39.14 18.7739 39.14ZM20.6919 34.828V34.786C20.6919 34.142 20.5145 33.6193 20.1599 33.218C19.8145 32.8073 19.3479 32.602 18.7599 32.602C18.1719 32.602 17.7052 32.8073 17.3599 33.218C17.0239 33.6193 16.8559 34.142 16.8559 34.786V34.828H20.6919ZM25.8858 39.14C25.4285 39.14 25.0038 39.0467 24.6118 38.86C24.2198 38.6733 23.9072 38.4213 23.6738 38.104C23.4498 37.7773 23.3378 37.418 23.3378 37.026C23.3378 36.41 23.5898 35.906 24.0938 35.514C24.6072 35.1127 25.2978 34.8513 26.1658 34.73L28.2518 34.436V34.03C28.2518 33.078 27.7058 32.602 26.6138 32.602C26.2032 32.602 25.8672 32.6907 25.6058 32.868C25.3445 33.036 25.1485 33.2367 25.0178 33.47C24.9898 33.554 24.9525 33.6147 24.9058 33.652C24.8685 33.6893 24.8125 33.708 24.7378 33.708H24.1358C24.0518 33.708 23.9772 33.68 23.9118 33.624C23.8558 33.5587 23.8278 33.484 23.8278 33.4C23.8372 33.176 23.9398 32.924 24.1358 32.644C24.3412 32.3547 24.6538 32.1073 25.0738 31.902C25.4938 31.6873 26.0118 31.58 26.6278 31.58C27.6732 31.58 28.4245 31.8273 28.8818 32.322C29.3392 32.8073 29.5678 33.414 29.5678 34.142V38.678C29.5678 38.7713 29.5352 38.8507 29.4698 38.916C29.4138 38.972 29.3392 39 29.2458 39H28.6018C28.5085 39 28.4292 38.972 28.3638 38.916C28.3078 38.8507 28.2798 38.7713 28.2798 38.678V38.076C28.0745 38.3747 27.7758 38.6267 27.3838 38.832C26.9918 39.0373 26.4925 39.14 25.8858 39.14ZM26.1798 38.09C26.7865 38.09 27.2812 37.894 27.6638 37.502C28.0558 37.1007 28.2518 36.5267 28.2518 35.78V35.388L26.6278 35.626C25.9652 35.7193 25.4658 35.878 25.1298 36.102C24.7938 36.3167 24.6258 36.592 24.6258 36.928C24.6258 37.3013 24.7798 37.5907 25.0878 37.796C25.3958 37.992 25.7598 38.09 26.1798 38.09ZM34.5141 39C33.0394 39 32.3021 38.1787 32.3021 36.536V32.84H31.2101C31.1168 32.84 31.0374 32.812 30.9721 32.756C30.9161 32.6907 30.8881 32.6113 30.8881 32.518V32.042C30.8881 31.9487 30.9161 31.874 30.9721 31.818C31.0374 31.7527 31.1168 31.72 31.2101 31.72H32.3021V29.382C32.3021 29.2887 32.3301 29.214 32.3861 29.158C32.4514 29.0927 32.5308 29.06 32.6241 29.06H33.2821C33.3754 29.06 33.4501 29.0927 33.5061 29.158C33.5714 29.214 33.6041 29.2887 33.6041 29.382V31.72H35.3401C35.4334 31.72 35.5081 31.7527 35.5641 31.818C35.6294 31.874 35.6621 31.9487 35.6621 32.042V32.518C35.6621 32.6113 35.6294 32.6907 35.5641 32.756C35.5081 32.812 35.4334 32.84 35.3401 32.84H33.6041V36.438C33.6041 36.9047 33.6834 37.2593 33.8421 37.502C34.0008 37.7353 34.2621 37.852 34.6261 37.852H35.4801C35.5734 37.852 35.6481 37.8847 35.7041 37.95C35.7694 38.006 35.8021 38.0807 35.8021 38.174V38.678C35.8021 38.7713 35.7694 38.8507 35.7041 38.916C35.6481 38.972 35.5734 39 35.4801 39H34.5141ZM40.2128 39.14C39.2515 39.14 38.4815 38.846 37.9028 38.258C37.3335 37.6607 37.0208 36.8487 36.9648 35.822L36.9508 35.346L36.9648 34.884C37.0302 33.876 37.3475 33.0733 37.9168 32.476C38.4955 31.8787 39.2562 31.58 40.1988 31.58C41.2348 31.58 42.0375 31.9113 42.6068 32.574C43.1762 33.2273 43.4608 34.114 43.4608 35.234V35.472C43.4608 35.5653 43.4282 35.6447 43.3628 35.71C43.3068 35.766 43.2322 35.794 43.1388 35.794H38.2948V35.92C38.3228 36.5267 38.5048 37.0447 38.8408 37.474C39.1862 37.894 39.6388 38.104 40.1988 38.104C40.6282 38.104 40.9782 38.02 41.2488 37.852C41.5288 37.6747 41.7342 37.4927 41.8648 37.306C41.9488 37.194 42.0095 37.1287 42.0468 37.11C42.0935 37.082 42.1728 37.068 42.2848 37.068H42.9708C43.0548 37.068 43.1248 37.0913 43.1808 37.138C43.2368 37.1847 43.2648 37.25 43.2648 37.334C43.2648 37.5393 43.1342 37.7867 42.8728 38.076C42.6208 38.3653 42.2615 38.6173 41.7948 38.832C41.3375 39.0373 40.8102 39.14 40.2128 39.14ZM42.1308 34.828V34.786C42.1308 34.142 41.9535 33.6193 41.5988 33.218C41.2535 32.8073 40.7868 32.602 40.1988 32.602C39.6108 32.602 39.1442 32.8073 38.7988 33.218C38.4628 33.6193 38.2948 34.142 38.2948 34.786V34.828H42.1308ZM49.3905 39C49.2971 39 49.2178 38.972 49.1525 38.916C49.0965 38.8507 49.0685 38.7713 49.0685 38.678V29.536C49.0685 29.4333 49.0965 29.354 49.1525 29.298C49.2178 29.2327 49.2971 29.2 49.3905 29.2H50.0345C50.2025 29.2 50.3191 29.2653 50.3845 29.396L55.0325 36.536V29.536C55.0325 29.4333 55.0605 29.354 55.1165 29.298C55.1818 29.2327 55.2611 29.2 55.3545 29.2H56.0265C56.1291 29.2 56.2085 29.2327 56.2645 29.298C56.3298 29.354 56.3625 29.4333 56.3625 29.536V38.664C56.3625 38.7573 56.3298 38.8367 56.2645 38.902C56.2085 38.9673 56.1338 39 56.0405 39H55.3685C55.2285 39 55.1165 38.9347 55.0325 38.804L50.3985 31.734V38.678C50.3985 38.7713 50.3658 38.8507 50.3005 38.916C50.2351 38.972 50.1558 39 50.0625 39H49.3905ZM61.6928 39.14C60.7315 39.14 59.9615 38.846 59.3828 38.258C58.8135 37.6607 58.5008 36.8487 58.4448 35.822L58.4308 35.346L58.4448 34.884C58.5102 33.876 58.8275 33.0733 59.3968 32.476C59.9755 31.8787 60.7362 31.58 61.6788 31.58C62.7148 31.58 63.5175 31.9113 64.0868 32.574C64.6562 33.2273 64.9408 34.114 64.9408 35.234V35.472C64.9408 35.5653 64.9082 35.6447 64.8428 35.71C64.7868 35.766 64.7122 35.794 64.6188 35.794H59.7748V35.92C59.8028 36.5267 59.9848 37.0447 60.3208 37.474C60.6662 37.894 61.1188 38.104 61.6788 38.104C62.1082 38.104 62.4582 38.02 62.7288 37.852C63.0088 37.6747 63.2142 37.4927 63.3448 37.306C63.4288 37.194 63.4895 37.1287 63.5268 37.11C63.5735 37.082 63.6528 37.068 63.7648 37.068H64.4508C64.5348 37.068 64.6048 37.0913 64.6608 37.138C64.7168 37.1847 64.7448 37.25 64.7448 37.334C64.7448 37.5393 64.6142 37.7867 64.3528 38.076C64.1008 38.3653 63.7415 38.6173 63.2748 38.832C62.8175 39.0373 62.2902 39.14 61.6928 39.14ZM63.6108 34.828V34.786C63.6108 34.142 63.4335 33.6193 63.0788 33.218C62.7335 32.8073 62.2668 32.602 61.6788 32.602C61.0908 32.602 60.6242 32.8073 60.2788 33.218C59.9428 33.6193 59.7748 34.142 59.7748 34.786V34.828H63.6108ZM68.5154 39C68.3941 39 68.3008 38.972 68.2354 38.916C68.1701 38.86 68.1141 38.7713 68.0674 38.65L66.0794 32.154L66.0514 32.014C66.0514 31.93 66.0794 31.86 66.1354 31.804C66.2008 31.748 66.2708 31.72 66.3454 31.72H66.9614C67.0548 31.72 67.1294 31.748 67.1854 31.804C67.2508 31.8507 67.2928 31.902 67.3114 31.958L68.8654 37.236L70.5314 32.014C70.5501 31.9393 70.5921 31.874 70.6574 31.818C70.7228 31.7527 70.8114 31.72 70.9234 31.72H71.3994C71.5114 31.72 71.6001 31.7527 71.6654 31.818C71.7308 31.874 71.7728 31.9393 71.7914 32.014L73.4574 37.236L75.0114 31.958C75.0208 31.9113 75.0534 31.86 75.1094 31.804C75.1748 31.748 75.2541 31.72 75.3474 31.72H75.9774C76.0521 31.72 76.1174 31.748 76.1734 31.804C76.2294 31.86 76.2574 31.93 76.2574 32.014L76.2294 32.154L74.2554 38.65C74.2088 38.7713 74.1528 38.86 74.0874 38.916C74.0221 38.972 73.9241 39 73.7934 39H73.2474C72.9954 39 72.8414 38.8833 72.7854 38.65L71.1614 33.638L69.5374 38.65C69.4628 38.8833 69.3041 39 69.0614 39H68.5154ZM80.3864 39C80.3117 39 80.2464 38.972 80.1904 38.916C80.1344 38.86 80.1064 38.7947 80.1064 38.72C80.1064 38.6453 80.1111 38.594 80.1204 38.566L83.5924 29.508C83.6671 29.3027 83.8164 29.2 84.0404 29.2H84.9924C85.2164 29.2 85.3657 29.3027 85.4404 29.508L88.8984 38.566L88.9264 38.72C88.9264 38.7947 88.8984 38.86 88.8424 38.916C88.7864 38.972 88.7211 39 88.6464 39H87.9324C87.8297 39 87.7504 38.9767 87.6944 38.93C87.6384 38.874 87.6011 38.818 87.5824 38.762L86.8124 36.774H82.2204L81.4504 38.762C81.4317 38.818 81.3897 38.874 81.3244 38.93C81.2684 38.9767 81.1937 39 81.1004 39H80.3864ZM86.4064 35.57L84.5164 30.6L82.6264 35.57H86.4064ZM93.2593 39.14C92.2606 39.14 91.4766 38.86 90.9073 38.3C90.3473 37.7307 90.0486 36.9373 90.0113 35.92L89.9973 35.36L90.0113 34.8C90.0486 33.7827 90.3473 32.994 90.9073 32.434C91.4766 31.8647 92.2606 31.58 93.2593 31.58C93.9313 31.58 94.5006 31.7013 94.9673 31.944C95.4339 32.1867 95.7793 32.4853 96.0033 32.84C96.2366 33.1947 96.3626 33.5493 96.3813 33.904C96.3906 33.9973 96.3626 34.072 96.2973 34.128C96.2319 34.184 96.1526 34.212 96.0593 34.212H95.3873C95.2939 34.212 95.2239 34.1933 95.1773 34.156C95.1306 34.1187 95.0839 34.044 95.0373 33.932C94.8786 33.484 94.6546 33.1667 94.3653 32.98C94.0759 32.784 93.7119 32.686 93.2733 32.686C92.6946 32.686 92.2326 32.868 91.8873 33.232C91.5513 33.5867 91.3693 34.1327 91.3413 34.87L91.3273 35.374L91.3413 35.85C91.3693 36.5967 91.5513 37.1473 91.8873 37.502C92.2233 37.8567 92.6853 38.034 93.2733 38.034C93.7119 38.034 94.0759 37.9407 94.3653 37.754C94.6546 37.558 94.8786 37.236 95.0373 36.788C95.0839 36.676 95.1306 36.6013 95.1773 36.564C95.2239 36.5173 95.2939 36.494 95.3873 36.494H96.0593C96.1526 36.494 96.2319 36.5267 96.2973 36.592C96.3626 36.648 96.3906 36.7227 96.3813 36.816C96.3626 37.1613 96.2366 37.516 96.0033 37.88C95.7793 38.2347 95.4339 38.5333 94.9673 38.776C94.5099 39.0187 93.9406 39.14 93.2593 39.14ZM101.144 39.14C100.145 39.14 99.3612 38.86 98.7919 38.3C98.2319 37.7307 97.9332 36.9373 97.8959 35.92L97.8819 35.36L97.8959 34.8C97.9332 33.7827 98.2319 32.994 98.7919 32.434C99.3612 31.8647 100.145 31.58 101.144 31.58C101.816 31.58 102.385 31.7013 102.852 31.944C103.319 32.1867 103.664 32.4853 103.888 32.84C104.121 33.1947 104.247 33.5493 104.266 33.904C104.275 33.9973 104.247 34.072 104.182 34.128C104.117 34.184 104.037 34.212 103.944 34.212H103.272C103.179 34.212 103.109 34.1933 103.062 34.156C103.015 34.1187 102.969 34.044 102.922 33.932C102.763 33.484 102.539 33.1667 102.25 32.98C101.961 32.784 101.597 32.686 101.158 32.686C100.579 32.686 100.117 32.868 99.7719 33.232C99.4359 33.5867 99.2539 34.1327 99.2259 34.87L99.2119 35.374L99.2259 35.85C99.2539 36.5967 99.4359 37.1473 99.7719 37.502C100.108 37.8567 100.57 38.034 101.158 38.034C101.597 38.034 101.961 37.9407 102.25 37.754C102.539 37.558 102.763 37.236 102.922 36.788C102.969 36.676 103.015 36.6013 103.062 36.564C103.109 36.5173 103.179 36.494 103.272 36.494H103.944C104.037 36.494 104.117 36.5267 104.182 36.592C104.247 36.648 104.275 36.7227 104.266 36.816C104.247 37.1613 104.121 37.516 103.888 37.88C103.664 38.2347 103.319 38.5333 102.852 38.776C102.395 39.0187 101.825 39.14 101.144 39.14ZM109.07 39.14C108.044 39.14 107.246 38.8507 106.676 38.272C106.116 37.6933 105.818 36.9233 105.78 35.962L105.766 35.36L105.78 34.758C105.818 33.806 106.121 33.0407 106.69 32.462C107.26 31.874 108.053 31.58 109.07 31.58C110.088 31.58 110.881 31.874 111.45 32.462C112.02 33.0407 112.323 33.806 112.36 34.758C112.37 34.8607 112.374 35.0613 112.374 35.36C112.374 35.6587 112.37 35.8593 112.36 35.962C112.323 36.9233 112.02 37.6933 111.45 38.272C110.89 38.8507 110.097 39.14 109.07 39.14ZM109.07 38.062C109.658 38.062 110.12 37.8753 110.456 37.502C110.802 37.1287 110.988 36.592 111.016 35.892C111.026 35.7987 111.03 35.6213 111.03 35.36C111.03 35.0987 111.026 34.9213 111.016 34.828C110.988 34.128 110.802 33.5913 110.456 33.218C110.12 32.8447 109.658 32.658 109.07 32.658C108.482 32.658 108.016 32.8447 107.67 33.218C107.325 33.5913 107.143 34.128 107.124 34.828L107.11 35.36L107.124 35.892C107.143 36.592 107.325 37.1287 107.67 37.502C108.016 37.8753 108.482 38.062 109.07 38.062ZM117.004 39.14C116.117 39.14 115.431 38.8553 114.946 38.286C114.46 37.7073 114.218 36.942 114.218 35.99V32.042C114.218 31.9487 114.246 31.874 114.302 31.818C114.367 31.7527 114.446 31.72 114.54 31.72H115.24C115.333 31.72 115.408 31.7527 115.464 31.818C115.529 31.874 115.562 31.9487 115.562 32.042V35.92C115.562 37.3107 116.168 38.006 117.382 38.006C117.97 38.006 118.436 37.824 118.782 37.46C119.127 37.0867 119.3 36.5733 119.3 35.92V32.042C119.3 31.9487 119.328 31.874 119.384 31.818C119.449 31.7527 119.528 31.72 119.622 31.72H120.322C120.415 31.72 120.49 31.7527 120.546 31.818C120.602 31.874 120.63 31.9487 120.63 32.042V38.678C120.63 38.7713 120.602 38.8507 120.546 38.916C120.49 38.972 120.415 39 120.322 39H119.664C119.57 39 119.491 38.972 119.426 38.916C119.37 38.8507 119.342 38.7713 119.342 38.678V38.062C119.08 38.4167 118.763 38.6873 118.39 38.874C118.016 39.0513 117.554 39.14 117.004 39.14ZM123.191 39C123.098 39 123.019 38.972 122.953 38.916C122.897 38.8507 122.869 38.7713 122.869 38.678V32.042C122.869 31.9487 122.897 31.874 122.953 31.818C123.019 31.7527 123.098 31.72 123.191 31.72H123.849C123.943 31.72 124.017 31.7527 124.073 31.818C124.139 31.874 124.171 31.9487 124.171 32.042V32.658C124.442 32.3127 124.759 32.0467 125.123 31.86C125.497 31.6733 125.959 31.58 126.509 31.58C127.405 31.58 128.101 31.8693 128.595 32.448C129.099 33.0173 129.351 33.778 129.351 34.73V38.678C129.351 38.7713 129.319 38.8507 129.253 38.916C129.197 38.972 129.123 39 129.029 39H128.329C128.236 39 128.157 38.972 128.091 38.916C128.035 38.8507 128.007 38.7713 128.007 38.678V34.8C128.007 34.1373 127.844 33.624 127.517 33.26C127.2 32.896 126.738 32.714 126.131 32.714C125.543 32.714 125.077 32.9007 124.731 33.274C124.386 33.638 124.213 34.1467 124.213 34.8V38.678C124.213 38.7713 124.181 38.8507 124.115 38.916C124.059 38.972 123.985 39 123.891 39H123.191ZM134.266 39C132.791 39 132.054 38.1787 132.054 36.536V32.84H130.962C130.869 32.84 130.789 32.812 130.724 32.756C130.668 32.6907 130.64 32.6113 130.64 32.518V32.042C130.64 31.9487 130.668 31.874 130.724 31.818C130.789 31.7527 130.869 31.72 130.962 31.72H132.054V29.382C132.054 29.2887 132.082 29.214 132.138 29.158C132.203 29.0927 132.283 29.06 132.376 29.06H133.034C133.127 29.06 133.202 29.0927 133.258 29.158C133.323 29.214 133.356 29.2887 133.356 29.382V31.72H135.092C135.185 31.72 135.26 31.7527 135.316 31.818C135.381 31.874 135.414 31.9487 135.414 32.042V32.518C135.414 32.6113 135.381 32.6907 135.316 32.756C135.26 32.812 135.185 32.84 135.092 32.84H133.356V36.438C133.356 36.9047 133.435 37.2593 133.594 37.502C133.753 37.7353 134.014 37.852 134.378 37.852H135.232C135.325 37.852 135.4 37.8847 135.456 37.95C135.521 38.006 135.554 38.0807 135.554 38.174V38.678C135.554 38.7713 135.521 38.8507 135.456 38.916C135.4 38.972 135.325 39 135.232 39H134.266ZM141.148 39C141.055 39 140.976 38.972 140.91 38.916C140.854 38.8507 140.826 38.7713 140.826 38.678V29.536C140.826 29.4333 140.854 29.354 140.91 29.298C140.976 29.2327 141.055 29.2 141.148 29.2H141.862C141.965 29.2 142.044 29.2327 142.1 29.298C142.166 29.354 142.198 29.4333 142.198 29.536V33.4H147.014V29.536C147.014 29.4333 147.042 29.354 147.098 29.298C147.164 29.2327 147.243 29.2 147.336 29.2H148.05C148.153 29.2 148.232 29.2327 148.288 29.298C148.354 29.354 148.386 29.4333 148.386 29.536V38.678C148.386 38.7713 148.354 38.8507 148.288 38.916C148.223 38.972 148.144 39 148.05 39H147.336C147.243 39 147.164 38.972 147.098 38.916C147.042 38.8507 147.014 38.7713 147.014 38.678V34.66H142.198V38.678C142.198 38.7713 142.166 38.8507 142.1 38.916C142.035 38.972 141.956 39 141.862 39H141.148ZM153.71 39.14C152.749 39.14 151.979 38.846 151.4 38.258C150.831 37.6607 150.518 36.8487 150.462 35.822L150.448 35.346L150.462 34.884C150.528 33.876 150.845 33.0733 151.414 32.476C151.993 31.8787 152.754 31.58 153.696 31.58C154.732 31.58 155.535 31.9113 156.104 32.574C156.674 33.2273 156.958 34.114 156.958 35.234V35.472C156.958 35.5653 156.926 35.6447 156.86 35.71C156.804 35.766 156.73 35.794 156.636 35.794H151.792V35.92C151.82 36.5267 152.002 37.0447 152.338 37.474C152.684 37.894 153.136 38.104 153.696 38.104C154.126 38.104 154.476 38.02 154.746 37.852C155.026 37.6747 155.232 37.4927 155.362 37.306C155.446 37.194 155.507 37.1287 155.544 37.11C155.591 37.082 155.67 37.068 155.782 37.068H156.468C156.552 37.068 156.622 37.0913 156.678 37.138C156.734 37.1847 156.762 37.25 156.762 37.334C156.762 37.5393 156.632 37.7867 156.37 38.076C156.118 38.3653 155.759 38.6173 155.292 38.832C154.835 39.0373 154.308 39.14 153.71 39.14ZM155.628 34.828V34.786C155.628 34.142 155.451 33.6193 155.096 33.218C154.751 32.8073 154.284 32.602 153.696 32.602C153.108 32.602 152.642 32.8073 152.296 33.218C151.96 33.6193 151.792 34.142 151.792 34.786V34.828H155.628ZM159.114 39C159.021 39 158.942 38.972 158.876 38.916C158.82 38.8507 158.792 38.7713 158.792 38.678V32.056C158.792 31.9627 158.82 31.8833 158.876 31.818C158.942 31.7527 159.021 31.72 159.114 31.72H159.758C159.852 31.72 159.931 31.7527 159.996 31.818C160.062 31.8833 160.094 31.9627 160.094 32.056V32.672C160.477 32.0373 161.13 31.72 162.054 31.72H162.6C162.694 31.72 162.768 31.7527 162.824 31.818C162.89 31.874 162.922 31.9487 162.922 32.042V32.616C162.922 32.7093 162.89 32.784 162.824 32.84C162.768 32.896 162.694 32.924 162.6 32.924H161.76C161.256 32.924 160.86 33.0733 160.57 33.372C160.281 33.6613 160.136 34.058 160.136 34.562V38.678C160.136 38.7713 160.104 38.8507 160.038 38.916C159.973 38.972 159.894 39 159.8 39H159.114ZM167.046 39.14C166.085 39.14 165.315 38.846 164.736 38.258C164.167 37.6607 163.854 36.8487 163.798 35.822L163.784 35.346L163.798 34.884C163.863 33.876 164.181 33.0733 164.75 32.476C165.329 31.8787 166.089 31.58 167.032 31.58C168.068 31.58 168.871 31.9113 169.44 32.574C170.009 33.2273 170.294 34.114 170.294 35.234V35.472C170.294 35.5653 170.261 35.6447 170.196 35.71C170.14 35.766 170.065 35.794 169.972 35.794H165.128V35.92C165.156 36.5267 165.338 37.0447 165.674 37.474C166.019 37.894 166.472 38.104 167.032 38.104C167.461 38.104 167.811 38.02 168.082 37.852C168.362 37.6747 168.567 37.4927 168.698 37.306C168.782 37.194 168.843 37.1287 168.88 37.11C168.927 37.082 169.006 37.068 169.118 37.068H169.804C169.888 37.068 169.958 37.0913 170.014 37.138C170.07 37.1847 170.098 37.25 170.098 37.334C170.098 37.5393 169.967 37.7867 169.706 38.076C169.454 38.3653 169.095 38.6173 168.628 38.832C168.171 39.0373 167.643 39.14 167.046 39.14ZM168.964 34.828V34.786C168.964 34.142 168.787 33.6193 168.432 33.218C168.087 32.8073 167.62 32.602 167.032 32.602C166.444 32.602 165.977 32.8073 165.632 33.218C165.296 33.6193 165.128 34.142 165.128 34.786V34.828H168.964ZM172.352 39C172.259 39 172.179 38.972 172.114 38.916C172.058 38.8507 172.03 38.7713 172.03 38.678V37.67C172.03 37.5767 172.058 37.502 172.114 37.446C172.179 37.3807 172.259 37.348 172.352 37.348H173.36C173.453 37.348 173.533 37.3807 173.598 37.446C173.663 37.502 173.696 37.5767 173.696 37.67V38.678C173.696 38.7713 173.663 38.8507 173.598 38.916C173.533 38.972 173.453 39 173.36 39H172.352Z" fill="#17C0EB"/>
</svg>
