<svg width="421" height="29" viewBox="0 0 421 29" fill="none" xmlns="http://www.w3.org/2000/svg">
<path d="M206.696 22.24C205.032 22.24 203.736 21.736 202.808 20.728C201.896 19.704 201.416 18.384 201.368 16.768L201.344 15.76L201.368 14.752C201.416 13.136 201.896 11.824 202.808 10.816C203.736 9.792 205.032 9.28 206.696 9.28C208.36 9.28 209.648 9.792 210.56 10.816C211.488 11.824 211.976 13.136 212.024 14.752C212.04 14.912 212.048 15.248 212.048 15.76C212.048 16.272 212.04 16.608 212.024 16.768C211.976 18.384 211.488 19.704 210.56 20.728C209.648 21.736 208.36 22.24 206.696 22.24ZM206.696 20.848C207.832 20.848 208.744 20.488 209.432 19.768C210.136 19.032 210.512 17.992 210.56 16.648C210.576 16.488 210.584 16.192 210.584 15.76C210.584 15.328 210.576 15.032 210.56 14.872C210.512 13.528 210.136 12.496 209.432 11.776C208.744 11.04 207.832 10.672 206.696 10.672C205.56 10.672 204.64 11.04 203.936 11.776C203.248 12.496 202.88 13.528 202.832 14.872L202.808 15.76L202.832 16.648C202.88 17.992 203.248 19.032 203.936 19.768C204.64 20.488 205.56 20.848 206.696 20.848ZM215.855 22C215.695 22 215.567 21.952 215.471 21.856C215.375 21.76 215.327 21.632 215.327 21.472V10.072C215.327 9.912 215.375 9.784 215.471 9.688C215.567 9.576 215.695 9.52 215.855 9.52H216.239C216.399 9.52 216.527 9.576 216.623 9.688C216.735 9.784 216.791 9.912 216.791 10.072V11.176C217.367 10.072 218.455 9.52 220.055 9.52H220.943C221.103 9.52 221.231 9.568 221.327 9.664C221.423 9.76 221.471 9.888 221.471 10.048V10.384C221.471 10.544 221.423 10.672 221.327 10.768C221.231 10.864 221.103 10.912 220.943 10.912H219.911C218.951 10.912 218.191 11.192 217.631 11.752C217.071 12.312 216.791 13.072 216.791 14.032V21.472C216.791 21.632 216.735 21.76 216.623 21.856C216.527 21.952 216.399 22 216.239 22H215.855Z" fill="#6E6E6E"/>
<path d="M254 16H421" stroke="#626262"/>
<path d="M0 15H167" stroke="#626262"/>
</svg>
