<svg width="646" height="60" viewBox="0 0 646 60" fill="none" xmlns="http://www.w3.org/2000/svg">
<path d="M1.824 59.16C1.39733 59.16 1.03467 59.0107 0.736 58.712C0.437333 58.456 0.288 58.0933 0.288 57.624V15.256C0.288 14.7867 0.437333 14.424 0.736 14.168C1.03467 13.8693 1.39733 13.72 1.824 13.72H6.88C7.34933 13.72 7.712 13.8693 7.968 14.168C8.26667 14.424 8.416 14.7867 8.416 15.256V17.816C10.8053 14.6587 14.2187 13.08 18.656 13.08C22.9653 13.08 26.272 14.4453 28.576 17.176C30.88 19.864 32.1173 23.512 32.288 28.12C32.3307 28.632 32.352 29.3787 32.352 30.36C32.352 31.384 32.3307 32.152 32.288 32.664C32.1173 37.144 30.88 40.7707 28.576 43.544C26.272 46.2747 22.9653 47.64 18.656 47.64C14.3467 47.64 11.0613 46.1253 8.8 43.096V57.624C8.8 58.0933 8.65067 58.456 8.352 58.712C8.096 59.0107 7.73333 59.16 7.264 59.16H1.824ZM16.288 40.792C20.896 40.792 23.3493 37.9547 23.648 32.28C23.6907 31.8533 23.712 31.2133 23.712 30.36C23.712 29.5067 23.6907 28.8667 23.648 28.44C23.3493 22.7653 20.896 19.928 16.288 19.928C13.8133 19.928 11.9787 20.7173 10.784 22.296C9.58933 23.8747 8.928 25.816 8.8 28.12L8.736 30.552L8.8 33.048C8.88533 35.1813 9.54667 37.016 10.784 38.552C12.064 40.0453 13.8987 40.792 16.288 40.792ZM41.0725 47C40.6458 47 40.2832 46.8507 39.9845 46.552C39.6858 46.2533 39.5365 45.8907 39.5365 45.464V15.32C39.5365 14.8933 39.6858 14.5307 39.9845 14.232C40.2832 13.8907 40.6458 13.72 41.0725 13.72H46.2565C46.7258 13.72 47.1098 13.8693 47.4085 14.168C47.7072 14.4667 47.8565 14.8507 47.8565 15.32V17.944C48.8805 16.5787 50.1605 15.5333 51.6965 14.808C53.2752 14.0827 55.0672 13.72 57.0725 13.72H59.6965C60.1658 13.72 60.5285 13.8693 60.7845 14.168C61.0832 14.424 61.2325 14.7867 61.2325 15.256V19.864C61.2325 20.2907 61.0832 20.6533 60.7845 20.952C60.5285 21.2507 60.1658 21.4 59.6965 21.4H54.7045C52.6992 21.4 51.1205 21.976 49.9685 23.128C48.8165 24.28 48.2405 25.8587 48.2405 27.864V45.464C48.2405 45.8907 48.0912 46.2533 47.7925 46.552C47.4938 46.8507 47.1098 47 46.6405 47H41.0725ZM80.1225 47.64C75.3865 47.64 71.6105 46.2747 68.7945 43.544C66.0212 40.7707 64.5492 36.888 64.3785 31.896L64.3145 30.296L64.3785 28.696C64.5918 23.832 66.0852 20.0133 68.8585 17.24C71.6745 14.4667 75.4292 13.08 80.1225 13.08C85.1572 13.08 89.0398 14.616 91.7705 17.688C94.5438 20.76 95.9305 24.856 95.9305 29.976V31.32C95.9305 31.7467 95.7812 32.1093 95.4825 32.408C95.1838 32.7067 94.7998 32.856 94.3305 32.856H73.0825V33.368C73.1678 35.7147 73.8078 37.6987 75.0025 39.32C76.2398 40.8987 77.9252 41.688 80.0585 41.688C82.5758 41.688 84.6025 40.7067 86.1385 38.744C86.5225 38.2747 86.8212 37.976 87.0345 37.848C87.2905 37.72 87.6532 37.656 88.1225 37.656H93.6265C94.0105 37.656 94.3305 37.784 94.5865 38.04C94.8852 38.2533 95.0345 38.5307 95.0345 38.872C95.0345 39.896 94.4158 41.112 93.1785 42.52C91.9838 43.8853 90.2558 45.08 87.9945 46.104C85.7332 47.128 83.1092 47.64 80.1225 47.64ZM87.2265 27.48V27.288C87.2265 24.7707 86.5865 22.744 85.3065 21.208C84.0692 19.672 82.3412 18.904 80.1225 18.904C77.9038 18.904 76.1758 19.672 74.9385 21.208C73.7012 22.744 73.0825 24.7707 73.0825 27.288V27.48H87.2265ZM115.332 47.64C112.132 47.64 109.444 47.1707 107.268 46.232C105.092 45.2507 103.471 44.12 102.404 42.84C101.38 41.5173 100.868 40.3867 100.868 39.448C100.868 39.0213 101.017 38.68 101.316 38.424C101.615 38.168 101.956 38.04 102.34 38.04H107.396C107.78 38.04 108.1 38.1893 108.356 38.488C108.527 38.616 108.975 39 109.7 39.64C110.425 40.3227 111.279 40.856 112.26 41.24C113.241 41.624 114.329 41.816 115.524 41.816C117.231 41.816 118.639 41.4747 119.748 40.792C120.857 40.1093 121.412 39.1707 121.412 37.976C121.412 37.08 121.156 36.3547 120.644 35.8C120.175 35.2453 119.3 34.7547 118.02 34.328C116.74 33.8587 114.841 33.368 112.324 32.856C108.697 32.088 106.009 30.9147 104.26 29.336C102.553 27.7573 101.7 25.6667 101.7 23.064C101.7 21.3573 102.212 19.7573 103.236 18.264C104.26 16.728 105.775 15.4907 107.78 14.552C109.828 13.5707 112.26 13.08 115.076 13.08C117.935 13.08 120.409 13.5493 122.5 14.488C124.591 15.384 126.169 16.472 127.236 17.752C128.345 18.9893 128.9 20.0987 128.9 21.08C128.9 21.464 128.751 21.8053 128.452 22.104C128.196 22.36 127.876 22.488 127.492 22.488H122.756C122.415 22.488 122.052 22.3387 121.668 22.04C121.369 21.8267 120.9 21.4213 120.26 20.824C119.62 20.2267 118.873 19.7573 118.02 19.416C117.167 19.0747 116.164 18.904 115.012 18.904C113.433 18.904 112.196 19.2453 111.3 19.928C110.447 20.6107 110.02 21.5067 110.02 22.616C110.02 23.4267 110.233 24.088 110.66 24.6C111.087 25.112 111.919 25.6027 113.156 26.072C114.393 26.5413 116.249 27.0107 118.724 27.48C122.82 28.2907 125.743 29.5493 127.492 31.256C129.284 32.9627 130.18 35.0533 130.18 37.528C130.18 40.5147 128.879 42.9467 126.276 44.824C123.673 46.7013 120.025 47.64 115.332 47.64ZM151.187 47.64C146.493 47.64 142.739 46.3387 139.923 43.736C137.149 41.1333 135.677 37.528 135.507 32.92L135.443 30.36L135.507 27.8C135.677 23.192 137.149 19.5867 139.923 16.984C142.739 14.3813 146.493 13.08 151.187 13.08C154.515 13.08 157.331 13.6773 159.635 14.872C161.981 16.0667 163.709 17.5387 164.819 19.288C165.971 20.9947 166.589 22.616 166.675 24.152C166.717 24.5787 166.568 24.9413 166.227 25.24C165.928 25.5387 165.565 25.688 165.139 25.688H159.507C159.08 25.688 158.739 25.6027 158.483 25.432C158.269 25.2187 158.056 24.8773 157.843 24.408C157.203 22.744 156.349 21.5493 155.283 20.824C154.259 20.0987 152.936 19.736 151.315 19.736C149.139 19.736 147.432 20.44 146.195 21.848C144.957 23.2133 144.296 25.304 144.211 28.12L144.147 30.488L144.211 32.6C144.381 38.1893 146.749 40.984 151.315 40.984C152.979 40.984 154.323 40.6213 155.347 39.896C156.371 39.1707 157.203 37.976 157.843 36.312C158.056 35.8427 158.269 35.5227 158.483 35.352C158.739 35.1387 159.08 35.032 159.507 35.032H165.139C165.565 35.032 165.928 35.1813 166.227 35.48C166.568 35.7787 166.717 36.1413 166.675 36.568C166.589 38.0613 165.992 39.6613 164.882 41.368C163.773 43.0747 162.067 44.5467 159.763 45.784C157.459 47.0213 154.6 47.64 151.187 47.64ZM174.885 47C174.458 47 174.096 46.8507 173.797 46.552C173.498 46.2533 173.349 45.8907 173.349 45.464V15.32C173.349 14.8933 173.498 14.5307 173.797 14.232C174.096 13.8907 174.458 13.72 174.885 13.72H180.069C180.538 13.72 180.922 13.8693 181.221 14.168C181.52 14.4667 181.669 14.8507 181.669 15.32V17.944C182.693 16.5787 183.973 15.5333 185.509 14.808C187.088 14.0827 188.88 13.72 190.885 13.72H193.509C193.978 13.72 194.341 13.8693 194.597 14.168C194.896 14.424 195.045 14.7867 195.045 15.256V19.864C195.045 20.2907 194.896 20.6533 194.597 20.952C194.341 21.2507 193.978 21.4 193.509 21.4H188.517C186.512 21.4 184.933 21.976 183.781 23.128C182.629 24.28 182.053 25.8587 182.053 27.864V45.464C182.053 45.8907 181.904 46.2533 181.605 46.552C181.306 46.8507 180.922 47 180.453 47H174.885ZM201.317 8.216C200.89 8.216 200.527 8.06667 200.229 7.768C199.93 7.46933 199.781 7.10667 199.781 6.68V2.072C199.781 1.64533 199.93 1.28267 200.229 0.983997C200.527 0.685332 200.89 0.535999 201.317 0.535999H207.141C207.567 0.535999 207.93 0.685332 208.229 0.983997C208.57 1.28267 208.741 1.64533 208.741 2.072V6.68C208.741 7.10667 208.591 7.46933 208.293 7.768C207.994 8.06667 207.61 8.216 207.141 8.216H201.317ZM201.573 47C201.146 47 200.783 46.8507 200.485 46.552C200.186 46.2533 200.036 45.8907 200.036 45.464V15.256C200.036 14.8293 200.186 14.4667 200.485 14.168C200.783 13.8693 201.146 13.72 201.573 13.72H206.885C207.354 13.72 207.717 13.8693 207.973 14.168C208.271 14.424 208.421 14.7867 208.421 15.256V45.464C208.421 45.8907 208.271 46.2533 207.973 46.552C207.717 46.8507 207.354 47 206.885 47H201.573ZM218.512 59.16C218.085 59.16 217.722 59.0107 217.424 58.712C217.125 58.456 216.976 58.0933 216.976 57.624V15.256C216.976 14.7867 217.125 14.424 217.424 14.168C217.722 13.8693 218.085 13.72 218.512 13.72H223.568C224.037 13.72 224.4 13.8693 224.656 14.168C224.954 14.424 225.104 14.7867 225.104 15.256V17.816C227.493 14.6587 230.906 13.08 235.344 13.08C239.653 13.08 242.96 14.4453 245.264 17.176C247.568 19.864 248.805 23.512 248.976 28.12C249.018 28.632 249.04 29.3787 249.04 30.36C249.04 31.384 249.018 32.152 248.976 32.664C248.805 37.144 247.568 40.7707 245.264 43.544C242.96 46.2747 239.653 47.64 235.344 47.64C231.034 47.64 227.749 46.1253 225.488 43.096V57.624C225.488 58.0933 225.338 58.456 225.04 58.712C224.784 59.0107 224.421 59.16 223.952 59.16H218.512ZM232.976 40.792C237.584 40.792 240.037 37.9547 240.336 32.28C240.378 31.8533 240.4 31.2133 240.4 30.36C240.4 29.5067 240.378 28.8667 240.336 28.44C240.037 22.7653 237.584 19.928 232.976 19.928C230.501 19.928 228.666 20.7173 227.472 22.296C226.277 23.8747 225.616 25.816 225.488 28.12L225.424 30.552L225.488 33.048C225.573 35.1813 226.234 37.016 227.472 38.552C228.752 40.0453 230.586 40.792 232.976 40.792ZM271.014 47C267.131 47 264.209 45.9973 262.246 43.992C260.326 41.944 259.366 38.9573 259.366 35.032V20.504H254.31C253.883 20.504 253.521 20.3547 253.222 20.056C252.923 19.7147 252.774 19.3307 252.774 18.904V15.256C252.774 14.8293 252.923 14.4667 253.222 14.168C253.521 13.8693 253.883 13.72 254.31 13.72H259.366V3.096C259.366 2.62666 259.515 2.264 259.814 2.008C260.113 1.70933 260.475 1.56 260.902 1.56H266.086C266.555 1.56 266.918 1.70933 267.174 2.008C267.473 2.264 267.622 2.62666 267.622 3.096V13.72H275.622C276.091 13.72 276.454 13.8693 276.71 14.168C277.009 14.424 277.158 14.7867 277.158 15.256V18.904C277.158 19.3733 277.009 19.7573 276.71 20.056C276.411 20.3547 276.049 20.504 275.622 20.504H267.622V34.392C267.622 36.2267 267.942 37.6133 268.582 38.552C269.222 39.4907 270.289 39.96 271.782 39.96H276.198C276.625 39.96 276.987 40.1093 277.286 40.408C277.585 40.7067 277.734 41.0693 277.734 41.496V45.464C277.734 45.8907 277.585 46.2533 277.286 46.552C277.03 46.8507 276.667 47 276.198 47H271.014ZM284.692 8.216C284.265 8.216 283.902 8.06667 283.604 7.768C283.305 7.46933 283.156 7.10667 283.156 6.68V2.072C283.156 1.64533 283.305 1.28267 283.604 0.983997C283.902 0.685332 284.265 0.535999 284.692 0.535999H290.516C290.942 0.535999 291.305 0.685332 291.604 0.983997C291.945 1.28267 292.116 1.64533 292.116 2.072V6.68C292.116 7.10667 291.966 7.46933 291.668 7.768C291.369 8.06667 290.985 8.216 290.516 8.216H284.692ZM284.948 47C284.521 47 284.158 46.8507 283.86 46.552C283.561 46.2533 283.411 45.8907 283.411 45.464V15.256C283.411 14.8293 283.561 14.4667 283.86 14.168C284.158 13.8693 284.521 13.72 284.948 13.72H290.26C290.729 13.72 291.092 13.8693 291.348 14.168C291.646 14.424 291.796 14.7867 291.796 15.256V45.464C291.796 45.8907 291.646 46.2533 291.348 46.552C291.092 46.8507 290.729 47 290.26 47H284.948ZM315.007 47.64C310.015 47.64 306.153 46.36 303.423 43.8C300.692 41.1973 299.22 37.656 299.007 33.176L298.943 30.36L299.007 27.544C299.22 23.1067 300.713 19.5867 303.487 16.984C306.26 14.3813 310.1 13.08 315.007 13.08C319.913 13.08 323.753 14.3813 326.527 16.984C329.3 19.5867 330.793 23.1067 331.007 27.544C331.049 28.056 331.071 28.9947 331.071 30.36C331.071 31.7253 331.049 32.664 331.007 33.176C330.793 37.656 329.321 41.1973 326.591 43.8C323.86 46.36 319.999 47.64 315.007 47.64ZM315.007 41.304C317.268 41.304 319.017 40.6 320.255 39.192C321.492 37.7413 322.175 35.6293 322.303 32.856C322.345 32.4293 322.367 31.5973 322.367 30.36C322.367 29.1227 322.345 28.2907 322.303 27.864C322.175 25.0907 321.492 23 320.255 21.592C319.017 20.1413 317.268 19.416 315.007 19.416C312.745 19.416 310.996 20.1413 309.759 21.592C308.521 23 307.839 25.0907 307.711 27.864L307.647 30.36L307.711 32.856C307.839 35.6293 308.521 37.7413 309.759 39.192C310.996 40.6 312.745 41.304 315.007 41.304ZM339.698 47C339.271 47 338.908 46.8507 338.61 46.552C338.311 46.2533 338.161 45.8907 338.161 45.464V15.256C338.161 14.8293 338.311 14.4667 338.61 14.168C338.908 13.8693 339.271 13.72 339.698 13.72H344.946C345.372 13.72 345.735 13.8693 346.034 14.168C346.332 14.4667 346.482 14.8293 346.482 15.256V17.88C348.999 14.68 352.562 13.08 357.17 13.08C361.095 13.08 364.21 14.3813 366.514 16.984C368.818 19.544 369.97 23.0427 369.97 27.48V45.464C369.97 45.8907 369.82 46.2533 369.522 46.552C369.266 46.8507 368.903 47 368.434 47H362.802C362.375 47 362.012 46.8507 361.714 46.552C361.415 46.2533 361.266 45.8907 361.266 45.464V27.864C361.266 25.3467 360.647 23.4053 359.41 22.04C358.215 20.632 356.466 19.928 354.162 19.928C351.9 19.928 350.108 20.632 348.786 22.04C347.506 23.448 346.866 25.3893 346.866 27.864V45.464C346.866 45.8907 346.716 46.2533 346.418 46.552C346.162 46.8507 345.799 47 345.33 47H339.698Z" fill="black"/>
<path d="M637.314 47C636.887 47 636.524 46.8507 636.226 46.552C635.927 46.2533 635.778 45.8907 635.778 45.464V39.128C635.778 38.7013 635.927 38.3387 636.226 38.04C636.524 37.6987 636.887 37.528 637.314 37.528H643.714C644.14 37.528 644.503 37.6987 644.802 38.04C645.1 38.3387 645.25 38.7013 645.25 39.128V45.464C645.25 45.8907 645.1 46.2533 644.802 46.552C644.503 46.8507 644.14 47 643.714 47H637.314Z" fill="#7158E2"/>
<path d="M394.324 59.16C393.897 59.16 393.535 59.0107 393.236 58.712C392.937 58.456 392.788 58.0933 392.788 57.624V15.256C392.788 14.7867 392.937 14.424 393.236 14.168C393.535 13.8693 393.897 13.72 394.324 13.72H399.38C399.849 13.72 400.212 13.8693 400.468 14.168C400.767 14.424 400.916 14.7867 400.916 15.256V17.816C403.305 14.6587 406.719 13.08 411.156 13.08C415.465 13.08 418.772 14.4453 421.076 17.176C423.38 19.864 424.617 23.512 424.788 28.12C424.831 28.632 424.852 29.3787 424.852 30.36C424.852 31.384 424.831 32.152 424.788 32.664C424.617 37.144 423.38 40.7707 421.076 43.544C418.772 46.2747 415.465 47.64 411.156 47.64C406.847 47.64 403.561 46.1253 401.3 43.096V57.624C401.3 58.0933 401.151 58.456 400.852 58.712C400.596 59.0107 400.233 59.16 399.764 59.16H394.324ZM408.788 40.792C413.396 40.792 415.849 37.9547 416.148 32.28C416.191 31.8533 416.212 31.2133 416.212 30.36C416.212 29.5067 416.191 28.8667 416.148 28.44C415.849 22.7653 413.396 19.928 408.788 19.928C406.313 19.928 404.479 20.7173 403.284 22.296C402.089 23.8747 401.428 25.816 401.3 28.12L401.236 30.552L401.3 33.048C401.385 35.1813 402.047 37.016 403.284 38.552C404.564 40.0453 406.399 40.792 408.788 40.792ZM433.573 47C433.146 47 432.783 46.8507 432.485 46.552C432.186 46.2533 432.036 45.8907 432.036 45.464V15.32C432.036 14.8933 432.186 14.5307 432.485 14.232C432.783 13.8907 433.146 13.72 433.573 13.72H438.757C439.226 13.72 439.61 13.8693 439.909 14.168C440.207 14.4667 440.357 14.8507 440.357 15.32V17.944C441.381 16.5787 442.661 15.5333 444.197 14.808C445.775 14.0827 447.567 13.72 449.573 13.72H452.197C452.666 13.72 453.029 13.8693 453.285 14.168C453.583 14.424 453.733 14.7867 453.733 15.256V19.864C453.733 20.2907 453.583 20.6533 453.285 20.952C453.029 21.2507 452.666 21.4 452.197 21.4H447.205C445.199 21.4 443.621 21.976 442.469 23.128C441.317 24.28 440.741 25.8587 440.741 27.864V45.464C440.741 45.8907 440.591 46.2533 440.293 46.552C439.994 46.8507 439.61 47 439.141 47H433.573ZM472.623 47.64C467.887 47.64 464.111 46.2747 461.295 43.544C458.521 40.7707 457.049 36.888 456.879 31.896L456.815 30.296L456.879 28.696C457.092 23.832 458.585 20.0133 461.359 17.24C464.175 14.4667 467.929 13.08 472.623 13.08C477.657 13.08 481.54 14.616 484.271 17.688C487.044 20.76 488.431 24.856 488.431 29.976V31.32C488.431 31.7467 488.281 32.1093 487.983 32.408C487.684 32.7067 487.3 32.856 486.831 32.856H465.583V33.368C465.668 35.7147 466.308 37.6987 467.503 39.32C468.74 40.8987 470.425 41.688 472.559 41.688C475.076 41.688 477.103 40.7067 478.639 38.744C479.023 38.2747 479.321 37.976 479.535 37.848C479.791 37.72 480.153 37.656 480.623 37.656H486.127C486.511 37.656 486.831 37.784 487.087 38.04C487.385 38.2533 487.535 38.5307 487.535 38.872C487.535 39.896 486.916 41.112 485.679 42.52C484.484 43.8853 482.756 45.08 480.495 46.104C478.233 47.128 475.609 47.64 472.623 47.64ZM479.727 27.48V27.288C479.727 24.7707 479.087 22.744 477.807 21.208C476.569 19.672 474.841 18.904 472.623 18.904C470.404 18.904 468.676 19.672 467.439 21.208C466.201 22.744 465.583 24.7707 465.583 27.288V27.48H479.727ZM505.812 47C505.173 47 504.682 46.872 504.341 46.616C503.999 46.3173 503.722 45.912 503.509 45.4L491.541 15.704L491.413 15.128C491.413 14.744 491.541 14.424 491.797 14.168C492.095 13.8693 492.437 13.72 492.821 13.72H498.005C498.815 13.72 499.37 14.1253 499.669 14.936L508.181 37.4L516.693 14.936C516.821 14.6373 517.013 14.36 517.269 14.104C517.567 13.848 517.93 13.72 518.357 13.72H523.604C523.946 13.72 524.245 13.8693 524.501 14.168C524.799 14.424 524.949 14.744 524.949 15.128C524.949 15.384 524.927 15.576 524.885 15.704L512.853 45.4C512.639 45.912 512.362 46.3173 512.021 46.616C511.679 46.872 511.189 47 510.549 47H505.812ZM532.067 8.216C531.64 8.216 531.277 8.06667 530.979 7.768C530.68 7.46933 530.531 7.10667 530.531 6.68V2.072C530.531 1.64533 530.68 1.28267 530.979 0.983997C531.277 0.685332 531.64 0.535999 532.067 0.535999H537.891C538.317 0.535999 538.68 0.685332 538.979 0.983997C539.32 1.28267 539.491 1.64533 539.491 2.072V6.68C539.491 7.10667 539.341 7.46933 539.043 7.768C538.744 8.06667 538.36 8.216 537.891 8.216H532.067ZM532.323 47C531.896 47 531.533 46.8507 531.235 46.552C530.936 46.2533 530.786 45.8907 530.786 45.464V15.256C530.786 14.8293 530.936 14.4667 531.235 14.168C531.533 13.8693 531.896 13.72 532.323 13.72H537.635C538.104 13.72 538.467 13.8693 538.723 14.168C539.021 14.424 539.171 14.7867 539.171 15.256V45.464C539.171 45.8907 539.021 46.2533 538.723 46.552C538.467 46.8507 538.104 47 537.635 47H532.323ZM561.998 47.64C557.262 47.64 553.486 46.2747 550.67 43.544C547.896 40.7707 546.424 36.888 546.254 31.896L546.19 30.296L546.254 28.696C546.467 23.832 547.96 20.0133 550.734 17.24C553.55 14.4667 557.304 13.08 561.998 13.08C567.032 13.08 570.915 14.616 573.646 17.688C576.419 20.76 577.806 24.856 577.806 29.976V31.32C577.806 31.7467 577.656 32.1093 577.358 32.408C577.059 32.7067 576.675 32.856 576.206 32.856H554.958V33.368C555.043 35.7147 555.683 37.6987 556.878 39.32C558.115 40.8987 559.8 41.688 561.934 41.688C564.451 41.688 566.478 40.7067 568.014 38.744C568.398 38.2747 568.696 37.976 568.91 37.848C569.166 37.72 569.528 37.656 569.998 37.656H575.502C575.886 37.656 576.206 37.784 576.462 38.04C576.76 38.2533 576.91 38.5307 576.91 38.872C576.91 39.896 576.291 41.112 575.054 42.52C573.859 43.8853 572.131 45.08 569.87 46.104C567.608 47.128 564.984 47.64 561.998 47.64ZM569.102 27.48V27.288C569.102 24.7707 568.462 22.744 567.182 21.208C565.944 19.672 564.216 18.904 561.998 18.904C559.779 18.904 558.051 19.672 556.814 21.208C555.576 22.744 554.958 24.7707 554.958 27.288V27.48H569.102ZM592.75 47C592.195 47 591.747 46.872 591.406 46.616C591.107 46.3173 590.851 45.912 590.638 45.4L581.486 15.704C581.443 15.576 581.422 15.384 581.422 15.128C581.422 14.744 581.55 14.424 581.806 14.168C582.104 13.8693 582.424 13.72 582.766 13.72H587.502C587.971 13.72 588.355 13.848 588.654 14.104C588.952 14.36 589.144 14.6373 589.23 14.936L595.502 36.12L602.158 15.128C602.286 14.744 602.499 14.424 602.798 14.168C603.139 13.8693 603.566 13.72 604.078 13.72H607.278C607.79 13.72 608.195 13.8693 608.494 14.168C608.835 14.424 609.07 14.744 609.198 15.128L615.854 36.12L622.126 14.936C622.168 14.6373 622.339 14.36 622.638 14.104C622.979 13.848 623.363 13.72 623.79 13.72H628.526C628.91 13.72 629.23 13.8693 629.486 14.168C629.784 14.424 629.934 14.744 629.934 15.128L629.806 15.704L620.654 45.4C620.483 45.912 620.227 46.3173 619.886 46.616C619.587 46.872 619.16 47 618.606 47H614.446C613.336 47 612.632 46.4667 612.333 45.4L605.678 25.176L599.022 45.4C598.68 46.4667 597.955 47 596.846 47H592.75Z" fill="#17C0EB"/>
</svg>
