<svg width="458" height="76" viewBox="0 0 458 76" fill="none" xmlns="http://www.w3.org/2000/svg">
<path d="M16.832 60.64C13.632 60.64 10.944 60.1707 8.768 59.232C6.592 58.2507 4.97067 57.12 3.904 55.84C2.88 54.5173 2.368 53.3867 2.368 52.448C2.368 52.0213 2.51733 51.68 2.816 51.424C3.11467 51.168 3.456 51.04 3.84 51.04H8.896C9.28 51.04 9.6 51.1893 9.856 51.488C10.0267 51.616 10.4747 52 11.2 52.64C11.9253 53.3227 12.7787 53.856 13.76 54.24C14.7413 54.624 15.8293 54.816 17.024 54.816C18.7307 54.816 20.1387 54.4747 21.248 53.792C22.3573 53.1093 22.912 52.1707 22.912 50.976C22.912 50.08 22.656 49.3547 22.144 48.8C21.6747 48.2453 20.8 47.7547 19.52 47.328C18.24 46.8587 16.3413 46.368 13.824 45.856C10.1973 45.088 7.50933 43.9147 5.76 42.336C4.05333 40.7573 3.2 38.6667 3.2 36.064C3.2 34.3573 3.712 32.7573 4.736 31.264C5.76 29.728 7.27467 28.4907 9.28 27.552C11.328 26.5707 13.76 26.08 16.576 26.08C19.4347 26.08 21.9093 26.5493 24 27.488C26.0907 28.384 27.6693 29.472 28.736 30.752C29.8453 31.9893 30.4 33.0987 30.4 34.08C30.4 34.464 30.2507 34.8053 29.952 35.104C29.696 35.36 29.376 35.488 28.992 35.488H24.256C23.9147 35.488 23.552 35.3387 23.168 35.04C22.8693 34.8267 22.4 34.4213 21.76 33.824C21.12 33.2267 20.3733 32.7573 19.52 32.416C18.6667 32.0747 17.664 31.904 16.512 31.904C14.9333 31.904 13.696 32.2453 12.8 32.928C11.9467 33.6107 11.52 34.5067 11.52 35.616C11.52 36.4267 11.7333 37.088 12.16 37.6C12.5867 38.112 13.4187 38.6027 14.656 39.072C15.8933 39.5413 17.7493 40.0107 20.224 40.48C24.32 41.2907 27.2427 42.5493 28.992 44.256C30.784 45.9627 31.68 48.0533 31.68 50.528C31.68 53.5147 30.3787 55.9467 27.776 57.824C25.1733 59.7013 21.5253 60.64 16.832 60.64ZM52.6225 60.64C47.8865 60.64 44.1105 59.2747 41.2945 56.544C38.5212 53.7707 37.0492 49.888 36.8785 44.896L36.8145 43.296L36.8785 41.696C37.0918 36.832 38.5852 33.0133 41.3585 30.24C44.1745 27.4667 47.9292 26.08 52.6225 26.08C57.6572 26.08 61.5398 27.616 64.2705 30.688C67.0438 33.76 68.4305 37.856 68.4305 42.976V44.32C68.4305 44.7467 68.2812 45.1093 67.9825 45.408C67.6838 45.7067 67.2998 45.856 66.8305 45.856H45.5825V46.368C45.6678 48.7147 46.3078 50.6987 47.5025 52.32C48.7398 53.8987 50.4252 54.688 52.5585 54.688C55.0758 54.688 57.1025 53.7067 58.6385 51.744C59.0225 51.2747 59.3212 50.976 59.5345 50.848C59.7905 50.72 60.1532 50.656 60.6225 50.656H66.1265C66.5105 50.656 66.8305 50.784 67.0865 51.04C67.3852 51.2533 67.5345 51.5307 67.5345 51.872C67.5345 52.896 66.9158 54.112 65.6785 55.52C64.4838 56.8853 62.7558 58.08 60.4945 59.104C58.2332 60.128 55.6092 60.64 52.6225 60.64ZM59.7265 40.48V40.288C59.7265 37.7707 59.0865 35.744 57.8065 34.208C56.5692 32.672 54.8412 31.904 52.6225 31.904C50.4038 31.904 48.6758 32.672 47.4385 34.208C46.2012 35.744 45.5825 37.7707 45.5825 40.288V40.48H59.7265ZM84.888 60.64C82.712 60.64 80.7067 60.2133 78.872 59.36C77.08 58.464 75.6507 57.2693 74.584 55.776C73.56 54.2827 73.048 52.64 73.048 50.848C73.048 47.9467 74.2213 45.6 76.568 43.808C78.9147 42.016 82.136 40.8 86.232 40.16L95 38.88V37.536C95 35.6587 94.5307 34.2507 93.592 33.312C92.6533 32.3733 91.1387 31.904 89.048 31.904C87.64 31.904 86.488 32.1813 85.592 32.736C84.7387 33.248 84.056 33.76 83.544 34.272C83.032 34.8267 82.6907 35.1893 82.52 35.36C82.3493 35.872 82.0293 36.128 81.56 36.128H76.632C76.248 36.128 75.9067 36 75.608 35.744C75.352 35.488 75.224 35.1467 75.224 34.72C75.2667 33.6533 75.7787 32.4373 76.76 31.072C77.784 29.7067 79.3413 28.5333 81.432 27.552C83.5227 26.5707 86.0827 26.08 89.112 26.08C94.1467 26.08 97.816 27.2107 100.12 29.472C102.424 31.7333 103.576 34.6987 103.576 38.368V58.464C103.576 58.8907 103.427 59.2533 103.128 59.552C102.872 59.8507 102.509 60 102.04 60H96.856C96.4293 60 96.0667 59.8507 95.768 59.552C95.4693 59.2533 95.32 58.8907 95.32 58.464V55.968C94.3813 57.3333 93.0373 58.464 91.288 59.36C89.5813 60.2133 87.448 60.64 84.888 60.64ZM87.064 54.56C89.4107 54.56 91.3307 53.792 92.824 52.256C94.3173 50.72 95.064 48.48 95.064 45.536V44.192L88.664 45.216C86.1893 45.6 84.312 46.2187 83.032 47.072C81.7947 47.9253 81.176 48.9707 81.176 50.208C81.176 51.5733 81.752 52.64 82.904 53.408C84.056 54.176 85.4427 54.56 87.064 54.56ZM113.323 60C112.896 60 112.533 59.8507 112.235 59.552C111.936 59.2533 111.786 58.8907 111.786 58.464V28.32C111.786 27.8933 111.936 27.5307 112.235 27.232C112.533 26.8907 112.896 26.72 113.323 26.72H118.507C118.976 26.72 119.36 26.8693 119.659 27.168C119.957 27.4667 120.107 27.8507 120.107 28.32V30.944C121.131 29.5787 122.411 28.5333 123.947 27.808C125.525 27.0827 127.317 26.72 129.323 26.72H131.947C132.416 26.72 132.779 26.8693 133.035 27.168C133.333 27.424 133.483 27.7867 133.483 28.256V32.864C133.483 33.2907 133.333 33.6533 133.035 33.952C132.779 34.2507 132.416 34.4 131.947 34.4H126.955C124.949 34.4 123.371 34.976 122.219 36.128C121.067 37.28 120.491 38.8587 120.491 40.864V58.464C120.491 58.8907 120.341 59.2533 120.043 59.552C119.744 59.8507 119.36 60 118.891 60H113.323ZM152.437 60.64C147.743 60.64 143.989 59.3387 141.173 56.736C138.399 54.1333 136.927 50.528 136.757 45.92L136.693 43.36L136.757 40.8C136.927 36.192 138.399 32.5867 141.173 29.984C143.989 27.3813 147.743 26.08 152.437 26.08C155.765 26.08 158.581 26.6773 160.885 27.872C163.231 29.0667 164.959 30.5387 166.069 32.288C167.221 33.9947 167.839 35.616 167.925 37.152C167.967 37.5787 167.818 37.9413 167.477 38.24C167.178 38.5387 166.815 38.688 166.389 38.688H160.757C160.33 38.688 159.989 38.6027 159.733 38.432C159.519 38.2187 159.306 37.8773 159.093 37.408C158.453 35.744 157.599 34.5493 156.533 33.824C155.509 33.0987 154.186 32.736 152.565 32.736C150.389 32.736 148.682 33.44 147.445 34.848C146.207 36.2133 145.546 38.304 145.461 41.12L145.397 43.488L145.461 45.6C145.631 51.1893 147.999 53.984 152.565 53.984C154.229 53.984 155.573 53.6213 156.597 52.896C157.621 52.1707 158.453 50.976 159.093 49.312C159.306 48.8427 159.519 48.5227 159.733 48.352C159.989 48.1387 160.33 48.032 160.757 48.032H166.389C166.815 48.032 167.178 48.1813 167.477 48.48C167.818 48.7787 167.967 49.1413 167.925 49.568C167.839 51.0613 167.242 52.6613 166.132 54.368C165.023 56.0747 163.317 57.5467 161.013 58.784C158.709 60.0213 155.85 60.64 152.437 60.64ZM176.199 60C175.772 60 175.41 59.8507 175.111 59.552C174.812 59.2533 174.663 58.8907 174.663 58.464V16.096C174.663 15.6267 174.812 15.264 175.111 15.008C175.41 14.7093 175.772 14.56 176.199 14.56H181.895C182.364 14.56 182.727 14.7093 182.983 15.008C183.282 15.264 183.431 15.6267 183.431 16.096V30.688C185.991 27.616 189.447 26.08 193.799 26.08C197.724 26.08 200.86 27.3813 203.207 29.984C205.554 32.544 206.727 36.0427 206.727 40.48V58.464C206.727 58.8907 206.578 59.2533 206.279 59.552C206.023 59.8507 205.66 60 205.191 60H199.431C199.004 60 198.642 59.8507 198.343 59.552C198.044 59.2533 197.895 58.8907 197.895 58.464V40.864C197.895 38.3467 197.276 36.4053 196.039 35.04C194.844 33.632 193.095 32.928 190.791 32.928C188.53 32.928 186.738 33.632 185.415 35.04C184.092 36.448 183.431 38.3893 183.431 40.864V58.464C183.431 58.8907 183.282 59.2533 182.983 59.552C182.727 59.8507 182.364 60 181.895 60H176.199Z" fill="black"/>
<path d="M231.01 60C230.583 60 230.221 59.8507 229.922 59.552C229.623 59.2533 229.474 58.8907 229.474 58.464V28.32C229.474 27.8933 229.623 27.5307 229.922 27.232C230.221 26.8907 230.583 26.72 231.01 26.72H236.194C236.663 26.72 237.047 26.8693 237.346 27.168C237.645 27.4667 237.794 27.8507 237.794 28.32V30.944C238.818 29.5787 240.098 28.5333 241.634 27.808C243.213 27.0827 245.005 26.72 247.01 26.72H249.634C250.103 26.72 250.466 26.8693 250.722 27.168C251.021 27.424 251.17 27.7867 251.17 28.256V32.864C251.17 33.2907 251.021 33.6533 250.722 33.952C250.466 34.2507 250.103 34.4 249.634 34.4H244.642C242.637 34.4 241.058 34.976 239.906 36.128C238.754 37.28 238.178 38.8587 238.178 40.864V58.464C238.178 58.8907 238.029 59.2533 237.73 59.552C237.431 59.8507 237.047 60 236.578 60H231.01ZM270.06 60.64C265.324 60.64 261.548 59.2747 258.732 56.544C255.959 53.7707 254.487 49.888 254.316 44.896L254.252 43.296L254.316 41.696C254.529 36.832 256.023 33.0133 258.796 30.24C261.612 27.4667 265.367 26.08 270.06 26.08C275.095 26.08 278.977 27.616 281.708 30.688C284.481 33.76 285.868 37.856 285.868 42.976V44.32C285.868 44.7467 285.719 45.1093 285.42 45.408C285.121 45.7067 284.737 45.856 284.268 45.856H263.02V46.368C263.105 48.7147 263.745 50.6987 264.94 52.32C266.177 53.8987 267.863 54.688 269.996 54.688C272.513 54.688 274.54 53.7067 276.076 51.744C276.46 51.2747 276.759 50.976 276.972 50.848C277.228 50.72 277.591 50.656 278.06 50.656H283.564C283.948 50.656 284.268 50.784 284.524 51.04C284.823 51.2533 284.972 51.5307 284.972 51.872C284.972 52.896 284.353 54.112 283.116 55.52C281.921 56.8853 280.193 58.08 277.932 59.104C275.671 60.128 273.047 60.64 270.06 60.64ZM277.164 40.48V40.288C277.164 37.7707 276.524 35.744 275.244 34.208C274.007 32.672 272.279 31.904 270.06 31.904C267.841 31.904 266.113 32.672 264.876 34.208C263.639 35.744 263.02 37.7707 263.02 40.288V40.48H277.164ZM305.27 60.64C302.07 60.64 299.382 60.1707 297.206 59.232C295.03 58.2507 293.408 57.12 292.342 55.84C291.318 54.5173 290.806 53.3867 290.806 52.448C290.806 52.0213 290.955 51.68 291.254 51.424C291.552 51.168 291.894 51.04 292.278 51.04H297.334C297.718 51.04 298.038 51.1893 298.294 51.488C298.464 51.616 298.912 52 299.638 52.64C300.363 53.3227 301.216 53.856 302.198 54.24C303.179 54.624 304.267 54.816 305.462 54.816C307.168 54.816 308.576 54.4747 309.686 53.792C310.795 53.1093 311.35 52.1707 311.35 50.976C311.35 50.08 311.094 49.3547 310.582 48.8C310.112 48.2453 309.238 47.7547 307.958 47.328C306.678 46.8587 304.779 46.368 302.262 45.856C298.635 45.088 295.947 43.9147 294.198 42.336C292.491 40.7573 291.638 38.6667 291.638 36.064C291.638 34.3573 292.15 32.7573 293.174 31.264C294.198 29.728 295.712 28.4907 297.718 27.552C299.766 26.5707 302.198 26.08 305.014 26.08C307.872 26.08 310.347 26.5493 312.438 27.488C314.528 28.384 316.107 29.472 317.174 30.752C318.283 31.9893 318.838 33.0987 318.838 34.08C318.838 34.464 318.688 34.8053 318.39 35.104C318.134 35.36 317.814 35.488 317.43 35.488H312.694C312.352 35.488 311.99 35.3387 311.606 35.04C311.307 34.8267 310.838 34.4213 310.198 33.824C309.558 33.2267 308.811 32.7573 307.958 32.416C307.104 32.0747 306.102 31.904 304.95 31.904C303.371 31.904 302.134 32.2453 301.238 32.928C300.384 33.6107 299.958 34.5067 299.958 35.616C299.958 36.4267 300.171 37.088 300.598 37.6C301.024 38.112 301.856 38.6027 303.094 39.072C304.331 39.5413 306.187 40.0107 308.662 40.48C312.758 41.2907 315.68 42.5493 317.43 44.256C319.222 45.9627 320.118 48.0533 320.118 50.528C320.118 53.5147 318.816 55.9467 316.214 57.824C313.611 59.7013 309.963 60.64 305.27 60.64ZM339.076 60.64C335.151 60.64 332.057 59.36 329.796 56.8C327.535 54.1973 326.404 50.6773 326.404 46.24V28.256C326.404 27.8293 326.553 27.4667 326.852 27.168C327.151 26.8693 327.513 26.72 327.94 26.72H333.572C334.041 26.72 334.404 26.8693 334.66 27.168C334.959 27.424 335.108 27.7867 335.108 28.256V45.856C335.108 51.1467 337.433 53.792 342.084 53.792C344.303 53.792 346.052 53.088 347.332 51.68C348.655 50.272 349.316 48.3307 349.316 45.856V28.256C349.316 27.8293 349.465 27.4667 349.764 27.168C350.063 26.8693 350.425 26.72 350.852 26.72H356.484C356.953 26.72 357.316 26.8693 357.572 27.168C357.871 27.424 358.02 27.7867 358.02 28.256V58.464C358.02 58.8907 357.871 59.2533 357.572 59.552C357.316 59.8507 356.953 60 356.484 60H351.3C350.873 60 350.511 59.8507 350.212 59.552C349.913 59.2533 349.764 58.8907 349.764 58.464V55.84C347.375 59.04 343.812 60.64 339.076 60.64ZM368.074 60C367.647 60 367.285 59.8507 366.986 59.552C366.687 59.2533 366.538 58.8907 366.538 58.464V16.096C366.538 15.6267 366.687 15.264 366.986 15.008C367.285 14.7093 367.647 14.56 368.074 14.56H373.386C373.855 14.56 374.218 14.7093 374.474 15.008C374.773 15.264 374.922 15.6267 374.922 16.096V58.464C374.922 58.8907 374.773 59.2533 374.474 59.552C374.218 59.8507 373.855 60 373.386 60H368.074ZM398.452 60C394.569 60 391.646 58.9973 389.684 56.992C387.764 54.944 386.804 51.9573 386.804 48.032V33.504H381.748C381.321 33.504 380.958 33.3547 380.66 33.056C380.361 32.7147 380.212 32.3307 380.212 31.904V28.256C380.212 27.8293 380.361 27.4667 380.66 27.168C380.958 26.8693 381.321 26.72 381.748 26.72H386.804V16.096C386.804 15.6267 386.953 15.264 387.252 15.008C387.55 14.7093 387.913 14.56 388.34 14.56H393.524C393.993 14.56 394.356 14.7093 394.612 15.008C394.91 15.264 395.06 15.6267 395.06 16.096V26.72H403.06C403.529 26.72 403.892 26.8693 404.148 27.168C404.446 27.424 404.596 27.7867 404.596 28.256V31.904C404.596 32.3733 404.446 32.7573 404.148 33.056C403.849 33.3547 403.486 33.504 403.06 33.504H395.06V47.392C395.06 49.2267 395.38 50.6133 396.02 51.552C396.66 52.4907 397.726 52.96 399.22 52.96H403.636C404.062 52.96 404.425 53.1093 404.724 53.408C405.022 53.7067 405.172 54.0693 405.172 54.496V58.464C405.172 58.8907 405.022 59.2533 404.724 59.552C404.468 59.8507 404.105 60 403.636 60H398.452ZM423.457 60.64C420.257 60.64 417.569 60.1707 415.393 59.232C413.217 58.2507 411.596 57.12 410.529 55.84C409.505 54.5173 408.993 53.3867 408.993 52.448C408.993 52.0213 409.142 51.68 409.441 51.424C409.74 51.168 410.081 51.04 410.465 51.04H415.521C415.905 51.04 416.225 51.1893 416.481 51.488C416.652 51.616 417.1 52 417.825 52.64C418.55 53.3227 419.404 53.856 420.385 54.24C421.366 54.624 422.454 54.816 423.649 54.816C425.356 54.816 426.764 54.4747 427.873 53.792C428.982 53.1093 429.537 52.1707 429.537 50.976C429.537 50.08 429.281 49.3547 428.769 48.8C428.3 48.2453 427.425 47.7547 426.145 47.328C424.865 46.8587 422.966 46.368 420.449 45.856C416.822 45.088 414.134 43.9147 412.385 42.336C410.678 40.7573 409.825 38.6667 409.825 36.064C409.825 34.3573 410.337 32.7573 411.361 31.264C412.385 29.728 413.9 28.4907 415.905 27.552C417.953 26.5707 420.385 26.08 423.201 26.08C426.06 26.08 428.534 26.5493 430.625 27.488C432.716 28.384 434.294 29.472 435.361 30.752C436.47 31.9893 437.025 33.0987 437.025 34.08C437.025 34.464 436.876 34.8053 436.577 35.104C436.321 35.36 436.001 35.488 435.617 35.488H430.881C430.54 35.488 430.177 35.3387 429.793 35.04C429.494 34.8267 429.025 34.4213 428.385 33.824C427.745 33.2267 426.998 32.7573 426.145 32.416C425.292 32.0747 424.289 31.904 423.137 31.904C421.558 31.904 420.321 32.2453 419.425 32.928C418.572 33.6107 418.145 34.5067 418.145 35.616C418.145 36.4267 418.358 37.088 418.785 37.6C419.212 38.112 420.044 38.6027 421.281 39.072C422.518 39.5413 424.374 40.0107 426.849 40.48C430.945 41.2907 433.868 42.5493 435.617 44.256C437.409 45.9627 438.305 48.0533 438.305 50.528C438.305 53.5147 437.004 55.9467 434.401 57.824C431.798 59.7013 428.15 60.64 423.457 60.64Z" fill="#17C0EB"/>
<path d="M446.064 60C445.637 60 445.274 59.8507 444.976 59.552C444.677 59.2533 444.528 58.8907 444.528 58.464V52.128C444.528 51.7013 444.677 51.3387 444.976 51.04C445.274 50.6987 445.637 50.528 446.064 50.528H452.464C452.89 50.528 453.253 50.6987 453.552 51.04C453.85 51.3387 454 51.7013 454 52.128V58.464C454 58.8907 453.85 59.2533 453.552 59.552C453.253 59.8507 452.89 60 452.464 60H446.064Z" fill="#7158E2"/>
</svg>
