<svg width="257" height="115" viewBox="0 0 257 115" fill="none" xmlns="http://www.w3.org/2000/svg">
<path d="M18.936 67.72C15.336 67.72 12.312 67.192 9.864 66.136C7.416 65.032 5.592 63.76 4.392 62.32C3.24 60.832 2.664 59.56 2.664 58.504C2.664 58.024 2.832 57.64 3.168 57.352C3.504 57.064 3.888 56.92 4.32 56.92H10.008C10.44 56.92 10.8 57.088 11.088 57.424C11.28 57.568 11.784 58 12.6 58.72C13.416 59.488 14.376 60.088 15.48 60.52C16.584 60.952 17.808 61.168 19.152 61.168C21.072 61.168 22.656 60.784 23.904 60.016C25.152 59.248 25.776 58.192 25.776 56.848C25.776 55.84 25.488 55.024 24.912 54.4C24.384 53.776 23.4 53.224 21.96 52.744C20.52 52.216 18.384 51.664 15.552 51.088C11.472 50.224 8.448 48.904 6.48 47.128C4.56 45.352 3.6 43 3.6 40.072C3.6 38.152 4.176 36.352 5.328 34.672C6.48 32.944 8.184 31.552 10.44 30.496C12.744 29.392 15.48 28.84 18.648 28.84C21.864 28.84 24.648 29.368 27 30.424C29.352 31.432 31.128 32.656 32.328 34.096C33.576 35.488 34.2 36.736 34.2 37.84C34.2 38.272 34.032 38.656 33.696 38.992C33.408 39.28 33.048 39.424 32.616 39.424H27.288C26.904 39.424 26.496 39.256 26.064 38.92C25.728 38.68 25.2 38.224 24.48 37.552C23.76 36.88 22.92 36.352 21.96 35.968C21 35.584 19.872 35.392 18.576 35.392C16.8 35.392 15.408 35.776 14.4 36.544C13.44 37.312 12.96 38.32 12.96 39.568C12.96 40.48 13.2 41.224 13.68 41.8C14.16 42.376 15.096 42.928 16.488 43.456C17.88 43.984 19.968 44.512 22.752 45.04C27.36 45.952 30.648 47.368 32.616 49.288C34.632 51.208 35.64 53.56 35.64 56.344C35.64 59.704 34.176 62.44 31.248 64.552C28.32 66.664 24.216 67.72 18.936 67.72ZM59.2003 67.72C53.8723 67.72 49.6243 66.184 46.4563 63.112C43.3363 59.992 41.6803 55.624 41.4883 50.008L41.4163 48.208L41.4883 46.408C41.7283 40.936 43.4083 36.64 46.5283 33.52C49.6963 30.4 53.9203 28.84 59.2003 28.84C64.8643 28.84 69.2323 30.568 72.3043 34.024C75.4243 37.48 76.9843 42.088 76.9843 47.848V49.36C76.9843 49.84 76.8163 50.248 76.4803 50.584C76.1443 50.92 75.7123 51.088 75.1843 51.088H51.2803V51.664C51.3763 54.304 52.0963 56.536 53.4403 58.36C54.8323 60.136 56.7283 61.024 59.1283 61.024C61.9603 61.024 64.2403 59.92 65.9683 57.712C66.4003 57.184 66.7363 56.848 66.9763 56.704C67.2643 56.56 67.6723 56.488 68.2003 56.488H74.3923C74.8243 56.488 75.1843 56.632 75.4723 56.92C75.8083 57.16 75.9763 57.472 75.9763 57.856C75.9763 59.008 75.2803 60.376 73.8883 61.96C72.5443 63.496 70.6003 64.84 68.0563 65.992C65.5123 67.144 62.5603 67.72 59.2003 67.72ZM67.1923 45.04V44.824C67.1923 41.992 66.4723 39.712 65.0323 37.984C63.6403 36.256 61.6963 35.392 59.2003 35.392C56.7043 35.392 54.7603 36.256 53.3683 37.984C51.9763 39.712 51.2803 41.992 51.2803 44.824V45.04H67.1923ZM95.499 67.72C93.051 67.72 90.795 67.24 88.731 66.28C86.715 65.272 85.107 63.928 83.907 62.248C82.755 60.568 82.179 58.72 82.179 56.704C82.179 53.44 83.499 50.8 86.139 48.784C88.779 46.768 92.403 45.4 97.011 44.68L106.875 43.24V41.728C106.875 39.616 106.347 38.032 105.291 36.976C104.235 35.92 102.531 35.392 100.179 35.392C98.595 35.392 97.299 35.704 96.291 36.328C95.331 36.904 94.563 37.48 93.987 38.056C93.411 38.68 93.027 39.088 92.835 39.28C92.643 39.856 92.283 40.144 91.755 40.144H86.211C85.779 40.144 85.395 40 85.059 39.712C84.771 39.424 84.627 39.04 84.627 38.56C84.675 37.36 85.251 35.992 86.355 34.456C87.507 32.92 89.259 31.6 91.611 30.496C93.963 29.392 96.843 28.84 100.251 28.84C105.915 28.84 110.043 30.112 112.635 32.656C115.227 35.2 116.523 38.536 116.523 42.664V65.272C116.523 65.752 116.355 66.16 116.019 66.496C115.731 66.832 115.323 67 114.795 67H108.963C108.483 67 108.075 66.832 107.739 66.496C107.403 66.16 107.235 65.752 107.235 65.272V62.464C106.179 64 104.667 65.272 102.699 66.28C100.779 67.24 98.379 67.72 95.499 67.72ZM97.947 60.88C100.587 60.88 102.747 60.016 104.427 58.288C106.107 56.56 106.947 54.04 106.947 50.728V49.216L99.747 50.368C96.963 50.8 94.851 51.496 93.411 52.456C92.019 53.416 91.323 54.592 91.323 55.984C91.323 57.52 91.971 58.72 93.267 59.584C94.563 60.448 96.123 60.88 97.947 60.88ZM127.488 67C127.008 67 126.6 66.832 126.264 66.496C125.928 66.16 125.76 65.752 125.76 65.272V31.36C125.76 30.88 125.928 30.472 126.264 30.136C126.6 29.752 127.008 29.56 127.488 29.56H133.32C133.848 29.56 134.28 29.728 134.616 30.064C134.952 30.4 135.12 30.832 135.12 31.36V34.312C136.272 32.776 137.712 31.6 139.44 30.784C141.216 29.968 143.232 29.56 145.488 29.56H148.44C148.968 29.56 149.376 29.728 149.664 30.064C150 30.352 150.168 30.76 150.168 31.288V36.472C150.168 36.952 150 37.36 149.664 37.696C149.376 38.032 148.968 38.2 148.44 38.2H142.824C140.568 38.2 138.792 38.848 137.496 40.144C136.2 41.44 135.552 43.216 135.552 45.472V65.272C135.552 65.752 135.384 66.16 135.048 66.496C134.712 66.832 134.28 67 133.752 67H127.488Z" fill="black"/>
<path d="M171.983 67.72C166.703 67.72 162.479 66.256 159.311 63.328C156.191 60.4 154.535 56.344 154.343 51.16L154.271 48.28L154.343 45.4C154.535 40.216 156.191 36.16 159.311 33.232C162.479 30.304 166.703 28.84 171.983 28.84C175.727 28.84 178.895 29.512 181.487 30.856C184.127 32.2 186.071 33.856 187.319 35.824C188.615 37.744 189.311 39.568 189.407 41.296C189.455 41.776 189.287 42.184 188.903 42.52C188.567 42.856 188.159 43.024 187.679 43.024H181.343C180.863 43.024 180.479 42.928 180.191 42.736C179.951 42.496 179.711 42.112 179.471 41.584C178.751 39.712 177.791 38.368 176.591 37.552C175.439 36.736 173.951 36.328 172.127 36.328C169.679 36.328 167.759 37.12 166.367 38.704C164.975 40.24 164.231 42.592 164.135 45.76L164.063 48.424L164.135 50.8C164.327 57.088 166.991 60.232 172.127 60.232C173.999 60.232 175.511 59.824 176.663 59.008C177.815 58.192 178.751 56.848 179.471 54.976C179.711 54.448 179.951 54.088 180.191 53.896C180.479 53.656 180.863 53.536 181.343 53.536H187.679C188.159 53.536 188.567 53.704 188.903 54.04C189.287 54.376 189.455 54.784 189.407 55.264C189.311 56.944 188.639 58.744 187.391 60.664C186.143 62.584 184.223 64.24 181.631 65.632C179.039 67.024 175.823 67.72 171.983 67.72ZM198.716 67C198.236 67 197.828 66.832 197.492 66.496C197.156 66.16 196.988 65.752 196.988 65.272V17.608C196.988 17.08 197.156 16.672 197.492 16.384C197.828 16.048 198.236 15.88 198.716 15.88H205.124C205.652 15.88 206.06 16.048 206.348 16.384C206.684 16.672 206.852 17.08 206.852 17.608V34.024C209.732 30.568 213.62 28.84 218.516 28.84C222.932 28.84 226.46 30.304 229.1 33.232C231.74 36.112 233.06 40.048 233.06 45.04V65.272C233.06 65.752 232.892 66.16 232.556 66.496C232.268 66.832 231.86 67 231.332 67H224.852C224.372 67 223.964 66.832 223.628 66.496C223.292 66.16 223.124 65.752 223.124 65.272V45.472C223.124 42.64 222.428 40.456 221.036 38.92C219.692 37.336 217.724 36.544 215.132 36.544C212.588 36.544 210.572 37.336 209.084 38.92C207.596 40.504 206.852 42.688 206.852 45.472V65.272C206.852 65.752 206.684 66.16 206.348 66.496C206.06 66.832 205.652 67 205.124 67H198.716Z" fill="#17C0EB"/>
<path d="M243.493 67C243.013 67 242.605 66.832 242.269 66.496C241.933 66.16 241.765 65.752 241.765 65.272V58.144C241.765 57.664 241.933 57.256 242.269 56.92C242.605 56.536 243.013 56.344 243.493 56.344H250.693C251.173 56.344 251.581 56.536 251.917 56.92C252.253 57.256 252.421 57.664 252.421 58.144V65.272C252.421 65.752 252.253 66.16 251.917 66.496C251.581 66.832 251.173 67 250.693 67H243.493Z" fill="#7158E2"/>
<path d="M18.648 108C18.488 108 18.36 107.952 18.264 107.856C18.168 107.76 18.12 107.632 18.12 107.472V96.912H15.984C15.824 96.912 15.696 96.864 15.6 96.768C15.504 96.672 15.456 96.544 15.456 96.384V96.048C15.456 95.888 15.504 95.76 15.6 95.664C15.696 95.568 15.824 95.52 15.984 95.52H18.12V94.152C18.12 92.936 18.384 91.984 18.912 91.296C19.44 90.592 20.384 90.24 21.744 90.24H22.992C23.152 90.24 23.28 90.288 23.376 90.384C23.472 90.48 23.52 90.608 23.52 90.768V91.104C23.52 91.264 23.472 91.392 23.376 91.488C23.28 91.584 23.152 91.632 22.992 91.632H21.744C20.928 91.632 20.36 91.848 20.04 92.28C19.736 92.696 19.584 93.36 19.584 94.272V95.52H22.752C22.912 95.52 23.04 95.568 23.136 95.664C23.232 95.76 23.28 95.888 23.28 96.048V96.384C23.28 96.544 23.232 96.672 23.136 96.768C23.04 96.864 22.912 96.912 22.752 96.912H19.584V107.472C19.584 107.632 19.536 107.76 19.44 107.856C19.344 107.952 19.216 108 19.056 108H18.648ZM30.0866 108.24C28.4226 108.24 27.1266 107.736 26.1986 106.728C25.2866 105.704 24.8066 104.384 24.7586 102.768L24.7346 101.76L24.7586 100.752C24.8066 99.136 25.2866 97.824 26.1986 96.816C27.1266 95.792 28.4226 95.28 30.0866 95.28C31.7506 95.28 33.0386 95.792 33.9506 96.816C34.8786 97.824 35.3666 99.136 35.4146 100.752C35.4306 100.912 35.4386 101.248 35.4386 101.76C35.4386 102.272 35.4306 102.608 35.4146 102.768C35.3666 104.384 34.8786 105.704 33.9506 106.728C33.0386 107.736 31.7506 108.24 30.0866 108.24ZM30.0866 106.848C31.2226 106.848 32.1346 106.488 32.8226 105.768C33.5266 105.032 33.9026 103.992 33.9506 102.648C33.9666 102.488 33.9746 102.192 33.9746 101.76C33.9746 101.328 33.9666 101.032 33.9506 100.872C33.9026 99.528 33.5266 98.496 32.8226 97.776C32.1346 97.04 31.2226 96.672 30.0866 96.672C28.9506 96.672 28.0306 97.04 27.3266 97.776C26.6386 98.496 26.2706 99.528 26.2226 100.872L26.1986 101.76L26.2226 102.648C26.2706 103.992 26.6386 105.032 27.3266 105.768C28.0306 106.488 28.9506 106.848 30.0866 106.848ZM39.2454 108C39.0854 108 38.9574 107.952 38.8614 107.856C38.7654 107.76 38.7174 107.632 38.7174 107.472V96.072C38.7174 95.912 38.7654 95.784 38.8614 95.688C38.9574 95.576 39.0854 95.52 39.2454 95.52H39.6294C39.7894 95.52 39.9174 95.576 40.0134 95.688C40.1254 95.784 40.1814 95.912 40.1814 96.072V97.176C40.7574 96.072 41.8454 95.52 43.4454 95.52H44.3334C44.4934 95.52 44.6214 95.568 44.7174 95.664C44.8134 95.76 44.8614 95.888 44.8614 96.048V96.384C44.8614 96.544 44.8134 96.672 44.7174 96.768C44.6214 96.864 44.4934 96.912 44.3334 96.912H43.3014C42.3414 96.912 41.5814 97.192 41.0214 97.752C40.4614 98.312 40.1814 99.072 40.1814 100.032V107.472C40.1814 107.632 40.1254 107.76 40.0134 107.856C39.9174 107.952 39.7894 108 39.6294 108H39.2454ZM56.0228 108.24C55.2548 108.24 54.5428 108.08 53.8867 107.76C53.2308 107.44 52.7028 107.008 52.3027 106.464C51.9188 105.92 51.7268 105.32 51.7268 104.664C51.7268 103.608 52.1508 102.744 52.9988 102.072C53.8628 101.4 55.0228 100.968 56.4788 100.776L60.2708 100.248V99.408C60.2708 98.528 59.9988 97.856 59.4548 97.392C58.9268 96.912 58.1108 96.672 57.0068 96.672C56.1908 96.672 55.5188 96.832 54.9908 97.152C54.4788 97.472 54.1508 97.856 54.0068 98.304C53.9428 98.496 53.8628 98.632 53.7668 98.712C53.6868 98.776 53.5748 98.808 53.4308 98.808H53.0948C52.9508 98.808 52.8228 98.76 52.7108 98.664C52.6148 98.552 52.5668 98.424 52.5668 98.28C52.5668 97.928 52.7268 97.52 53.0468 97.056C53.3668 96.576 53.8628 96.16 54.5348 95.808C55.2068 95.456 56.0308 95.28 57.0068 95.28C58.7188 95.28 59.9348 95.688 60.6548 96.504C61.3748 97.32 61.7348 98.312 61.7348 99.48V107.472C61.7348 107.632 61.6868 107.76 61.5908 107.856C61.4948 107.952 61.3668 108 61.2068 108H60.7988C60.6388 108 60.5108 107.952 60.4148 107.856C60.3188 107.76 60.2708 107.632 60.2708 107.472V106.344C59.9188 106.872 59.3988 107.32 58.7108 107.688C58.0388 108.056 57.1428 108.24 56.0228 108.24ZM56.2628 106.848C57.4308 106.848 58.3908 106.464 59.1428 105.696C59.8948 104.928 60.2708 103.824 60.2708 102.384V101.568L57.1748 102C55.8628 102.176 54.8708 102.48 54.1988 102.912C53.5268 103.344 53.1908 103.888 53.1908 104.544C53.1908 105.28 53.4948 105.848 54.1028 106.248C54.7268 106.648 55.4468 106.848 56.2628 106.848ZM72.2454 108C72.0854 108 71.9574 107.952 71.8614 107.856C71.7654 107.76 71.7174 107.632 71.7174 107.472V96.048C71.7174 95.888 71.7654 95.76 71.8614 95.664C71.9574 95.568 72.0854 95.52 72.2454 95.52H72.6534C72.8134 95.52 72.9414 95.568 73.0374 95.664C73.1334 95.76 73.1814 95.888 73.1814 96.048V96.888C73.5974 96.36 74.0774 95.96 74.6214 95.688C75.1814 95.416 75.8454 95.28 76.6134 95.28C78.4054 95.28 79.6854 96.032 80.4534 97.536C80.8374 96.848 81.3814 96.304 82.0854 95.904C82.8054 95.488 83.6214 95.28 84.5334 95.28C85.8614 95.28 86.9414 95.736 87.7734 96.648C88.6054 97.544 89.0214 98.824 89.0214 100.488V107.472C89.0214 107.632 88.9734 107.76 88.8774 107.856C88.7814 107.952 88.6534 108 88.4934 108H88.0854C87.9254 108 87.7974 107.952 87.7014 107.856C87.6054 107.76 87.5574 107.632 87.5574 107.472V100.728C87.5574 99.272 87.2534 98.232 86.6454 97.608C86.0534 96.984 85.2694 96.672 84.2934 96.672C83.4294 96.672 82.6774 96.992 82.0374 97.632C81.4134 98.256 81.1014 99.288 81.1014 100.728V107.472C81.1014 107.632 81.0534 107.76 80.9574 107.856C80.8614 107.952 80.7334 108 80.5734 108H80.1654C80.0054 108 79.8774 107.952 79.7814 107.856C79.6854 107.76 79.6374 107.632 79.6374 107.472V100.728C79.6374 99.288 79.3254 98.256 78.7014 97.632C78.0774 96.992 77.3014 96.672 76.3734 96.672C75.5094 96.672 74.7574 96.992 74.1174 97.632C73.4934 98.256 73.1814 99.28 73.1814 100.704V107.472C73.1814 107.632 73.1334 107.76 73.0374 107.856C72.9414 107.952 72.8134 108 72.6534 108H72.2454ZM97.4198 108.24C95.8998 108.24 94.6758 107.744 93.7478 106.752C92.8198 105.744 92.2918 104.4 92.1638 102.72L92.1398 101.76L92.1638 100.8C92.2918 99.136 92.8118 97.8 93.7238 96.792C94.6518 95.784 95.8838 95.28 97.4198 95.28C99.0838 95.28 100.38 95.832 101.308 96.936C102.252 98.04 102.724 99.552 102.724 101.472V101.832C102.724 101.992 102.668 102.12 102.556 102.216C102.46 102.312 102.332 102.36 102.172 102.36H93.6278V102.6C93.6598 103.352 93.8278 104.056 94.1318 104.712C94.4518 105.352 94.8918 105.872 95.4518 106.272C96.0118 106.656 96.6678 106.848 97.4198 106.848C98.2998 106.848 99.0118 106.68 99.5558 106.344C100.116 105.992 100.516 105.64 100.756 105.288C100.9 105.096 101.004 104.976 101.068 104.928C101.148 104.88 101.284 104.856 101.476 104.856H101.86C102.004 104.856 102.124 104.896 102.22 104.976C102.316 105.056 102.364 105.16 102.364 105.288C102.364 105.624 102.148 106.032 101.716 106.512C101.3 106.976 100.716 107.384 99.9638 107.736C99.2118 108.072 98.3638 108.24 97.4198 108.24ZM101.26 101.016V100.92C101.26 99.688 100.908 98.672 100.204 97.872C99.5158 97.072 98.5878 96.672 97.4198 96.672C96.2518 96.672 95.3238 97.072 94.6358 97.872C93.9638 98.672 93.6278 99.688 93.6278 100.92V101.016H101.26ZM110.401 108.24C108.673 108.24 107.393 107.68 106.561 106.56C105.745 105.424 105.313 104.048 105.265 102.432L105.241 101.76L105.265 101.088C105.313 99.472 105.745 98.104 106.561 96.984C107.393 95.848 108.673 95.28 110.401 95.28C112.145 95.28 113.489 95.912 114.433 97.176V91.488C114.433 91.328 114.481 91.2 114.577 91.104C114.673 91.008 114.801 90.96 114.961 90.96H115.369C115.529 90.96 115.657 91.008 115.753 91.104C115.849 91.2 115.897 91.328 115.897 91.488V107.472C115.897 107.632 115.849 107.76 115.753 107.856C115.657 107.952 115.529 108 115.369 108H114.961C114.801 108 114.673 107.952 114.577 107.856C114.481 107.76 114.433 107.632 114.433 107.472V106.344C113.505 107.608 112.161 108.24 110.401 108.24ZM110.545 106.848C111.809 106.848 112.761 106.432 113.401 105.6C114.041 104.752 114.385 103.76 114.433 102.624C114.449 102.464 114.457 102.152 114.457 101.688C114.457 101.224 114.449 100.912 114.433 100.752C114.417 100.064 114.265 99.416 113.977 98.808C113.689 98.184 113.257 97.672 112.681 97.272C112.105 96.872 111.393 96.672 110.545 96.672C109.249 96.672 108.297 97.088 107.689 97.92C107.097 98.736 106.777 99.792 106.729 101.088L106.705 101.76C106.705 103.248 106.993 104.472 107.569 105.432C108.145 106.376 109.137 106.848 110.545 106.848ZM120.075 92.952C119.915 92.952 119.787 92.904 119.691 92.808C119.595 92.712 119.547 92.584 119.547 92.424V91.512C119.547 91.352 119.595 91.224 119.691 91.128C119.787 91.016 119.915 90.96 120.075 90.96H120.987C121.147 90.96 121.275 91.016 121.371 91.128C121.483 91.224 121.539 91.352 121.539 91.512V92.424C121.539 92.584 121.483 92.712 121.371 92.808C121.275 92.904 121.147 92.952 120.987 92.952H120.075ZM120.339 108C120.179 108 120.051 107.952 119.955 107.856C119.859 107.76 119.811 107.632 119.811 107.472V96.048C119.811 95.888 119.859 95.76 119.955 95.664C120.051 95.568 120.179 95.52 120.339 95.52H120.747C120.907 95.52 121.035 95.568 121.131 95.664C121.227 95.76 121.275 95.888 121.275 96.048V107.472C121.275 107.632 121.227 107.76 121.131 107.856C121.035 107.952 120.907 108 120.747 108H120.339ZM129.883 108.24C128.219 108.24 126.931 107.76 126.019 106.8C125.107 105.824 124.627 104.464 124.579 102.72L124.555 101.76L124.579 100.8C124.627 99.056 125.107 97.704 126.019 96.744C126.931 95.768 128.219 95.28 129.883 95.28C130.939 95.28 131.835 95.472 132.571 95.856C133.323 96.224 133.883 96.704 134.251 97.296C134.619 97.872 134.819 98.472 134.851 99.096C134.867 99.24 134.819 99.368 134.707 99.48C134.595 99.576 134.467 99.624 134.323 99.624H133.987C133.827 99.624 133.707 99.592 133.627 99.528C133.563 99.448 133.491 99.312 133.411 99.12C133.091 98.24 132.643 97.616 132.067 97.248C131.491 96.864 130.763 96.672 129.883 96.672C128.731 96.672 127.811 97.024 127.123 97.728C126.451 98.416 126.091 99.48 126.043 100.92L126.019 101.76L126.043 102.6C126.091 104.04 126.451 105.112 127.123 105.816C127.811 106.504 128.731 106.848 129.883 106.848C130.763 106.848 131.491 106.664 132.067 106.296C132.643 105.912 133.091 105.28 133.411 104.4C133.491 104.208 133.563 104.08 133.627 104.016C133.707 103.936 133.827 103.896 133.987 103.896H134.323C134.467 103.896 134.595 103.952 134.707 104.064C134.819 104.16 134.867 104.28 134.851 104.424C134.819 105.048 134.619 105.656 134.251 106.248C133.883 106.824 133.323 107.304 132.571 107.688C131.835 108.056 130.939 108.24 129.883 108.24ZM138.286 92.952C138.126 92.952 137.998 92.904 137.902 92.808C137.806 92.712 137.758 92.584 137.758 92.424V91.512C137.758 91.352 137.806 91.224 137.902 91.128C137.998 91.016 138.126 90.96 138.286 90.96H139.198C139.358 90.96 139.486 91.016 139.582 91.128C139.694 91.224 139.75 91.352 139.75 91.512V92.424C139.75 92.584 139.694 92.712 139.582 92.808C139.486 92.904 139.358 92.952 139.198 92.952H138.286ZM138.55 108C138.39 108 138.262 107.952 138.166 107.856C138.07 107.76 138.022 107.632 138.022 107.472V96.048C138.022 95.888 138.07 95.76 138.166 95.664C138.262 95.568 138.39 95.52 138.55 95.52H138.958C139.118 95.52 139.246 95.568 139.342 95.664C139.438 95.76 139.486 95.888 139.486 96.048V107.472C139.486 107.632 139.438 107.76 139.342 107.856C139.246 107.952 139.118 108 138.958 108H138.55ZM143.894 108C143.734 108 143.606 107.952 143.51 107.856C143.414 107.76 143.366 107.632 143.366 107.472V96.048C143.366 95.888 143.414 95.76 143.51 95.664C143.606 95.568 143.734 95.52 143.894 95.52H144.302C144.462 95.52 144.59 95.568 144.686 95.664C144.782 95.76 144.83 95.888 144.83 96.048V97.176C145.31 96.552 145.854 96.08 146.462 95.76C147.086 95.44 147.886 95.28 148.862 95.28C150.43 95.28 151.638 95.784 152.486 96.792C153.334 97.784 153.758 99.072 153.758 100.656V107.472C153.758 107.632 153.71 107.76 153.614 107.856C153.518 107.952 153.39 108 153.23 108H152.822C152.662 108 152.534 107.952 152.438 107.856C152.342 107.76 152.294 107.632 152.294 107.472V100.776C152.294 99.48 151.974 98.472 151.334 97.752C150.71 97.032 149.806 96.672 148.622 96.672C147.47 96.672 146.55 97.04 145.862 97.776C145.174 98.496 144.83 99.496 144.83 100.776V107.472C144.83 107.632 144.782 107.76 144.686 107.856C144.59 107.952 144.462 108 144.302 108H143.894ZM162.154 108.24C160.634 108.24 159.41 107.744 158.482 106.752C157.554 105.744 157.026 104.4 156.898 102.72L156.874 101.76L156.898 100.8C157.026 99.136 157.546 97.8 158.458 96.792C159.386 95.784 160.618 95.28 162.154 95.28C163.818 95.28 165.114 95.832 166.042 96.936C166.986 98.04 167.458 99.552 167.458 101.472V101.832C167.458 101.992 167.402 102.12 167.29 102.216C167.194 102.312 167.066 102.36 166.906 102.36H158.362V102.6C158.394 103.352 158.562 104.056 158.866 104.712C159.186 105.352 159.626 105.872 160.186 106.272C160.746 106.656 161.402 106.848 162.154 106.848C163.034 106.848 163.746 106.68 164.29 106.344C164.85 105.992 165.25 105.64 165.49 105.288C165.634 105.096 165.738 104.976 165.802 104.928C165.882 104.88 166.018 104.856 166.21 104.856H166.594C166.738 104.856 166.858 104.896 166.954 104.976C167.05 105.056 167.098 105.16 167.098 105.288C167.098 105.624 166.882 106.032 166.45 106.512C166.034 106.976 165.45 107.384 164.698 107.736C163.946 108.072 163.098 108.24 162.154 108.24ZM165.994 101.016V100.92C165.994 99.688 165.642 98.672 164.938 97.872C164.25 97.072 163.322 96.672 162.154 96.672C160.986 96.672 160.058 97.072 159.37 97.872C158.698 98.672 158.362 99.688 158.362 100.92V101.016H165.994ZM177.363 108C177.203 108 177.075 107.952 176.979 107.856C176.883 107.76 176.835 107.632 176.835 107.472V91.488C176.835 91.328 176.883 91.2 176.979 91.104C177.075 91.008 177.203 90.96 177.363 90.96H177.771C177.931 90.96 178.059 91.008 178.155 91.104C178.251 91.2 178.299 91.328 178.299 91.488V97.176C178.779 96.552 179.323 96.08 179.931 95.76C180.555 95.44 181.355 95.28 182.331 95.28C183.899 95.28 185.107 95.784 185.955 96.792C186.803 97.784 187.227 99.072 187.227 100.656V107.472C187.227 107.632 187.179 107.76 187.083 107.856C186.987 107.952 186.859 108 186.699 108H186.291C186.131 108 186.003 107.952 185.907 107.856C185.811 107.76 185.763 107.632 185.763 107.472V100.776C185.763 99.48 185.443 98.472 184.803 97.752C184.179 97.032 183.275 96.672 182.091 96.672C180.939 96.672 180.019 97.04 179.331 97.776C178.643 98.496 178.299 99.496 178.299 100.776V107.472C178.299 107.632 178.251 107.76 178.155 107.856C178.059 107.952 177.931 108 177.771 108H177.363ZM195.623 108.24C194.103 108.24 192.879 107.744 191.951 106.752C191.023 105.744 190.495 104.4 190.367 102.72L190.343 101.76L190.367 100.8C190.495 99.136 191.015 97.8 191.927 96.792C192.855 95.784 194.087 95.28 195.623 95.28C197.287 95.28 198.583 95.832 199.511 96.936C200.455 98.04 200.927 99.552 200.927 101.472V101.832C200.927 101.992 200.871 102.12 200.759 102.216C200.663 102.312 200.535 102.36 200.375 102.36H191.831V102.6C191.863 103.352 192.031 104.056 192.335 104.712C192.655 105.352 193.095 105.872 193.655 106.272C194.215 106.656 194.871 106.848 195.623 106.848C196.503 106.848 197.215 106.68 197.759 106.344C198.319 105.992 198.719 105.64 198.959 105.288C199.103 105.096 199.207 104.976 199.271 104.928C199.351 104.88 199.487 104.856 199.679 104.856H200.063C200.207 104.856 200.327 104.896 200.423 104.976C200.519 105.056 200.567 105.16 200.567 105.288C200.567 105.624 200.351 106.032 199.919 106.512C199.503 106.976 198.919 107.384 198.167 107.736C197.415 108.072 196.567 108.24 195.623 108.24ZM199.463 101.016V100.92C199.463 99.688 199.111 98.672 198.407 97.872C197.719 97.072 196.791 96.672 195.623 96.672C194.455 96.672 193.527 97.072 192.839 97.872C192.167 98.672 191.831 99.688 191.831 100.92V101.016H199.463ZM204.62 108C204.46 108 204.332 107.952 204.236 107.856C204.14 107.76 204.092 107.632 204.092 107.472V96.072C204.092 95.912 204.14 95.784 204.236 95.688C204.332 95.576 204.46 95.52 204.62 95.52H205.004C205.164 95.52 205.292 95.576 205.388 95.688C205.5 95.784 205.556 95.912 205.556 96.072V97.176C206.132 96.072 207.22 95.52 208.82 95.52H209.708C209.868 95.52 209.996 95.568 210.092 95.664C210.188 95.76 210.236 95.888 210.236 96.048V96.384C210.236 96.544 210.188 96.672 210.092 96.768C209.996 96.864 209.868 96.912 209.708 96.912H208.676C207.716 96.912 206.956 97.192 206.396 97.752C205.836 98.312 205.556 99.072 205.556 100.032V107.472C205.556 107.632 205.5 107.76 205.388 107.856C205.292 107.952 205.164 108 205.004 108H204.62ZM216.787 108.24C215.267 108.24 214.043 107.744 213.115 106.752C212.187 105.744 211.659 104.4 211.531 102.72L211.507 101.76L211.531 100.8C211.659 99.136 212.179 97.8 213.091 96.792C214.019 95.784 215.251 95.28 216.787 95.28C218.451 95.28 219.747 95.832 220.675 96.936C221.619 98.04 222.091 99.552 222.091 101.472V101.832C222.091 101.992 222.035 102.12 221.923 102.216C221.827 102.312 221.699 102.36 221.539 102.36H212.995V102.6C213.027 103.352 213.195 104.056 213.499 104.712C213.819 105.352 214.259 105.872 214.819 106.272C215.379 106.656 216.035 106.848 216.787 106.848C217.667 106.848 218.379 106.68 218.923 106.344C219.483 105.992 219.883 105.64 220.123 105.288C220.267 105.096 220.371 104.976 220.435 104.928C220.515 104.88 220.651 104.856 220.843 104.856H221.227C221.371 104.856 221.491 104.896 221.587 104.976C221.683 105.056 221.731 105.16 221.731 105.288C221.731 105.624 221.515 106.032 221.083 106.512C220.667 106.976 220.083 107.384 219.331 107.736C218.579 108.072 217.731 108.24 216.787 108.24ZM220.627 101.016V100.92C220.627 99.688 220.275 98.672 219.571 97.872C218.883 97.072 217.955 96.672 216.787 96.672C215.619 96.672 214.691 97.072 214.003 97.872C213.331 98.672 212.995 99.688 212.995 100.92V101.016H220.627Z" fill="#6E6E6E"/>
</svg>
