<svg width="249" height="69" viewBox="0 0 249 69" fill="none" xmlns="http://www.w3.org/2000/svg">
<path d="M16.936 53.72C13.336 53.72 10.312 53.192 7.864 52.136C5.416 51.032 3.592 49.76 2.392 48.32C1.24 46.832 0.664 45.56 0.664 44.504C0.664 44.024 0.832 43.64 1.168 43.352C1.504 43.064 1.888 42.92 2.32 42.92H8.008C8.44 42.92 8.8 43.088 9.088 43.424C9.28 43.568 9.784 44 10.6 44.72C11.416 45.488 12.376 46.088 13.48 46.52C14.584 46.952 15.808 47.168 17.152 47.168C19.072 47.168 20.656 46.784 21.904 46.016C23.152 45.248 23.776 44.192 23.776 42.848C23.776 41.84 23.488 41.024 22.912 40.4C22.384 39.776 21.4 39.224 19.96 38.744C18.52 38.216 16.384 37.664 13.552 37.088C9.472 36.224 6.448 34.904 4.48 33.128C2.56 31.352 1.6 29 1.6 26.072C1.6 24.152 2.176 22.352 3.328 20.672C4.48 18.944 6.184 17.552 8.44 16.496C10.744 15.392 13.48 14.84 16.648 14.84C19.864 14.84 22.648 15.368 25 16.424C27.352 17.432 29.128 18.656 30.328 20.096C31.576 21.488 32.2 22.736 32.2 23.84C32.2 24.272 32.032 24.656 31.696 24.992C31.408 25.28 31.048 25.424 30.616 25.424H25.288C24.904 25.424 24.496 25.256 24.064 24.92C23.728 24.68 23.2 24.224 22.48 23.552C21.76 22.88 20.92 22.352 19.96 21.968C19 21.584 17.872 21.392 16.576 21.392C14.8 21.392 13.408 21.776 12.4 22.544C11.44 23.312 10.96 24.32 10.96 25.568C10.96 26.48 11.2 27.224 11.68 27.8C12.16 28.376 13.096 28.928 14.488 29.456C15.88 29.984 17.968 30.512 20.752 31.04C25.36 31.952 28.648 33.368 30.616 35.288C32.632 37.208 33.64 39.56 33.64 42.344C33.64 45.704 32.176 48.44 29.248 50.552C26.32 52.664 22.216 53.72 16.936 53.72ZM42.5123 9.368C42.0323 9.368 41.6243 9.2 41.2883 8.864C40.9523 8.528 40.7843 8.12 40.7843 7.64V2.456C40.7843 1.976 40.9523 1.568 41.2883 1.232C41.6243 0.895998 42.0323 0.727999 42.5123 0.727999H49.0643C49.5443 0.727999 49.9523 0.895998 50.2883 1.232C50.6723 1.568 50.8643 1.976 50.8643 2.456V7.64C50.8643 8.12 50.6963 8.528 50.3603 8.864C50.0243 9.2 49.5923 9.368 49.0643 9.368H42.5123ZM42.8003 53C42.3203 53 41.9123 52.832 41.5763 52.496C41.2403 52.16 41.0723 51.752 41.0723 51.272V17.288C41.0723 16.808 41.2403 16.4 41.5763 16.064C41.9123 15.728 42.3203 15.56 42.8003 15.56H48.7763C49.3043 15.56 49.7123 15.728 50.0003 16.064C50.3363 16.352 50.5043 16.76 50.5043 17.288V51.272C50.5043 51.752 50.3363 52.16 50.0003 52.496C49.7123 52.832 49.3043 53 48.7763 53H42.8003ZM76.9767 68.84C72.7047 68.84 69.2487 68.12 66.6087 66.68C63.9687 65.288 62.0967 63.68 60.9927 61.856C59.8887 60.032 59.3367 58.472 59.3367 57.176C59.3367 56.744 59.5047 56.36 59.8407 56.024C60.2247 55.688 60.6327 55.52 61.0647 55.52H67.3287C67.7607 55.52 68.1207 55.616 68.4087 55.808C68.7447 56.048 69.0087 56.456 69.2007 57.032C69.6807 58.328 70.4487 59.408 71.5047 60.272C72.6087 61.184 74.3127 61.64 76.6167 61.64C79.4967 61.64 81.6087 60.992 82.9527 59.696C84.3447 58.4 85.0407 56.168 85.0407 53V48.104C82.4007 51.224 78.7047 52.784 73.9527 52.784C68.9607 52.784 65.1927 51.248 62.6487 48.176C60.1527 45.104 58.8087 40.976 58.6167 35.792L58.5447 33.848L58.6167 31.904C58.8087 26.816 60.1767 22.712 62.7207 19.592C65.2647 16.424 69.0087 14.84 73.9527 14.84C76.4967 14.84 78.7287 15.32 80.6487 16.28C82.5687 17.24 84.1767 18.56 85.4727 20.24V17.36C85.4727 16.832 85.6407 16.4 85.9767 16.064C86.3127 15.728 86.7207 15.56 87.2007 15.56H93.0327C93.5127 15.56 93.9207 15.752 94.2567 16.136C94.5927 16.472 94.7607 16.88 94.7607 17.36L94.8327 52.064C94.8327 57.392 93.3447 61.52 90.3687 64.448C87.3927 67.376 82.9287 68.84 76.9767 68.84ZM76.6167 45.152C79.3527 45.152 81.3927 44.288 82.7367 42.56C84.1287 40.832 84.8967 38.72 85.0407 36.224C85.0887 35.84 85.1127 35.048 85.1127 33.848C85.1127 32.696 85.0887 31.928 85.0407 31.544C84.8967 29 84.1287 26.864 82.7367 25.136C81.3927 23.408 79.3527 22.544 76.6167 22.544C71.4327 22.544 68.6967 25.736 68.4087 32.12L68.3367 33.848C68.3367 37.256 68.9367 39.992 70.1367 42.056C71.3847 44.12 73.5447 45.152 76.6167 45.152ZM106.152 53C105.672 53 105.264 52.832 104.928 52.496C104.592 52.16 104.424 51.752 104.424 51.272V17.288C104.424 16.808 104.592 16.4 104.928 16.064C105.264 15.728 105.672 15.56 106.152 15.56H112.056C112.536 15.56 112.944 15.728 113.28 16.064C113.616 16.4 113.784 16.808 113.784 17.288V20.24C116.616 16.64 120.624 14.84 125.808 14.84C130.224 14.84 133.728 16.304 136.32 19.232C138.912 22.112 140.208 26.048 140.208 31.04V51.272C140.208 51.752 140.04 52.16 139.704 52.496C139.416 52.832 139.008 53 138.48 53H132.144C131.664 53 131.256 52.832 130.92 52.496C130.584 52.16 130.416 51.752 130.416 51.272V31.472C130.416 28.64 129.72 26.456 128.328 24.92C126.984 23.336 125.016 22.544 122.424 22.544C119.88 22.544 117.864 23.336 116.376 24.92C114.936 26.504 114.216 28.688 114.216 31.472V51.272C114.216 51.752 114.048 52.16 113.712 52.496C113.424 52.832 113.016 53 112.488 53H106.152Z" fill="black"/>
<path d="M163.25 53.72C158.834 53.72 155.354 52.28 152.81 49.4C150.266 46.472 148.994 42.512 148.994 37.52V17.288C148.994 16.808 149.162 16.4 149.498 16.064C149.834 15.728 150.242 15.56 150.722 15.56H157.058C157.586 15.56 157.994 15.728 158.282 16.064C158.618 16.352 158.786 16.76 158.786 17.288V37.088C158.786 43.04 161.402 46.016 166.634 46.016C169.13 46.016 171.098 45.224 172.538 43.64C174.026 42.056 174.77 39.872 174.77 37.088V17.288C174.77 16.808 174.938 16.4 175.274 16.064C175.61 15.728 176.018 15.56 176.498 15.56H182.834C183.362 15.56 183.77 15.728 184.058 16.064C184.394 16.352 184.562 16.76 184.562 17.288V51.272C184.562 51.752 184.394 52.16 184.058 52.496C183.77 52.832 183.362 53 182.834 53H177.002C176.522 53 176.114 52.832 175.778 52.496C175.442 52.16 175.274 51.752 175.274 51.272V48.32C172.586 51.92 168.578 53.72 163.25 53.72ZM195.872 66.68C195.392 66.68 194.984 66.512 194.648 66.176C194.312 65.888 194.144 65.48 194.144 64.952V17.288C194.144 16.76 194.312 16.352 194.648 16.064C194.984 15.728 195.392 15.56 195.872 15.56H201.56C202.088 15.56 202.496 15.728 202.784 16.064C203.12 16.352 203.288 16.76 203.288 17.288V20.168C205.976 16.616 209.816 14.84 214.808 14.84C219.656 14.84 223.376 16.376 225.968 19.448C228.56 22.472 229.952 26.576 230.144 31.76C230.192 32.336 230.216 33.176 230.216 34.28C230.216 35.432 230.192 36.296 230.144 36.872C229.952 41.912 228.56 45.992 225.968 49.112C223.376 52.184 219.656 53.72 214.808 53.72C209.96 53.72 206.264 52.016 203.72 48.608V64.952C203.72 65.48 203.552 65.888 203.216 66.176C202.928 66.512 202.52 66.68 201.992 66.68H195.872ZM212.144 46.016C217.328 46.016 220.088 42.824 220.424 36.44C220.472 35.96 220.496 35.24 220.496 34.28C220.496 33.32 220.472 32.6 220.424 32.12C220.088 25.736 217.328 22.544 212.144 22.544C209.36 22.544 207.296 23.432 205.952 25.208C204.608 26.984 203.864 29.168 203.72 31.76L203.648 34.496L203.72 37.304C203.816 39.704 204.56 41.768 205.952 43.496C207.392 45.176 209.456 46.016 212.144 46.016Z" fill="#17C0EB"/>
<path d="M239.595 53C239.115 53 238.707 52.832 238.371 52.496C238.035 52.16 237.867 51.752 237.867 51.272V44.144C237.867 43.664 238.035 43.256 238.371 42.92C238.707 42.536 239.115 42.344 239.595 42.344H246.795C247.275 42.344 247.683 42.536 248.019 42.92C248.355 43.256 248.523 43.664 248.523 44.144V51.272C248.523 51.752 248.355 52.16 248.019 52.496C247.683 52.832 247.275 53 246.795 53H239.595Z" fill="#7158E2"/>
</svg>
