<svg width="291" height="43" viewBox="0 0 291 43" fill="none" xmlns="http://www.w3.org/2000/svg">
<path d="M0.96 18C0.832 18 0.72 17.952 0.624 17.856C0.528 17.76 0.48 17.648 0.48 17.52C0.48 17.392 0.488 17.304 0.504 17.256L6.456 1.728C6.584 1.376 6.84 1.2 7.224 1.2H8.856C9.24 1.2 9.496 1.376 9.624 1.728L15.552 17.256L15.6 17.52C15.6 17.648 15.552 17.76 15.456 17.856C15.36 17.952 15.248 18 15.12 18H13.896C13.72 18 13.584 17.96 13.488 17.88C13.392 17.784 13.328 17.688 13.296 17.592L11.976 14.184H4.104L2.784 17.592C2.752 17.688 2.68 17.784 2.568 17.88C2.472 17.96 2.344 18 2.184 18H0.96ZM11.28 12.12L8.04 3.6L4.8 12.12H11.28ZM18.5901 18C18.4301 18 18.2941 17.952 18.1821 17.856C18.0861 17.744 18.0381 17.608 18.0381 17.448V1.512C18.0381 1.352 18.0861 1.224 18.1821 1.128C18.2941 1.016 18.4301 0.959999 18.5901 0.959999H19.7181C19.8781 0.959999 20.0061 1.016 20.1021 1.128C20.2141 1.224 20.2701 1.352 20.2701 1.512V17.448C20.2701 17.608 20.2141 17.744 20.1021 17.856C20.0061 17.952 19.8781 18 19.7181 18H18.5901ZM24.5621 18C24.4021 18 24.2661 17.952 24.1541 17.856C24.0581 17.744 24.0101 17.608 24.0101 17.448V6.096C24.0101 5.936 24.0581 5.8 24.1541 5.688C24.2661 5.576 24.4021 5.52 24.5621 5.52H25.6661C25.8261 5.52 25.9621 5.576 26.0741 5.688C26.1861 5.8 26.2421 5.936 26.2421 6.096V7.152C26.8981 6.064 28.0181 5.52 29.6021 5.52H30.5381C30.6981 5.52 30.8261 5.576 30.9221 5.688C31.0341 5.784 31.0901 5.912 31.0901 6.072V7.056C31.0901 7.216 31.0341 7.344 30.9221 7.44C30.8261 7.536 30.6981 7.584 30.5381 7.584H29.0981C28.2341 7.584 27.5541 7.84 27.0581 8.352C26.5621 8.848 26.3141 9.528 26.3141 10.392V17.448C26.3141 17.608 26.2581 17.744 26.1461 17.856C26.0341 17.952 25.8981 18 25.7381 18H24.5621ZM38.0449 18.24C36.3969 18.24 35.0769 17.736 34.0849 16.728C33.1089 15.704 32.5729 14.312 32.4769 12.552L32.4529 11.736L32.4769 10.944C32.5889 9.216 33.1329 7.84 34.1089 6.816C35.1009 5.792 36.4049 5.28 38.0209 5.28C39.7969 5.28 41.1729 5.848 42.1489 6.984C43.1249 8.104 43.6129 9.624 43.6129 11.544V11.952C43.6129 12.112 43.5569 12.248 43.4449 12.36C43.3489 12.456 43.2209 12.504 43.0609 12.504H34.7569V12.72C34.8049 13.76 35.1169 14.648 35.6929 15.384C36.2849 16.104 37.0609 16.464 38.0209 16.464C38.7569 16.464 39.3569 16.32 39.8209 16.032C40.3009 15.728 40.6529 15.416 40.8769 15.096C41.0209 14.904 41.1249 14.792 41.1889 14.76C41.2689 14.712 41.4049 14.688 41.5969 14.688H42.7729C42.9169 14.688 43.0369 14.728 43.1329 14.808C43.2289 14.888 43.2769 15 43.2769 15.144C43.2769 15.496 43.0529 15.92 42.6049 16.416C42.1729 16.912 41.5569 17.344 40.7569 17.712C39.9729 18.064 39.0689 18.24 38.0449 18.24ZM41.3329 10.848V10.776C41.3329 9.672 41.0289 8.776 40.4209 8.088C39.8289 7.384 39.0289 7.032 38.0209 7.032C37.0129 7.032 36.2129 7.384 35.6209 8.088C35.0449 8.776 34.7569 9.672 34.7569 10.776V10.848H41.3329ZM50.1226 18.24C49.3386 18.24 48.6106 18.08 47.9386 17.76C47.2666 17.44 46.7306 17.008 46.3306 16.464C45.9466 15.904 45.7546 15.288 45.7546 14.616C45.7546 13.56 46.1866 12.696 47.0506 12.024C47.9306 11.336 49.1146 10.888 50.6026 10.68L54.1786 10.176V9.48C54.1786 7.848 53.2426 7.032 51.3706 7.032C50.6666 7.032 50.0906 7.184 49.6426 7.488C49.1946 7.776 48.8586 8.12 48.6346 8.52C48.5866 8.664 48.5226 8.768 48.4426 8.832C48.3786 8.896 48.2826 8.928 48.1546 8.928H47.1226C46.9786 8.928 46.8506 8.88 46.7386 8.784C46.6426 8.672 46.5946 8.544 46.5946 8.4C46.6106 8.016 46.7866 7.584 47.1226 7.104C47.4746 6.608 48.0106 6.184 48.7306 5.832C49.4506 5.464 50.3386 5.28 51.3946 5.28C53.1866 5.28 54.4746 5.704 55.2586 6.552C56.0426 7.384 56.4346 8.424 56.4346 9.672V17.448C56.4346 17.608 56.3786 17.744 56.2666 17.856C56.1706 17.952 56.0426 18 55.8826 18H54.7786C54.6186 18 54.4826 17.952 54.3706 17.856C54.2746 17.744 54.2266 17.608 54.2266 17.448V16.416C53.8746 16.928 53.3626 17.36 52.6906 17.712C52.0186 18.064 51.1626 18.24 50.1226 18.24ZM50.6266 16.44C51.6666 16.44 52.5146 16.104 53.1706 15.432C53.8426 14.744 54.1786 13.76 54.1786 12.48V11.808L51.3946 12.216C50.2586 12.376 49.4026 12.648 48.8266 13.032C48.2506 13.4 47.9626 13.872 47.9626 14.448C47.9626 15.088 48.2266 15.584 48.7546 15.936C49.2826 16.272 49.9066 16.44 50.6266 16.44ZM64.6047 18.24C62.9407 18.24 61.6847 17.696 60.8367 16.608C59.9887 15.52 59.5407 14.144 59.4927 12.48L59.4687 11.76L59.4927 11.04C59.5407 9.392 59.9887 8.024 60.8367 6.936C61.6847 5.832 62.9407 5.28 64.6047 5.28C66.2527 5.28 67.5487 5.864 68.4927 7.032V1.512C68.4927 1.352 68.5407 1.224 68.6367 1.128C68.7487 1.016 68.8847 0.959999 69.0447 0.959999H70.1967C70.3567 0.959999 70.4847 1.016 70.5807 1.128C70.6927 1.224 70.7488 1.352 70.7488 1.512V17.448C70.7488 17.608 70.6927 17.744 70.5807 17.856C70.4847 17.952 70.3567 18 70.1967 18H69.1167C68.9567 18 68.8207 17.952 68.7088 17.856C68.6127 17.744 68.5647 17.608 68.5647 17.448V16.44C67.6367 17.64 66.3167 18.24 64.6047 18.24ZM65.1087 16.296C66.2127 16.296 67.0367 15.936 67.5807 15.216C68.1407 14.48 68.4447 13.608 68.4927 12.6C68.5087 12.424 68.5167 12.12 68.5167 11.688C68.5167 11.24 68.5087 10.928 68.4927 10.752C68.4607 9.808 68.1567 8.984 67.5807 8.28C67.0047 7.576 66.1807 7.224 65.1087 7.224C63.9727 7.224 63.1407 7.576 62.6127 8.28C62.1007 8.984 61.8207 9.912 61.7727 11.064L61.7487 11.76C61.7487 14.784 62.8687 16.296 65.1087 16.296ZM76.6622 22.56C76.5342 22.56 76.4222 22.512 76.3262 22.416C76.2302 22.32 76.1822 22.208 76.1822 22.08C76.1822 21.968 76.2222 21.824 76.3022 21.648L78.1502 17.256L73.5662 6.432C73.4862 6.224 73.4462 6.088 73.4462 6.024C73.4462 5.88 73.4942 5.76 73.5902 5.664C73.6862 5.568 73.8062 5.52 73.9502 5.52H75.1262C75.3822 5.52 75.5742 5.656 75.7022 5.928L79.3502 14.664L83.0942 5.928C83.2222 5.656 83.4222 5.52 83.6942 5.52H84.8222C84.9662 5.52 85.0862 5.568 85.1822 5.664C85.2782 5.76 85.3262 5.872 85.3262 6C85.3262 6.048 85.2862 6.192 85.2062 6.432L78.3902 22.152C78.2622 22.424 78.0622 22.56 77.7902 22.56H76.6622ZM93.8664 18C93.7064 18 93.5704 17.952 93.4584 17.856C93.3624 17.744 93.3144 17.608 93.3144 17.448V1.512C93.3144 1.352 93.3624 1.224 93.4584 1.128C93.5704 1.016 93.7064 0.959999 93.8664 0.959999H95.0664C95.2264 0.959999 95.3544 1.016 95.4504 1.128C95.5624 1.224 95.6184 1.352 95.6184 1.512V7.104C96.0824 6.512 96.6264 6.064 97.2504 5.76C97.8744 5.44 98.6504 5.28 99.5784 5.28C101.114 5.28 102.306 5.776 103.154 6.768C104.018 7.744 104.45 9.048 104.45 10.68V17.448C104.45 17.608 104.394 17.744 104.282 17.856C104.186 17.952 104.058 18 103.898 18H102.698C102.538 18 102.402 17.952 102.29 17.856C102.194 17.744 102.146 17.608 102.146 17.448V10.8C102.146 9.664 101.866 8.784 101.306 8.16C100.762 7.536 99.9704 7.224 98.9304 7.224C97.9224 7.224 97.1144 7.544 96.5064 8.184C95.9144 8.808 95.6184 9.68 95.6184 10.8V17.448C95.6184 17.608 95.5624 17.744 95.4504 17.856C95.3544 17.952 95.2264 18 95.0664 18H93.8664ZM111.555 18.24C110.771 18.24 110.043 18.08 109.371 17.76C108.699 17.44 108.163 17.008 107.763 16.464C107.379 15.904 107.187 15.288 107.187 14.616C107.187 13.56 107.619 12.696 108.483 12.024C109.363 11.336 110.547 10.888 112.035 10.68L115.611 10.176V9.48C115.611 7.848 114.675 7.032 112.803 7.032C112.099 7.032 111.523 7.184 111.075 7.488C110.627 7.776 110.291 8.12 110.067 8.52C110.019 8.664 109.955 8.768 109.875 8.832C109.811 8.896 109.715 8.928 109.587 8.928H108.555C108.411 8.928 108.283 8.88 108.171 8.784C108.075 8.672 108.027 8.544 108.027 8.4C108.043 8.016 108.219 7.584 108.555 7.104C108.907 6.608 109.443 6.184 110.163 5.832C110.883 5.464 111.771 5.28 112.827 5.28C114.619 5.28 115.907 5.704 116.691 6.552C117.475 7.384 117.867 8.424 117.867 9.672V17.448C117.867 17.608 117.811 17.744 117.699 17.856C117.603 17.952 117.475 18 117.315 18H116.211C116.051 18 115.915 17.952 115.803 17.856C115.707 17.744 115.659 17.608 115.659 17.448V16.416C115.307 16.928 114.795 17.36 114.123 17.712C113.451 18.064 112.595 18.24 111.555 18.24ZM112.059 16.44C113.099 16.44 113.947 16.104 114.603 15.432C115.275 14.744 115.611 13.76 115.611 12.48V11.808L112.827 12.216C111.691 12.376 110.835 12.648 110.259 13.032C109.683 13.4 109.395 13.872 109.395 14.448C109.395 15.088 109.659 15.584 110.187 15.936C110.715 16.272 111.339 16.44 112.059 16.44ZM125.587 18C125.171 18 124.875 17.8 124.699 17.4L120.259 6.264L120.211 6.024C120.211 5.88 120.259 5.76 120.355 5.664C120.451 5.568 120.571 5.52 120.715 5.52H121.867C122.139 5.52 122.339 5.656 122.467 5.928L126.115 15.384L129.763 5.928C129.907 5.656 130.099 5.52 130.339 5.52H131.515C131.643 5.52 131.755 5.568 131.851 5.664C131.963 5.76 132.019 5.88 132.019 6.024L131.971 6.264L127.507 17.4C127.331 17.8 127.035 18 126.619 18H125.587ZM139.239 18.24C137.591 18.24 136.271 17.736 135.279 16.728C134.303 15.704 133.767 14.312 133.671 12.552L133.647 11.736L133.671 10.944C133.783 9.216 134.327 7.84 135.303 6.816C136.295 5.792 137.599 5.28 139.215 5.28C140.991 5.28 142.367 5.848 143.343 6.984C144.319 8.104 144.807 9.624 144.807 11.544V11.952C144.807 12.112 144.751 12.248 144.639 12.36C144.543 12.456 144.415 12.504 144.255 12.504H135.951V12.72C135.999 13.76 136.311 14.648 136.887 15.384C137.479 16.104 138.255 16.464 139.215 16.464C139.951 16.464 140.551 16.32 141.015 16.032C141.495 15.728 141.847 15.416 142.071 15.096C142.215 14.904 142.319 14.792 142.383 14.76C142.463 14.712 142.599 14.688 142.791 14.688H143.967C144.111 14.688 144.231 14.728 144.327 14.808C144.423 14.888 144.471 15 144.471 15.144C144.471 15.496 144.247 15.92 143.799 16.416C143.367 16.912 142.751 17.344 141.951 17.712C141.167 18.064 140.263 18.24 139.239 18.24ZM142.527 10.848V10.776C142.527 9.672 142.223 8.776 141.615 8.088C141.023 7.384 140.223 7.032 139.215 7.032C138.207 7.032 137.407 7.384 136.815 8.088C136.239 8.776 135.951 9.672 135.951 10.776V10.848H142.527ZM157.359 18.24C156.575 18.24 155.847 18.08 155.175 17.76C154.503 17.44 153.967 17.008 153.567 16.464C153.183 15.904 152.991 15.288 152.991 14.616C152.991 13.56 153.423 12.696 154.287 12.024C155.167 11.336 156.351 10.888 157.839 10.68L161.415 10.176V9.48C161.415 7.848 160.479 7.032 158.607 7.032C157.903 7.032 157.327 7.184 156.879 7.488C156.431 7.776 156.095 8.12 155.871 8.52C155.823 8.664 155.759 8.768 155.679 8.832C155.615 8.896 155.519 8.928 155.391 8.928H154.359C154.215 8.928 154.087 8.88 153.975 8.784C153.879 8.672 153.831 8.544 153.831 8.4C153.847 8.016 154.023 7.584 154.359 7.104C154.711 6.608 155.247 6.184 155.967 5.832C156.687 5.464 157.575 5.28 158.631 5.28C160.423 5.28 161.711 5.704 162.495 6.552C163.279 7.384 163.671 8.424 163.671 9.672V17.448C163.671 17.608 163.615 17.744 163.503 17.856C163.407 17.952 163.279 18 163.119 18H162.015C161.855 18 161.719 17.952 161.607 17.856C161.511 17.744 161.463 17.608 161.463 17.448V16.416C161.111 16.928 160.599 17.36 159.927 17.712C159.255 18.064 158.399 18.24 157.359 18.24ZM157.863 16.44C158.903 16.44 159.751 16.104 160.407 15.432C161.079 14.744 161.415 13.76 161.415 12.48V11.808L158.631 12.216C157.495 12.376 156.639 12.648 156.063 13.032C155.487 13.4 155.199 13.872 155.199 14.448C155.199 15.088 155.463 15.584 155.991 15.936C156.519 16.272 157.143 16.44 157.863 16.44ZM167.834 18C167.674 18 167.538 17.952 167.426 17.856C167.33 17.744 167.282 17.608 167.282 17.448V6.072C167.282 5.912 167.33 5.784 167.426 5.688C167.538 5.576 167.674 5.52 167.834 5.52H168.962C169.122 5.52 169.25 5.576 169.346 5.688C169.458 5.784 169.514 5.912 169.514 6.072V7.128C169.978 6.536 170.522 6.08 171.146 5.76C171.786 5.44 172.578 5.28 173.522 5.28C175.058 5.28 176.25 5.776 177.098 6.768C177.962 7.744 178.394 9.048 178.394 10.68V17.448C178.394 17.608 178.338 17.744 178.226 17.856C178.13 17.952 178.002 18 177.842 18H176.642C176.482 18 176.346 17.952 176.234 17.856C176.138 17.744 176.09 17.608 176.09 17.448V10.8C176.09 9.664 175.81 8.784 175.25 8.16C174.706 7.536 173.914 7.224 172.874 7.224C171.866 7.224 171.066 7.544 170.474 8.184C169.882 8.808 169.586 9.68 169.586 10.8V17.448C169.586 17.608 169.53 17.744 169.418 17.856C169.322 17.952 169.194 18 169.034 18H167.834ZM191.519 18.24C190.735 18.24 190.007 18.08 189.335 17.76C188.663 17.44 188.127 17.008 187.727 16.464C187.343 15.904 187.151 15.288 187.151 14.616C187.151 13.56 187.583 12.696 188.447 12.024C189.327 11.336 190.511 10.888 191.999 10.68L195.575 10.176V9.48C195.575 7.848 194.639 7.032 192.767 7.032C192.063 7.032 191.487 7.184 191.039 7.488C190.591 7.776 190.255 8.12 190.031 8.52C189.983 8.664 189.919 8.768 189.839 8.832C189.775 8.896 189.679 8.928 189.551 8.928H188.519C188.375 8.928 188.247 8.88 188.135 8.784C188.039 8.672 187.991 8.544 187.991 8.4C188.007 8.016 188.183 7.584 188.519 7.104C188.871 6.608 189.407 6.184 190.127 5.832C190.847 5.464 191.735 5.28 192.791 5.28C194.583 5.28 195.871 5.704 196.655 6.552C197.439 7.384 197.831 8.424 197.831 9.672V17.448C197.831 17.608 197.775 17.744 197.663 17.856C197.567 17.952 197.439 18 197.279 18H196.175C196.015 18 195.879 17.952 195.767 17.856C195.671 17.744 195.623 17.608 195.623 17.448V16.416C195.271 16.928 194.759 17.36 194.087 17.712C193.415 18.064 192.559 18.24 191.519 18.24ZM192.023 16.44C193.063 16.44 193.911 16.104 194.567 15.432C195.239 14.744 195.575 13.76 195.575 12.48V11.808L192.791 12.216C191.655 12.376 190.799 12.648 190.223 13.032C189.647 13.4 189.359 13.872 189.359 14.448C189.359 15.088 189.623 15.584 190.151 15.936C190.679 16.272 191.303 16.44 192.023 16.44ZM206.481 18.24C204.769 18.24 203.425 17.76 202.449 16.8C201.489 15.824 200.977 14.464 200.913 12.72L200.889 11.76L200.913 10.8C200.977 9.056 201.489 7.704 202.449 6.744C203.425 5.768 204.769 5.28 206.481 5.28C207.633 5.28 208.609 5.488 209.409 5.904C210.209 6.32 210.801 6.832 211.185 7.44C211.585 8.048 211.801 8.656 211.833 9.264C211.849 9.424 211.801 9.552 211.689 9.648C211.577 9.744 211.441 9.792 211.281 9.792H210.129C209.969 9.792 209.849 9.76 209.769 9.696C209.689 9.632 209.609 9.504 209.529 9.312C209.257 8.544 208.873 8 208.377 7.68C207.881 7.344 207.257 7.176 206.505 7.176C205.513 7.176 204.721 7.488 204.129 8.112C203.553 8.72 203.241 9.656 203.193 10.92L203.169 11.784L203.193 12.6C203.241 13.88 203.553 14.824 204.129 15.432C204.705 16.04 205.497 16.344 206.505 16.344C207.257 16.344 207.881 16.184 208.377 15.864C208.873 15.528 209.257 14.976 209.529 14.208C209.609 14.016 209.689 13.888 209.769 13.824C209.849 13.744 209.969 13.704 210.129 13.704H211.281C211.441 13.704 211.577 13.76 211.689 13.872C211.801 13.968 211.849 14.096 211.833 14.256C211.801 14.848 211.585 15.456 211.185 16.08C210.801 16.688 210.209 17.2 209.409 17.616C208.625 18.032 207.649 18.24 206.481 18.24ZM219.884 18.24C218.172 18.24 216.828 17.76 215.852 16.8C214.892 15.824 214.38 14.464 214.316 12.72L214.292 11.76L214.316 10.8C214.38 9.056 214.892 7.704 215.852 6.744C216.828 5.768 218.172 5.28 219.884 5.28C221.036 5.28 222.012 5.488 222.812 5.904C223.612 6.32 224.204 6.832 224.588 7.44C224.988 8.048 225.204 8.656 225.236 9.264C225.252 9.424 225.204 9.552 225.092 9.648C224.98 9.744 224.844 9.792 224.684 9.792H223.532C223.372 9.792 223.252 9.76 223.172 9.696C223.092 9.632 223.012 9.504 222.932 9.312C222.66 8.544 222.276 8 221.78 7.68C221.284 7.344 220.66 7.176 219.908 7.176C218.916 7.176 218.124 7.488 217.532 8.112C216.956 8.72 216.644 9.656 216.596 10.92L216.572 11.784L216.596 12.6C216.644 13.88 216.956 14.824 217.532 15.432C218.108 16.04 218.9 16.344 219.908 16.344C220.66 16.344 221.284 16.184 221.78 15.864C222.276 15.528 222.66 14.976 222.932 14.208C223.012 14.016 223.092 13.888 223.172 13.824C223.252 13.744 223.372 13.704 223.532 13.704H224.684C224.844 13.704 224.98 13.76 225.092 13.872C225.204 13.968 225.252 14.096 225.236 14.256C225.204 14.848 224.988 15.456 224.588 16.08C224.204 16.688 223.612 17.2 222.812 17.616C222.028 18.032 221.052 18.24 219.884 18.24ZM233.358 18.24C231.598 18.24 230.23 17.744 229.254 16.752C228.294 15.76 227.782 14.44 227.718 12.792L227.694 11.76L227.718 10.728C227.782 9.096 228.302 7.784 229.278 6.792C230.254 5.784 231.614 5.28 233.358 5.28C235.102 5.28 236.462 5.784 237.438 6.792C238.414 7.784 238.934 9.096 238.998 10.728C239.014 10.904 239.022 11.248 239.022 11.76C239.022 12.272 239.014 12.616 238.998 12.792C238.934 14.44 238.414 15.76 237.438 16.752C236.478 17.744 235.118 18.24 233.358 18.24ZM233.358 16.392C234.366 16.392 235.158 16.072 235.734 15.432C236.326 14.792 236.646 13.872 236.694 12.672C236.71 12.512 236.718 12.208 236.718 11.76C236.718 11.312 236.71 11.008 236.694 10.848C236.646 9.648 236.326 8.728 235.734 8.088C235.158 7.448 234.366 7.128 233.358 7.128C232.35 7.128 231.55 7.448 230.958 8.088C230.366 8.728 230.054 9.648 230.022 10.848L229.998 11.76L230.022 12.672C230.054 13.872 230.366 14.792 230.958 15.432C231.55 16.072 232.35 16.392 233.358 16.392ZM246.843 18.24C245.323 18.24 244.147 17.752 243.315 16.776C242.483 15.784 242.067 14.472 242.067 12.84V6.072C242.067 5.912 242.115 5.784 242.211 5.688C242.323 5.576 242.459 5.52 242.619 5.52H243.819C243.979 5.52 244.107 5.576 244.203 5.688C244.315 5.784 244.371 5.912 244.371 6.072V12.72C244.371 15.104 245.411 16.296 247.491 16.296C248.499 16.296 249.299 15.984 249.891 15.36C250.483 14.72 250.779 13.84 250.779 12.72V6.072C250.779 5.912 250.827 5.784 250.923 5.688C251.035 5.576 251.171 5.52 251.331 5.52H252.531C252.691 5.52 252.819 5.576 252.915 5.688C253.011 5.784 253.059 5.912 253.059 6.072V17.448C253.059 17.608 253.011 17.744 252.915 17.856C252.819 17.952 252.691 18 252.531 18H251.403C251.243 18 251.107 17.952 250.995 17.856C250.899 17.744 250.851 17.608 250.851 17.448V16.392C250.403 17 249.859 17.464 249.219 17.784C248.579 18.088 247.787 18.24 246.843 18.24ZM257.336 18C257.176 18 257.04 17.952 256.928 17.856C256.832 17.744 256.784 17.608 256.784 17.448V6.072C256.784 5.912 256.832 5.784 256.928 5.688C257.04 5.576 257.176 5.52 257.336 5.52H258.464C258.624 5.52 258.752 5.576 258.848 5.688C258.96 5.784 259.016 5.912 259.016 6.072V7.128C259.48 6.536 260.024 6.08 260.648 5.76C261.288 5.44 262.08 5.28 263.024 5.28C264.56 5.28 265.752 5.776 266.6 6.768C267.464 7.744 267.896 9.048 267.896 10.68V17.448C267.896 17.608 267.84 17.744 267.728 17.856C267.632 17.952 267.504 18 267.344 18H266.144C265.984 18 265.848 17.952 265.736 17.856C265.64 17.744 265.592 17.608 265.592 17.448V10.8C265.592 9.664 265.312 8.784 264.752 8.16C264.208 7.536 263.416 7.224 262.376 7.224C261.368 7.224 260.568 7.544 259.976 8.184C259.384 8.808 259.088 9.68 259.088 10.8V17.448C259.088 17.608 259.032 17.744 258.92 17.856C258.824 17.952 258.696 18 258.536 18H257.336ZM276.207 18C273.679 18 272.415 16.592 272.415 13.776V7.44H270.543C270.383 7.44 270.247 7.392 270.135 7.296C270.039 7.184 269.991 7.048 269.991 6.888V6.072C269.991 5.912 270.039 5.784 270.135 5.688C270.247 5.576 270.383 5.52 270.543 5.52H272.415V1.512C272.415 1.352 272.463 1.224 272.559 1.128C272.671 1.016 272.807 0.959999 272.967 0.959999H274.095C274.255 0.959999 274.383 1.016 274.479 1.128C274.591 1.224 274.647 1.352 274.647 1.512V5.52H277.623C277.783 5.52 277.911 5.576 278.007 5.688C278.119 5.784 278.175 5.912 278.175 6.072V6.888C278.175 7.048 278.119 7.184 278.007 7.296C277.911 7.392 277.783 7.44 277.623 7.44H274.647V13.608C274.647 14.408 274.783 15.016 275.055 15.432C275.327 15.832 275.775 16.032 276.399 16.032H277.863C278.023 16.032 278.151 16.088 278.247 16.2C278.359 16.296 278.415 16.424 278.415 16.584V17.448C278.415 17.608 278.359 17.744 278.247 17.856C278.151 17.952 278.023 18 277.863 18H276.207ZM284.926 14.064C284.782 14.064 284.662 14.016 284.566 13.92C284.47 13.824 284.422 13.704 284.422 13.56V12.6C284.454 11.752 284.67 11.024 285.07 10.416C285.47 9.808 286.054 9.112 286.822 8.328C287.446 7.688 287.902 7.16 288.19 6.744C288.478 6.328 288.622 5.872 288.622 5.376C288.622 4.64 288.31 4.056 287.686 3.624C287.078 3.192 286.366 2.976 285.55 2.976C283.646 2.976 282.526 3.936 282.19 5.856C282.11 6.208 281.902 6.384 281.566 6.384H280.414C280.254 6.384 280.126 6.336 280.03 6.24C279.934 6.144 279.886 6.016 279.886 5.856C279.918 4.976 280.166 4.168 280.63 3.432C281.11 2.68 281.782 2.08 282.646 1.632C283.51 1.184 284.502 0.959999 285.622 0.959999C286.806 0.959999 287.798 1.168 288.598 1.584C289.414 1.984 290.014 2.512 290.398 3.168C290.782 3.808 290.974 4.496 290.974 5.232C290.974 6.048 290.79 6.752 290.422 7.344C290.054 7.936 289.502 8.624 288.766 9.408C288.158 10.048 287.702 10.592 287.398 11.04C287.094 11.472 286.918 11.96 286.87 12.504C286.838 12.952 286.822 13.288 286.822 13.512C286.742 13.88 286.542 14.064 286.222 14.064H284.926ZM284.734 18C284.574 18 284.438 17.952 284.326 17.856C284.23 17.744 284.182 17.608 284.182 17.448V15.984C284.182 15.824 284.23 15.696 284.326 15.6C284.438 15.488 284.574 15.432 284.734 15.432H286.294C286.454 15.432 286.59 15.488 286.702 15.6C286.814 15.696 286.87 15.824 286.87 15.984V17.448C286.87 17.608 286.814 17.744 286.702 17.856C286.59 17.952 286.454 18 286.294 18H284.734Z" fill="#666666"/>
<path d="M4.746 39.14C3.49533 39.14 2.54333 38.804 1.89 38.132C1.246 37.46 0.900667 36.5313 0.854 35.346C0.844667 35.094 0.84 34.6833 0.84 34.114C0.84 33.5353 0.844667 33.1153 0.854 32.854C0.900667 31.678 1.25067 30.754 1.904 30.082C2.55733 29.4007 3.50467 29.06 4.746 29.06C5.57667 29.06 6.28133 29.2093 6.86 29.508C7.43867 29.7973 7.87733 30.18 8.176 30.656C8.47467 31.132 8.638 31.6407 8.666 32.182V32.21C8.666 32.2847 8.63333 32.35 8.568 32.406C8.512 32.4527 8.44667 32.476 8.372 32.476H7.602C7.41533 32.476 7.29867 32.3687 7.252 32.154C7.09333 31.454 6.80867 30.964 6.398 30.684C5.98733 30.3947 5.43667 30.25 4.746 30.25C3.14067 30.25 2.31 31.1413 2.254 32.924C2.24467 33.176 2.24 33.5633 2.24 34.086C2.24 34.6087 2.24467 35.0053 2.254 35.276C2.31 37.0587 3.14067 37.95 4.746 37.95C5.43667 37.95 5.98733 37.81 6.398 37.53C6.818 37.2407 7.10267 36.746 7.252 36.046C7.28 35.9247 7.322 35.8407 7.378 35.794C7.434 35.7473 7.50867 35.724 7.602 35.724H8.372C8.456 35.724 8.526 35.752 8.582 35.808C8.64733 35.8547 8.67533 35.92 8.666 36.004C8.638 36.5547 8.47467 37.068 8.176 37.544C7.87733 38.02 7.43867 38.4073 6.86 38.706C6.28133 38.9953 5.57667 39.14 4.746 39.14ZM10.8562 39C10.7629 39 10.6836 38.972 10.6182 38.916C10.5622 38.8507 10.5342 38.7713 10.5342 38.678V29.382C10.5342 29.2887 10.5622 29.214 10.6182 29.158C10.6836 29.0927 10.7629 29.06 10.8562 29.06H11.5142C11.6076 29.06 11.6822 29.0927 11.7382 29.158C11.8036 29.214 11.8362 29.2887 11.8362 29.382V38.678C11.8362 38.7713 11.8036 38.8507 11.7382 38.916C11.6822 38.972 11.6076 39 11.5142 39H10.8562ZM14.2945 30.362C14.2012 30.362 14.1218 30.334 14.0565 30.278C14.0005 30.2127 13.9725 30.1333 13.9725 30.04V29.284C13.9725 29.1907 14.0005 29.1113 14.0565 29.046C14.1218 28.9807 14.2012 28.948 14.2945 28.948H15.1765C15.2698 28.948 15.3492 28.9807 15.4145 29.046C15.4798 29.1113 15.5125 29.1907 15.5125 29.284V30.04C15.5125 30.1333 15.4798 30.2127 15.4145 30.278C15.3492 30.334 15.2698 30.362 15.1765 30.362H14.2945ZM14.4065 39C14.3132 39 14.2338 38.972 14.1685 38.916C14.1125 38.8507 14.0845 38.7713 14.0845 38.678V32.042C14.0845 31.9487 14.1125 31.874 14.1685 31.818C14.2338 31.7527 14.3132 31.72 14.4065 31.72H15.0785C15.1718 31.72 15.2465 31.7527 15.3025 31.818C15.3678 31.874 15.4005 31.9487 15.4005 32.042V38.678C15.4005 38.7713 15.3678 38.8507 15.3025 38.916C15.2465 38.972 15.1718 39 15.0785 39H14.4065ZM20.5751 39.14C19.5765 39.14 18.7925 38.86 18.2231 38.3C17.6631 37.7307 17.3645 36.9373 17.3271 35.92L17.3131 35.36L17.3271 34.8C17.3645 33.7827 17.6631 32.994 18.2231 32.434C18.7925 31.8647 19.5765 31.58 20.5751 31.58C21.2471 31.58 21.8165 31.7013 22.2831 31.944C22.7498 32.1867 23.0951 32.4853 23.3191 32.84C23.5525 33.1947 23.6785 33.5493 23.6971 33.904C23.7065 33.9973 23.6785 34.072 23.6131 34.128C23.5478 34.184 23.4685 34.212 23.3751 34.212H22.7031C22.6098 34.212 22.5398 34.1933 22.4931 34.156C22.4465 34.1187 22.3998 34.044 22.3531 33.932C22.1945 33.484 21.9705 33.1667 21.6811 32.98C21.3918 32.784 21.0278 32.686 20.5891 32.686C20.0105 32.686 19.5485 32.868 19.2031 33.232C18.8671 33.5867 18.6851 34.1327 18.6571 34.87L18.6431 35.374L18.6571 35.85C18.6851 36.5967 18.8671 37.1473 19.2031 37.502C19.5391 37.8567 20.0011 38.034 20.5891 38.034C21.0278 38.034 21.3918 37.9407 21.6811 37.754C21.9705 37.558 22.1945 37.236 22.3531 36.788C22.3998 36.676 22.4465 36.6013 22.4931 36.564C22.5398 36.5173 22.6098 36.494 22.7031 36.494H23.3751C23.4685 36.494 23.5478 36.5267 23.6131 36.592C23.6785 36.648 23.7065 36.7227 23.6971 36.816C23.6785 37.1613 23.5525 37.516 23.3191 37.88C23.0951 38.2347 22.7498 38.5333 22.2831 38.776C21.8258 39.0187 21.2565 39.14 20.5751 39.14ZM25.8557 39C25.7624 39 25.6831 38.972 25.6177 38.916C25.5617 38.8507 25.5337 38.7713 25.5337 38.678V29.382C25.5337 29.2887 25.5617 29.214 25.6177 29.158C25.6831 29.0927 25.7624 29.06 25.8557 29.06H26.5137C26.6071 29.06 26.6817 29.0927 26.7377 29.158C26.8031 29.214 26.8357 29.2887 26.8357 29.382V34.254L29.5937 31.958C29.6217 31.9393 29.6684 31.902 29.7337 31.846C29.7991 31.7993 29.8597 31.7667 29.9157 31.748C29.9811 31.7293 30.0604 31.72 30.1537 31.72H30.8957C30.9797 31.72 31.0497 31.748 31.1057 31.804C31.1617 31.86 31.1897 31.93 31.1897 32.014C31.1897 32.1167 31.1337 32.2053 31.0217 32.28L27.7877 34.968L31.3717 38.454C31.4837 38.5473 31.5397 38.6313 31.5397 38.706C31.5397 38.79 31.5117 38.86 31.4557 38.916C31.3997 38.972 31.3297 39 31.2457 39H30.5177C30.3777 39 30.2751 38.986 30.2097 38.958C30.1537 38.93 30.0697 38.8647 29.9577 38.762L26.8357 35.78V38.678C26.8357 38.7713 26.8031 38.8507 26.7377 38.916C26.6817 38.972 26.6071 39 26.5137 39H25.8557ZM36.6894 39C36.5961 39 36.5168 38.972 36.4514 38.916C36.3954 38.8507 36.3674 38.7713 36.3674 38.678V29.382C36.3674 29.2887 36.3954 29.214 36.4514 29.158C36.5168 29.0927 36.5961 29.06 36.6894 29.06H37.3894C37.4828 29.06 37.5574 29.0927 37.6134 29.158C37.6788 29.214 37.7114 29.2887 37.7114 29.382V32.644C37.9821 32.2987 38.2994 32.0373 38.6634 31.86C39.0274 31.6733 39.4801 31.58 40.0214 31.58C40.9174 31.58 41.6128 31.8693 42.1074 32.448C42.6114 33.0173 42.8634 33.778 42.8634 34.73V38.678C42.8634 38.7713 42.8308 38.8507 42.7654 38.916C42.7094 38.972 42.6348 39 42.5414 39H41.8414C41.7481 39 41.6688 38.972 41.6034 38.916C41.5474 38.8507 41.5194 38.7713 41.5194 38.678V34.8C41.5194 34.1373 41.3561 33.624 41.0294 33.26C40.7121 32.896 40.2501 32.714 39.6434 32.714C39.0554 32.714 38.5841 32.9007 38.2294 33.274C37.8841 33.638 37.7114 34.1467 37.7114 34.8V38.678C37.7114 38.7713 37.6788 38.8507 37.6134 38.916C37.5574 38.972 37.4828 39 37.3894 39H36.6894ZM47.9567 39.14C46.9953 39.14 46.2253 38.846 45.6467 38.258C45.0773 37.6607 44.7647 36.8487 44.7087 35.822L44.6947 35.346L44.7087 34.884C44.774 33.876 45.0913 33.0733 45.6607 32.476C46.2393 31.8787 47 31.58 47.9427 31.58C48.9787 31.58 49.7813 31.9113 50.3507 32.574C50.92 33.2273 51.2047 34.114 51.2047 35.234V35.472C51.2047 35.5653 51.172 35.6447 51.1067 35.71C51.0507 35.766 50.976 35.794 50.8827 35.794H46.0387V35.92C46.0667 36.5267 46.2487 37.0447 46.5847 37.474C46.93 37.894 47.3827 38.104 47.9427 38.104C48.372 38.104 48.722 38.02 48.9927 37.852C49.2727 37.6747 49.478 37.4927 49.6087 37.306C49.6927 37.194 49.7533 37.1287 49.7907 37.11C49.8373 37.082 49.9167 37.068 50.0287 37.068H50.7147C50.7987 37.068 50.8687 37.0913 50.9247 37.138C50.9807 37.1847 51.0087 37.25 51.0087 37.334C51.0087 37.5393 50.878 37.7867 50.6167 38.076C50.3647 38.3653 50.0053 38.6173 49.5387 38.832C49.0813 39.0373 48.554 39.14 47.9567 39.14ZM49.8747 34.828V34.786C49.8747 34.142 49.6973 33.6193 49.3427 33.218C48.9973 32.8073 48.5307 32.602 47.9427 32.602C47.3547 32.602 46.888 32.8073 46.5427 33.218C46.2067 33.6193 46.0387 34.142 46.0387 34.786V34.828H49.8747ZM53.3607 39C53.2673 39 53.188 38.972 53.1227 38.916C53.0667 38.8507 53.0387 38.7713 53.0387 38.678V32.056C53.0387 31.9627 53.0667 31.8833 53.1227 31.818C53.188 31.7527 53.2673 31.72 53.3607 31.72H54.0047C54.098 31.72 54.1773 31.7527 54.2427 31.818C54.308 31.8833 54.3407 31.9627 54.3407 32.056V32.672C54.7233 32.0373 55.3767 31.72 56.3007 31.72H56.8467C56.94 31.72 57.0147 31.7527 57.0707 31.818C57.136 31.874 57.1687 31.9487 57.1687 32.042V32.616C57.1687 32.7093 57.136 32.784 57.0707 32.84C57.0147 32.896 56.94 32.924 56.8467 32.924H56.0067C55.5027 32.924 55.106 33.0733 54.8167 33.372C54.5273 33.6613 54.3827 34.058 54.3827 34.562V38.678C54.3827 38.7713 54.35 38.8507 54.2847 38.916C54.2193 38.972 54.14 39 54.0467 39H53.3607ZM61.2923 39.14C60.331 39.14 59.561 38.846 58.9823 38.258C58.413 37.6607 58.1003 36.8487 58.0443 35.822L58.0303 35.346L58.0443 34.884C58.1096 33.876 58.427 33.0733 58.9963 32.476C59.575 31.8787 60.3356 31.58 61.2783 31.58C62.3143 31.58 63.117 31.9113 63.6863 32.574C64.2556 33.2273 64.5403 34.114 64.5403 35.234V35.472C64.5403 35.5653 64.5076 35.6447 64.4423 35.71C64.3863 35.766 64.3116 35.794 64.2183 35.794H59.3743V35.92C59.4023 36.5267 59.5843 37.0447 59.9203 37.474C60.2656 37.894 60.7183 38.104 61.2783 38.104C61.7076 38.104 62.0576 38.02 62.3283 37.852C62.6083 37.6747 62.8136 37.4927 62.9443 37.306C63.0283 37.194 63.089 37.1287 63.1263 37.11C63.173 37.082 63.2523 37.068 63.3643 37.068H64.0503C64.1343 37.068 64.2043 37.0913 64.2603 37.138C64.3163 37.1847 64.3443 37.25 64.3443 37.334C64.3443 37.5393 64.2136 37.7867 63.9523 38.076C63.7003 38.3653 63.341 38.6173 62.8743 38.832C62.417 39.0373 61.8896 39.14 61.2923 39.14ZM63.2103 34.828V34.786C63.2103 34.142 63.033 33.6193 62.6783 33.218C62.333 32.8073 61.8663 32.602 61.2783 32.602C60.6903 32.602 60.2236 32.8073 59.8783 33.218C59.5423 33.6193 59.3743 34.142 59.3743 34.786V34.828H63.2103ZM72.5071 39C71.0325 39 70.2951 38.1787 70.2951 36.536V32.84H69.2031C69.1098 32.84 69.0305 32.812 68.9651 32.756C68.9091 32.6907 68.8811 32.6113 68.8811 32.518V32.042C68.8811 31.9487 68.9091 31.874 68.9651 31.818C69.0305 31.7527 69.1098 31.72 69.2031 31.72H70.2951V29.382C70.2951 29.2887 70.3231 29.214 70.3791 29.158C70.4445 29.0927 70.5238 29.06 70.6171 29.06H71.2751C71.3685 29.06 71.4431 29.0927 71.4991 29.158C71.5645 29.214 71.5971 29.2887 71.5971 29.382V31.72H73.3331C73.4265 31.72 73.5011 31.7527 73.5571 31.818C73.6225 31.874 73.6551 31.9487 73.6551 32.042V32.518C73.6551 32.6113 73.6225 32.6907 73.5571 32.756C73.5011 32.812 73.4265 32.84 73.3331 32.84H71.5971V36.438C71.5971 36.9047 71.6765 37.2593 71.8351 37.502C71.9938 37.7353 72.2551 37.852 72.6191 37.852H73.4731C73.5665 37.852 73.6411 37.8847 73.6971 37.95C73.7625 38.006 73.7951 38.0807 73.7951 38.174V38.678C73.7951 38.7713 73.7625 38.8507 73.6971 38.916C73.6411 38.972 73.5665 39 73.4731 39H72.5071ZM78.2759 39.14C77.2492 39.14 76.4512 38.8507 75.8819 38.272C75.3219 37.6933 75.0232 36.9233 74.9859 35.962L74.9719 35.36L74.9859 34.758C75.0232 33.806 75.3266 33.0407 75.8959 32.462C76.4652 31.874 77.2586 31.58 78.2759 31.58C79.2932 31.58 80.0866 31.874 80.6559 32.462C81.2252 33.0407 81.5286 33.806 81.5659 34.758C81.5752 34.8607 81.5799 35.0613 81.5799 35.36C81.5799 35.6587 81.5752 35.8593 81.5659 35.962C81.5286 36.9233 81.2252 37.6933 80.6559 38.272C80.0959 38.8507 79.3026 39.14 78.2759 39.14ZM78.2759 38.062C78.8639 38.062 79.3259 37.8753 79.6619 37.502C80.0072 37.1287 80.1939 36.592 80.2219 35.892C80.2312 35.7987 80.2359 35.6213 80.2359 35.36C80.2359 35.0987 80.2312 34.9213 80.2219 34.828C80.1939 34.128 80.0072 33.5913 79.6619 33.218C79.3259 32.8447 78.8639 32.658 78.2759 32.658C77.6879 32.658 77.2212 32.8447 76.8759 33.218C76.5306 33.5913 76.3486 34.128 76.3299 34.828L76.3159 35.36L76.3299 35.892C76.3486 36.592 76.5306 37.1287 76.8759 37.502C77.2212 37.8753 77.6879 38.062 78.2759 38.062ZM87.4206 39C87.3273 39 87.2479 38.972 87.1826 38.916C87.1266 38.8507 87.0986 38.7713 87.0986 38.678V29.382C87.0986 29.2887 87.1266 29.214 87.1826 29.158C87.2479 29.0927 87.3273 29.06 87.4206 29.06H88.0786C88.1719 29.06 88.2466 29.0927 88.3026 29.158C88.3679 29.214 88.4006 29.2887 88.4006 29.382V38.678C88.4006 38.7713 88.3679 38.8507 88.3026 38.916C88.2466 38.972 88.1719 39 88.0786 39H87.4206ZM93.6309 39.14C92.6042 39.14 91.8062 38.8507 91.2369 38.272C90.6769 37.6933 90.3782 36.9233 90.3409 35.962L90.3269 35.36L90.3409 34.758C90.3782 33.806 90.6816 33.0407 91.2509 32.462C91.8202 31.874 92.6136 31.58 93.6309 31.58C94.6482 31.58 95.4416 31.874 96.0109 32.462C96.5802 33.0407 96.8836 33.806 96.9209 34.758C96.9302 34.8607 96.9349 35.0613 96.9349 35.36C96.9349 35.6587 96.9302 35.8593 96.9209 35.962C96.8836 36.9233 96.5802 37.6933 96.0109 38.272C95.4509 38.8507 94.6576 39.14 93.6309 39.14ZM93.6309 38.062C94.2189 38.062 94.6809 37.8753 95.0169 37.502C95.3622 37.1287 95.5489 36.592 95.5769 35.892C95.5862 35.7987 95.5909 35.6213 95.5909 35.36C95.5909 35.0987 95.5862 34.9213 95.5769 34.828C95.5489 34.128 95.3622 33.5913 95.0169 33.218C94.6809 32.8447 94.2189 32.658 93.6309 32.658C93.0429 32.658 92.5762 32.8447 92.2309 33.218C91.8856 33.5913 91.7036 34.128 91.6849 34.828L91.6709 35.36L91.6849 35.892C91.7036 36.592 91.8856 37.1287 92.2309 37.502C92.5762 37.8753 93.0429 38.062 93.6309 38.062ZM101.83 42.08C101.065 42.08 100.449 41.9493 99.982 41.688C99.5153 41.436 99.184 41.1467 98.988 40.82C98.792 40.4933 98.6846 40.1993 98.666 39.938C98.6566 39.8447 98.6846 39.7653 98.75 39.7C98.8246 39.6347 98.904 39.602 98.988 39.602H99.66C99.744 39.602 99.814 39.6207 99.87 39.658C99.926 39.7047 99.9726 39.784 100.01 39.896C100.122 40.1947 100.304 40.4513 100.556 40.666C100.817 40.89 101.219 41.002 101.76 41.002C102.451 41.002 102.959 40.8527 103.286 40.554C103.613 40.2647 103.776 39.7467 103.776 39V38.048C103.533 38.356 103.225 38.6033 102.852 38.79C102.479 38.9673 102.035 39.056 101.522 39.056C100.533 39.056 99.7906 38.7433 99.296 38.118C98.8106 37.4833 98.554 36.6807 98.526 35.71L98.512 35.318L98.526 34.94C98.554 33.9787 98.8153 33.1807 99.31 32.546C99.8046 31.902 100.542 31.58 101.522 31.58C102.502 31.58 103.267 31.9393 103.818 32.658V32.056C103.818 31.9627 103.846 31.8833 103.902 31.818C103.967 31.7527 104.047 31.72 104.14 31.72H104.784C104.877 31.72 104.957 31.7527 105.022 31.818C105.087 31.8833 105.12 31.9627 105.12 32.056V38.846C105.12 41.002 104.023 42.08 101.83 42.08ZM101.802 37.936C102.437 37.936 102.917 37.726 103.244 37.306C103.571 36.886 103.748 36.3867 103.776 35.808C103.785 35.724 103.79 35.5607 103.79 35.318C103.79 35.0847 103.785 34.926 103.776 34.842C103.748 34.2633 103.571 33.764 103.244 33.344C102.927 32.924 102.446 32.714 101.802 32.714C101.139 32.714 100.659 32.9193 100.36 33.33C100.061 33.7407 99.898 34.282 99.87 34.954L99.856 35.318L99.87 35.696C99.898 36.3587 100.061 36.9 100.36 37.32C100.659 37.7307 101.139 37.936 101.802 37.936ZM107.571 30.362C107.478 30.362 107.399 30.334 107.333 30.278C107.277 30.2127 107.249 30.1333 107.249 30.04V29.284C107.249 29.1907 107.277 29.1113 107.333 29.046C107.399 28.9807 107.478 28.948 107.571 28.948H108.453C108.547 28.948 108.626 28.9807 108.691 29.046C108.757 29.1113 108.789 29.1907 108.789 29.284V30.04C108.789 30.1333 108.757 30.2127 108.691 30.278C108.626 30.334 108.547 30.362 108.453 30.362H107.571ZM107.683 39C107.59 39 107.511 38.972 107.445 38.916C107.389 38.8507 107.361 38.7713 107.361 38.678V32.042C107.361 31.9487 107.389 31.874 107.445 31.818C107.511 31.7527 107.59 31.72 107.683 31.72H108.355C108.449 31.72 108.523 31.7527 108.579 31.818C108.645 31.874 108.677 31.9487 108.677 32.042V38.678C108.677 38.7713 108.645 38.8507 108.579 38.916C108.523 38.972 108.449 39 108.355 39H107.683ZM111.234 39C111.141 39 111.061 38.972 110.996 38.916C110.94 38.8507 110.912 38.7713 110.912 38.678V32.042C110.912 31.9487 110.94 31.874 110.996 31.818C111.061 31.7527 111.141 31.72 111.234 31.72H111.892C111.985 31.72 112.06 31.7527 112.116 31.818C112.181 31.874 112.214 31.9487 112.214 32.042V32.658C112.485 32.3127 112.802 32.0467 113.166 31.86C113.539 31.6733 114.001 31.58 114.552 31.58C115.448 31.58 116.143 31.8693 116.638 32.448C117.142 33.0173 117.394 33.778 117.394 34.73V38.678C117.394 38.7713 117.361 38.8507 117.296 38.916C117.24 38.972 117.165 39 117.072 39H116.372C116.279 39 116.199 38.972 116.134 38.916C116.078 38.8507 116.05 38.7713 116.05 38.678V34.8C116.05 34.1373 115.887 33.624 115.56 33.26C115.243 32.896 114.781 32.714 114.174 32.714C113.586 32.714 113.119 32.9007 112.774 33.274C112.429 33.638 112.256 34.1467 112.256 34.8V38.678C112.256 38.7713 112.223 38.8507 112.158 38.916C112.102 38.972 112.027 39 111.934 39H111.234ZM119.786 39C119.693 39 119.614 38.972 119.548 38.916C119.492 38.8507 119.464 38.7713 119.464 38.678V37.67C119.464 37.5767 119.492 37.502 119.548 37.446C119.614 37.3807 119.693 37.348 119.786 37.348H120.794C120.888 37.348 120.967 37.3807 121.032 37.446C121.098 37.502 121.13 37.5767 121.13 37.67V38.678C121.13 38.7713 121.098 38.8507 121.032 38.916C120.967 38.972 120.888 39 120.794 39H119.786Z" fill="#17C0EB"/>
</svg>
